<svg xmlns="http://www.w3.org/2000/svg" width="376" height="61.347" viewBox="0 0 376 61.347">
    <defs>
        <style>
            .cls-1{fill:url(#linear-gradient)}
        </style>
        <linearGradient id="linear-gradient" x1=".094" x2=".865" y1=".441" y2=".891" gradientUnits="objectBoundingBox">
            <stop offset="0" stop-color="#e24309"/>
            <stop offset=".488" stop-color="#e23b09"/>
            <stop offset="1" stop-color="#fd6c37"/>
        </linearGradient>
    </defs>
    <path id="coolmate" d="M35.884 2.43h12.151A21.6 21.6 0 0 1 39.6 14.007 23.318 23.318 0 0 1 25.752 18.5a23.94 23.94 0 0 1-8.965-1.8 23.747 23.747 0 0 1-7.737-4.93 23.578 23.578 0 0 1-5.462-7.955 24.587 24.587 0 0 1-1.86-9.539 22.538 22.538 0 0 1 7.025-16.682 23.264 23.264 0 0 1 16.92-6.907 23.635 23.635 0 0 1 13.892 4.552 21.032 21.032 0 0 1 8.47 11.795H35.884a11.276 11.276 0 0 0-10.37-5.818 12.435 12.435 0 0 0-9.341 3.76 13.049 13.049 0 0 0-3.641 9.459 13.183 13.183 0 0 0 3.8 9.736 13.183 13.183 0 0 0 9.736 3.8 10.838 10.838 0 0 0 5.581-1.484 12.8 12.8 0 0 0 4.235-4.057zm41.993-31.743a22.443 22.443 0 0 1 16.663 7.045 23.825 23.825 0 0 1 5.145 7.718 24.311 24.311 0 0 1 1.7 9.222 22.836 22.836 0 0 1-7.045 16.861A23.228 23.228 0 0 1 77.4 18.5a22.933 22.933 0 0 1-16.742-7.005 22.875 22.875 0 0 1-7.042-16.823A22.956 22.956 0 0 1 60.7-22.347a23.594 23.594 0 0 1 17.177-6.966zM77.4-18.785a11.473 11.473 0 0 0-2.454.277 12.014 12.014 0 0 0-2.533.871 13.566 13.566 0 0 0-4.275 2.909 12.445 12.445 0 0 0-2.771 4.275 13.973 13.973 0 0 0-.95 5.125 13.052 13.052 0 0 0 3.76 9.4 12.315 12.315 0 0 0 9.222 3.9 12.692 12.692 0 0 0 9.4-3.819 12.941 12.941 0 0 0 3.78-9.479 13.119 13.119 0 0 0-3.839-9.539 12.585 12.585 0 0 0-9.34-3.92zm52.363-10.528a22.443 22.443 0 0 1 16.663 7.045 23.825 23.825 0 0 1 5.145 7.718 24.311 24.311 0 0 1 1.7 9.222 22.836 22.836 0 0 1-7.045 16.861A23.228 23.228 0 0 1 129.29 18.5a22.933 22.933 0 0 1-16.742-7.005A22.875 22.875 0 0 1 105.5-5.328a22.956 22.956 0 0 1 7.085-17.019 23.594 23.594 0 0 1 17.18-6.966zm-.475 10.528a11.473 11.473 0 0 0-2.454.277 12.014 12.014 0 0 0-2.533.871 13.566 13.566 0 0 0-4.275 2.909 12.445 12.445 0 0 0-2.771 4.275 13.973 13.973 0 0 0-.95 5.125 13.052 13.052 0 0 0 3.76 9.4 12.315 12.315 0 0 0 9.222 3.9 12.692 12.692 0 0 0 9.4-3.819 12.941 12.941 0 0 0 3.78-9.479 13.119 13.119 0 0 0-3.839-9.539 12.585 12.585 0 0 0-9.338-3.92zm30.08 35.819v-59.883h10.765v59.883zm19.473 0v-44.922h9.859v4.156a9.59 9.59 0 0 1 5.145-4.314 17.645 17.645 0 0 1 6.689-1.267 16.2 16.2 0 0 1 6.728 1.445 13.794 13.794 0 0 1 5.3 4.136l.554.633.475.752a2.875 2.875 0 0 1 .515-.752l.633-.633a14.873 14.873 0 0 1 5.858-4.1 19.165 19.165 0 0 1 7.283-1.484 21.391 21.391 0 0 1 7.678 1.286 15.816 15.816 0 0 1 6.075 4.275 16.591 16.591 0 0 1 3.78 7.263 37.843 37.843 0 0 1 .752 8.312v25.214H235.4V-8.652q0-.792-.04-1.464a7.2 7.2 0 0 0-.16-1.184 9.711 9.711 0 0 0-1.385-4.136 7.25 7.25 0 0 0-2.869-2.434 8.679 8.679 0 0 0-3.9-.91 9.337 9.337 0 0 0-4.235.95 8.264 8.264 0 0 0-3.206 2.929 12.169 12.169 0 0 0-1.267 3.364 20.256 20.256 0 0 0-.317 2.454q-.119 1.5-.119 3.443v22.674H207.1V-8.652a10.962 10.962 0 0 0-.2-2.493 9.718 9.718 0 0 0-1.484-3.978 8 8 0 0 0-3.048-2.672 8.655 8.655 0 0 0-4.017-.989 7.719 7.719 0 0 0-6.056 2.335 10.313 10.313 0 0 0-2.335 5.5 44.8 44.8 0 0 0-.356 6.57v21.413zm121.668-44.922v44.922h-9.895v-6.1a18.116 18.116 0 0 1-6.827 5.462 19.552 19.552 0 0 1-8.569 2.1 21.7 21.7 0 0 1-9.321-1.939 21 21 0 0 1-7.223-5.62 23.718 23.718 0 0 1-4.156-7.5 26.99 26.99 0 0 1-1.464-8.846 27.13 27.13 0 0 1 1.326-8.767 21.349 21.349 0 0 1 4.453-7.381 22.023 22.023 0 0 1 7.6-5.858 21.807 21.807 0 0 1 9.1-1.9 18.415 18.415 0 0 1 8.529 1.979 18.107 18.107 0 0 1 6.55 5.779v-6.333zm-10.251 22.4a13.249 13.249 0 0 0-3.6-9.519 12.321 12.321 0 0 0-9.341-3.78 12.926 12.926 0 0 0-9.637 3.9 13.53 13.53 0 0 0-3.819 9.875 12.345 12.345 0 0 0 3.879 9.222 13.033 13.033 0 0 0 9.42 3.76 12.545 12.545 0 0 0 9.42-3.8 13.311 13.311 0 0 0 3.678-9.656zm19.908 22.52V-18.31h-5.3v-9.578h5.3v-14.961h10.765v14.961h6.491v9.578h-6.491v35.344zm67.007-17.65H342.3a11.612 11.612 0 0 0 4.453 6.253 12.379 12.379 0 0 0 7.382 2.335 15.728 15.728 0 0 0 5.8-1.049 10.682 10.682 0 0 0 4.255-2.869h11.91a20 20 0 0 1-8.228 10.248 23.4 23.4 0 0 1-13.338 4.2 23.045 23.045 0 0 1-16.742-6.887 23.629 23.629 0 0 1-5.185-7.6 23.32 23.32 0 0 1-1.741-9.1 23.727 23.727 0 0 1 6.887-17.1 22.683 22.683 0 0 1 16.979-7.124 21.719 21.719 0 0 1 16.247 7.025 23.121 23.121 0 0 1 6.748 16.564v1.542q-.119.673-.158.989zM342.146-10.2h24.737a12.166 12.166 0 0 0-4.67-6.234 12.872 12.872 0 0 0-7.56-2.355 13.767 13.767 0 0 0-7.718 2.375 11.313 11.313 0 0 0-4.789 6.214z" class="cls-1" transform="translate(-1.728 42.849)"/>
</svg>
