<svg xmlns="http://www.w3.org/2000/svg" width="196.38" height="70.403" viewBox="0 0 196.38 70.403">
    <defs>
        <style>
            .cls-1{fill:url(#linear-gradient)}
        </style>
        <linearGradient id="linear-gradient" x1=".209" x2=".801" y1=".314" y2=".876" gradientUnits="objectBoundingBox">
            <stop offset="0" stop-color="#e24309"/>
            <stop offset=".488" stop-color="#e23b09"/>
            <stop offset="1" stop-color="#fd6c37"/>
        </linearGradient>
    </defs>
    <path id="coolmate" d="M36.791-7.888A85.9 85.9 0 0 1 19.47 6.552c-2.964 1.862-6.391 4.176-9.988 4.459-2.157.17-2.816-.612-3-2.726a29.674 29.674 0 0 1 .239-6.408c1.038-7.807 4.171-15.5 8-22.339 3.67-6.56 8.517-13.63 14.814-17.931a16.642 16.642 0 0 1 3.008-1.681 5.572 5.572 0 0 1 1.347-.462c.8-.059.7-.052.893.751a15.108 15.108 0 0 1-.262 5.82 43.824 43.824 0 0 1-4.555 13.205c-.838 1.585 2.946 4.852 3.973 2.91a44.57 44.57 0 0 0 4.8-14.837c.52-3.792.406-7.849-2.814-10.466-3.8-3.086-8.254-.26-11.468 2.32a51.578 51.578 0 0 0-9.706 11.039C8.983-21.469 4.416-11.721 2.832-1.66c-.677 4.3-1.331 9.8 1.537 13.481 2.483 3.191 6.365 3.837 10.085 2.747 4.694-1.376 9.189-4.667 13.11-7.5A86.474 86.474 0 0 0 40.36-4.319c1.333-1.44-2.26-4.981-3.569-3.569zm11.456-2.234a2.977 2.977 0 0 0-.217-.832c1.106-1.257-1.761-4.456-3.263-3.7-4.91 2.457-13.6 10.933-8.356 16.751 2.812 3.121 6.388 1.794 8.7-1.138a15.259 15.259 0 0 0 3.137-11.077zM43.01-5a12.411 12.411 0 0 1-2.157 3.2 15.079 15.079 0 0 1-1.7 1.36c.066-.376.12-.809.165-.946a13.251 13.251 0 0 1 .655-1.567 15.751 15.751 0 0 1 1.966-3.112 17.249 17.249 0 0 1 2.089-2.169A12.826 12.826 0 0 1 43.01-5zm19.457-5.123a2.977 2.977 0 0 0-.217-.832c1.106-1.257-1.761-4.456-3.263-3.7-4.91 2.457-13.6 10.933-8.356 16.751 2.812 3.121 6.388 1.794 8.7-1.138a15.259 15.259 0 0 0 3.137-11.077zM57.23-5a12.411 12.411 0 0 1-2.157 3.2 15.079 15.079 0 0 1-1.7 1.36c.066-.376.12-.809.165-.946a13.251 13.251 0 0 1 .655-1.567 15.751 15.751 0 0 1 1.966-3.112 17.25 17.25 0 0 1 2.089-2.169A12.826 12.826 0 0 1 57.23-5zm28.077-4.438c-2.125 2.295-9.646 6.29-15.3 7.1-.268-2.826 1.831-7.068 2.5-9.072q2.048-6.128 4.247-12.2 4.474-12.36 9.568-24.482c.708-1.688-3.144-4.887-3.973-2.91q-4.651 11.1-8.8 22.388-2.001 5.438-3.876 10.914a89.247 89.247 0 0 0-3.4 10.623C65.727-4.4 65.96-1.784 67.771.37c1.745 2.075 4.037 1.656 6.383.937a32.151 32.151 0 0 0 13.477-8.584c1.333-1.44-1.015-3.575-2.324-2.161zm43.468-.134c-3.988 3.2-12.427 7.3-14.511 7.821a5.075 5.075 0 0 0 .026-1.091 5.341 5.341 0 0 0-3.12-4.15 5.02 5.02 0 0 0-4.713.612c-.555.332-1.1.686-1.639 1.052a10.44 10.44 0 0 0 .587-3.8 4.016 4.016 0 0 0-5.778-3.272 56.556 56.556 0 0 0-11.415 6.941 35.31 35.31 0 0 1 1.037-2.148c.836-1.587-2.949-4.853-3.973-2.91A33.12 33.12 0 0 0 81.728.8c-.173 1.329 2.576 4.082 3.83 2.821a61.751 61.751 0 0 1 8.43-7.121 56.183 56.183 0 0 1 5.031-3.134c.5-.277 1.117-.678 1.768-1.065-.175.557-.347 1.079-.444 1.505l-1.164 5.148c-.363 1.6 2.152 4.394 3.771 3.24l4.293-3.061c.711-.507 1.4-1.077 2.147-1.531a4.143 4.143 0 0 1 .513-.234c-.007.043-.014.089-.022.13a5.3 5.3 0 0 0-.081 2.444 4.449 4.449 0 0 0 4.34 3.157 12.184 12.184 0 0 0 5.218-2 90.8 90.8 0 0 0 11.712-8.338c1.453-1.167-.731-3.589-2.295-2.333zM157.8-9.84c-2.894 2.626-11.041 8.718-15.658 9.27-.062.007-.121.02-.18.028a22.814 22.814 0 0 1 .85-3.494 16.83 16.83 0 0 0 .975-3.513 1.037 1.037 0 0 0 .051-.7 3.76 3.76 0 0 0-1.779-2.378 2.2 2.2 0 0 0-1.72-.5c-.441.114-.87.249-1.289.4a6.415 6.415 0 0 0-9.132-1.143c-3.833 2.855-6.329 7.6-7.351 12.177-.331 1.483 1.816 4.08 3.441 3.441 4.668-1.833 8.072-5.824 12.177-8.545a6.686 6.686 0 0 0-.171 4.065 6.11 6.11 0 0 0 4.881 4.3c2.274.266 4.531-.957 6.413-2.08A71.825 71.825 0 0 0 160.52-7.28c1.413-1.282-1.255-3.892-2.72-2.562zm-27.763 5.145l.085-.121a18.182 18.182 0 0 1 2.77-3.005 5.793 5.793 0 0 1 2.259-1.349l.887-.15.064.017a52.138 52.138 0 0 0-6.065 4.608zm66.5-24.834c-7.191-3.786-16.231-3.864-24.387-3.76a872.337 872.337 0 0 1 3.592-7.559c.783-1.633-3.032-4.872-3.973-2.91-1.674 3.491-3.355 7.012-4.978 10.568a165.77 165.77 0 0 0-26.771 2.979c-1.906.368 1.068 4.329 2.91 3.973a161.044 161.044 0 0 1 21.961-2.7C158.683-14.732 153.757.055 154.01 15.739c.028 1.756 4.13 4.511 4.091 2.073-.267-16.523 5.392-32.063 12.14-46.952l.231-.007q6.6-.118 13.188.307c4.46.29 8.943.723 12.957 2.837.853.449 1.9.379 2.007-.727.109-1.129-1.207-2.339-2.084-2.8zm-7.653 19.88c-4.55 3.518-15.678 8.986-20.249 9.585a12.728 12.728 0 0 1 .6-1.729l.022-.008c2.771-1.326 13.019-5.288 8.662-9.839-3.03-3.166-7.082-.36-9.366 2.148-2.525 2.771-6.132 8.231-3.346 11.95 1.8 2.4 4.408 2.224 6.947 1.321 6.909-2.458 13.293-7.019 19.378-10.991 1.491-.97-1.032-3.681-2.645-2.437z" class="cls-1" transform="translate(-2.25 51.627)"/>
</svg>
