<svg width="38" height="35" viewBox="0 0 38 35" fill="none" xmlns="http://www.w3.org/2000/svg">
<path d="M9 11H5" stroke="white" stroke-width="1.5" stroke-miterlimit="10" stroke-linecap="round" stroke-linejoin="round"/>
<path d="M34.4914 22.525L33.5762 22.2956L31.1988 16.2804C30.7817 15.2215 29.8387 14.3711 28.796 14.1116L26.173 13.4582L12.6203 10.0822C11.6981 9.8528 10.8848 10.1169 10.4028 10.7078C10.4005 10.7101 10.4005 10.7101 10.3982 10.7124C10.3959 10.7148 10.3959 10.7148 10.3936 10.7171C10.3913 10.7194 10.3889 10.7194 10.3889 10.7217C10.3866 10.724 10.3866 10.724 10.3843 10.7263C10.382 10.7287 10.382 10.7287 10.3797 10.731C10.3773 10.7333 10.375 10.7333 10.375 10.7356C10.3727 10.7379 10.3727 10.7379 10.3704 10.7402C10.3681 10.7426 10.3681 10.7426 10.3658 10.7449C10.3634 10.7472 10.3634 10.7472 10.3611 10.7495C10.3588 10.7518 10.3565 10.7518 10.3565 10.7542C10.3565 10.7565 10.3542 10.7565 10.3519 10.7588C10.3495 10.7611 10.3495 10.7611 10.3472 10.7634C10.3449 10.7657 10.3426 10.7657 10.3426 10.7681C10.3403 10.7704 10.3403 10.7704 10.338 10.7727C10.3356 10.775 10.3356 10.775 10.3333 10.7773C10.331 10.7796 10.331 10.7796 10.3287 10.782C10.3264 10.7843 10.3241 10.7843 10.3241 10.7866C10.3241 10.7889 10.3171 10.7935 10.3171 10.7959C10.3148 10.7982 10.3148 10.7982 10.3125 10.8005C10.3102 10.8028 10.3102 10.8028 10.3078 10.8051C10.3055 10.8074 10.3032 10.8074 10.3032 10.8098C10.3009 10.8121 10.3009 10.8121 10.2986 10.8144C10.2963 10.8167 10.2963 10.8167 10.2939 10.819C10.2916 10.8213 10.2893 10.8213 10.2893 10.8237C10.287 10.826 10.287 10.826 10.2847 10.8283C10.2823 10.8306 10.2823 10.8306 10.28 10.8329C10.2777 10.8352 10.2777 10.8352 10.2754 10.8376C10.2731 10.8399 10.2708 10.8399 10.2708 10.8422C10.2684 10.8445 10.2684 10.8445 10.2661 10.8468C10.2638 10.8492 10.2638 10.8492 10.2615 10.8515C10.2592 10.8538 10.2569 10.8538 10.2569 10.8561C10.2545 10.8584 10.2545 10.8584 10.2522 10.8607C10.2499 10.8631 10.2499 10.8631 10.2476 10.8654C10.2453 10.8677 10.2453 10.8677 10.243 10.87C10.2406 10.8723 10.2383 10.8723 10.2383 10.8746C10.236 10.877 10.236 10.877 10.2337 10.8793C10.2314 10.8816 10.2314 10.8816 10.2291 10.8839C10.2267 10.8862 10.2267 10.8862 10.2244 10.8885C10.2221 10.8909 10.2198 10.8909 10.2198 10.8932C10.2175 10.8955 10.2175 10.8955 10.2152 10.8978C10.2128 10.9001 10.2128 10.9001 10.2105 10.9024C10.2036 10.9094 10.2012 10.9094 10.2012 10.9117C10.1989 10.914 10.1966 10.914 10.1943 10.9163C10.1943 10.9187 10.192 10.9187 10.1897 10.921C10.1897 10.9233 10.1873 10.9233 10.185 10.9256C10.185 10.9279 10.1827 10.9303 10.1804 10.9303C10.1804 10.9326 10.1781 10.9349 10.1758 10.9349C10.1734 10.9372 10.1734 10.9395 10.1711 10.9395C10.1688 10.9418 10.1688 10.9442 10.1665 10.9465C10.1642 10.9465 10.1619 10.9488 10.1619 10.9511C10.1595 10.9534 10.1572 10.9534 10.1572 10.9557C10.1549 10.9581 10.1526 10.9581 10.1526 10.9604C10.1503 10.9627 10.148 10.9627 10.1456 10.965C10.1456 10.9673 10.1433 10.9673 10.141 10.9696C10.141 10.972 10.1387 10.972 10.1364 10.9743C10.1364 10.9766 10.1341 10.9766 10.1317 10.9789C10.1317 10.9812 10.1294 10.9835 10.1271 10.9835C10.1248 10.9859 10.1248 10.9882 10.1225 10.9882C10.1202 10.9905 10.1202 10.9928 10.1178 10.9951C10.1155 10.9951 10.1132 10.9974 10.1132 10.9998C10.1109 10.9998 10.1086 11.0021 10.1086 11.0044C10.1062 11.0067 10.1039 11.0067 10.1039 11.009C10.1016 11.0113 10.0993 11.0113 10.0993 11.0137C10.097 11.016 10.0947 11.016 10.0923 11.0183C10.0923 11.0206 10.09 11.0206 10.0877 11.0229C10.0877 11.0253 10.0854 11.0253 10.0831 11.0276C10.0831 11.0299 10.0808 11.0322 10.0784 11.0322C10.0761 11.0345 10.0761 11.0368 10.0738 11.0392C10.0715 11.0392 10.0715 11.0415 10.0692 11.0438C10.0669 11.0438 10.0669 11.0461 10.0645 11.0484C10.0622 11.0484 10.0599 11.0507 10.0599 11.0531C10.0576 11.0554 10.0553 11.0554 10.0553 11.0577C10.053 11.06 10.0506 11.06 10.0506 11.0623C10.0483 11.0646 10.046 11.0646 10.0437 11.067C10.0437 11.0693 10.0414 11.0693 10.0391 11.0716C10.0391 11.0739 10.0367 11.0739 10.0344 11.0762C10.0344 11.0785 10.0321 11.0785 10.0298 11.0809C10.0298 11.0832 10.0275 11.0855 10.0251 11.0855C10.0228 11.0878 10.0228 11.0901 10.0205 11.0924C10.0182 11.0924 10.0159 11.0948 10.0159 11.0971C10.0136 11.0971 10.0112 11.0994 10.0112 11.1017C10.0089 11.1017 10.0066 11.104 10.0066 11.1064C10.0043 11.1087 10.002 11.1087 10.002 11.111C9.99966 11.1133 9.99734 11.1133 9.99734 11.1156C9.99503 11.1179 9.99271 11.1179 9.99039 11.1203C9.99039 11.1226 9.98808 11.1226 9.98576 11.1249C9.98576 11.1272 9.98344 11.1295 9.98113 11.1295C9.98113 11.1318 9.97881 11.1342 9.97649 11.1342C9.97417 11.1365 9.97417 11.1388 9.97186 11.1411C9.96954 11.1411 9.96954 11.1434 9.96722 11.1457C9.96491 11.1457 9.96259 11.1481 9.96259 11.1504C9.96027 11.1504 9.95795 11.1527 9.95795 11.155C9.95564 11.1573 9.95332 11.1573 9.95332 11.1596C9.951 11.162 9.94869 11.162 9.94869 11.1643C9.94637 11.1666 9.94405 11.1666 9.94173 11.1689C9.94173 11.1712 9.93942 11.1712 9.9371 11.1735C9.9371 11.1759 9.93478 11.1782 9.93247 11.1782C9.93247 11.1805 9.93015 11.1828 9.92783 11.1828C9.92783 11.1851 9.92551 11.1874 9.9232 11.1874C9.92088 11.1898 9.92088 11.1921 9.91856 11.1944C9.91625 11.1944 9.91393 11.1967 9.91393 11.199C9.91161 11.199 9.90929 11.2014 9.90929 11.2037C9.90698 11.2037 9.90466 11.206 9.90466 11.2083C9.90234 11.2106 9.90003 11.2106 9.90003 11.2129C9.89771 11.2153 9.89539 11.2153 9.89308 11.2176C9.89308 11.2199 9.89076 11.2199 9.88844 11.2222C9.88844 11.2245 9.88612 11.2245 9.88381 11.2268C9.88381 11.2292 9.88149 11.2315 9.87917 11.2315C9.87917 11.2338 9.87686 11.2361 9.87454 11.2361C9.87222 11.2384 9.87222 11.2407 9.8699 11.2407C9.86759 11.2431 9.86527 11.2454 9.86527 11.2477C9.86295 11.2477 9.86064 11.25 9.86064 11.2523C9.85832 11.2523 9.856 11.2546 9.856 11.257C9.85368 11.2593 9.85137 11.2593 9.85137 11.2616C9.84905 11.2639 9.84673 11.2639 9.84442 11.2662C9.84442 11.2685 9.8421 11.2685 9.83978 11.2709C9.83978 11.2732 9.83746 11.2732 9.83515 11.2755C9.83515 11.2778 9.83283 11.2801 9.83051 11.2801C9.83051 11.2825 9.8282 11.2848 9.82588 11.2848C9.82588 11.2871 9.82356 11.2894 9.82125 11.2894C9.81893 11.2917 9.81893 11.294 9.81661 11.2964C9.81429 11.2964 9.81198 11.2987 9.81198 11.301C9.80966 11.301 9.80734 11.3033 9.80734 11.3056C9.80503 11.3056 9.80271 11.3079 9.80271 11.3103C9.80039 11.3126 9.79807 11.3126 9.79576 11.3149C9.79576 11.3172 9.79344 11.3172 9.79112 11.3195C9.79112 11.3218 9.78881 11.3218 9.78649 11.3242C9.78649 11.3265 9.78417 11.3265 9.78185 11.3288C9.78185 11.3311 9.77954 11.3334 9.77722 11.3334C9.7749 11.3357 9.7749 11.3381 9.77259 11.3381C9.77027 11.3404 9.77027 11.3427 9.76795 11.3427C9.76563 11.345 9.76332 11.3473 9.76332 11.3496C9.761 11.3496 9.75868 11.352 9.75868 11.3543C9.75637 11.3543 9.75405 11.3566 9.75405 11.3589C9.75173 11.3612 9.74942 11.3612 9.74942 11.3635C9.7471 11.3659 9.74478 11.3659 9.74246 11.3682C9.74246 11.3705 9.74015 11.3705 9.73783 11.3728C9.73783 11.3751 9.73551 11.3751 9.7332 11.3775C9.7332 11.3798 9.73088 11.3821 9.72856 11.3821C9.72856 11.3844 9.72624 11.3867 9.72393 11.3867C9.72161 11.389 9.72161 11.3914 9.71929 11.3914C9.71698 11.3937 9.71698 11.396 9.71466 11.3983C9.71234 11.3983 9.71002 11.4006 9.71002 11.4029C9.70771 11.4053 9.70539 11.4053 9.70539 11.4076C9.70307 11.4099 9.70076 11.4099 9.70076 11.4122C9.69844 11.4145 9.69612 11.4145 9.69612 11.4168C9.6938 11.4192 9.69149 11.4192 9.68917 11.4215C9.68917 11.4238 9.68685 11.4238 9.68454 11.4261C9.68454 11.4284 9.68222 11.4284 9.6799 11.4307C9.6799 11.4331 9.67759 11.4354 9.67527 11.4354C9.67295 11.4377 9.67295 11.44 9.67063 11.44C9.66832 11.4423 9.66832 11.4446 9.666 11.4446C9.66368 11.447 9.66137 11.4493 9.66137 11.4516C9.65905 11.4516 9.65673 11.4539 9.65673 11.4562C9.65441 11.4585 9.6521 11.4585 9.6521 11.4609C9.64978 11.4632 9.64746 11.4632 9.64746 11.4655C9.64515 11.4678 9.64283 11.4678 9.64051 11.4701C9.64051 11.4725 9.63819 11.4725 9.63588 11.4748C9.63588 11.4771 9.63356 11.4771 9.63124 11.4794C9.63124 11.4817 9.62893 11.484 9.62661 11.484C9.62661 11.4864 9.62429 11.4887 9.62197 11.4887C9.61966 11.491 9.61966 11.4933 9.61734 11.4956C9.61502 11.4956 9.61502 11.4979 9.61271 11.5003C9.61039 11.5003 9.60807 11.5026 9.60807 11.5049C9.60575 11.5072 9.60344 11.5072 9.60344 11.5095C9.60112 11.5118 9.5988 11.5118 9.5988 11.5142C9.59649 11.5165 9.59417 11.5165 9.59185 11.5188C9.59185 11.5211 9.58954 11.5211 9.58722 11.5234C9.58722 11.5257 9.5849 11.5257 9.58258 11.5281C9.58258 11.5304 9.58027 11.5304 9.57795 11.5327C9.57795 11.535 9.57563 11.5373 9.57332 11.5373C9.571 11.5396 9.571 11.542 9.56868 11.5443C9.56636 11.5443 9.56405 11.5466 9.56405 11.5489C9.56173 11.5489 9.55941 11.5512 9.55941 11.5536C9.5571 11.5536 9.55478 11.5559 9.55478 11.5582C9.55246 11.5605 9.55014 11.5605 9.55014 11.5628C9.54783 11.5651 9.54551 11.5651 9.54551 11.5675C9.54319 11.5698 9.54088 11.5698 9.53856 11.5721C9.53856 11.5744 9.53624 11.5744 9.53392 11.5767C9.53392 11.579 9.53161 11.5814 9.52929 11.5814C9.52929 11.5837 9.52697 11.586 9.52466 11.586C9.52466 11.5883 9.52234 11.5906 9.52002 11.5906C9.51771 11.5929 9.51771 11.5953 9.51539 11.5976C9.51307 11.5976 9.51075 11.5999 9.51075 11.6022C9.50844 11.6022 9.50612 11.6045 9.50612 11.6068C9.5038 11.6092 9.50149 11.6092 9.50149 11.6115C9.49917 11.6138 9.49685 11.6138 9.49685 11.6161C9.49453 11.6184 9.49222 11.6184 9.49222 11.6207C9.4899 11.6231 9.48758 11.6231 9.48527 11.6254C9.48527 11.6277 9.48295 11.6277 9.48063 11.63C9.48063 11.6323 9.47831 11.6346 9.476 11.6346C9.476 11.637 9.47368 11.6393 9.47136 11.6393C9.46905 11.6416 9.46905 11.6439 9.46673 11.6462C9.46441 11.6462 9.46209 11.6486 9.46209 11.6509C9.45978 11.6509 9.45746 11.6532 9.45746 11.6555C9.45514 11.6555 9.45283 11.6578 9.45283 11.6601C9.45051 11.6625 9.44819 11.6625 9.44819 11.6648C9.44587 11.6671 9.44356 11.6671 9.44124 11.6694C9.44124 11.6717 9.43892 11.6717 9.43661 11.674C9.43661 11.6764 9.43429 11.6764 9.43197 11.6787C9.42966 11.681 9.42966 11.6833 9.42734 11.6833C9.42734 11.6856 9.42502 11.6879 9.4227 11.6879C9.4227 11.6903 9.42039 11.6926 9.41807 11.6926C9.41575 11.6949 9.41575 11.6972 9.41344 11.6995C9.41112 11.6995 9.4088 11.7018 9.4088 11.7042C9.40648 11.7042 9.40417 11.7065 9.40417 11.7088C9.40185 11.7111 9.39953 11.7111 9.39953 11.7134C9.39722 11.7157 9.3949 11.7157 9.39258 11.7181C9.39258 11.7204 9.39026 11.7204 9.38795 11.7227C9.38795 11.725 9.38563 11.725 9.38331 11.7273C9.38331 11.7297 9.381 11.732 9.37868 11.732C9.37868 11.7343 9.37636 11.7366 9.37404 11.7366C9.37404 11.7389 9.37173 11.7412 9.36941 11.7412C9.36709 11.7436 9.36709 11.7459 9.36478 11.7482C9.36246 11.7482 9.36014 11.7505 9.36014 11.7528C9.35783 11.7528 9.35551 11.7551 9.35551 11.7575C9.35319 11.7598 9.35087 11.7598 9.35087 11.7621C9.34856 11.7644 9.34624 11.7644 9.34624 11.7667C9.34392 11.769 9.34161 11.769 9.33929 11.7714C9.33929 11.7737 9.33697 11.7737 9.33465 11.776C9.33465 11.7783 9.33234 11.7783 9.33002 11.7806C9.33002 11.7829 9.3277 11.7853 9.32539 11.7853C9.32539 11.7876 9.32307 11.7899 9.32075 11.7899C9.31843 11.7922 9.31843 11.7945 9.31612 11.7945C9.3138 11.7968 9.3138 11.7992 9.31148 11.8015C9.30917 11.8015 9.30685 11.8038 9.30685 11.8061C9.30453 11.8061 9.30221 11.8084 9.30221 11.8107C9.2999 11.8131 9.29758 11.8131 9.29758 11.8154C9.29526 11.8177 9.29295 11.8177 9.29063 11.82C9.29063 11.8223 9.28831 11.8223 9.286 11.8247C9.286 11.827 9.28368 11.827 9.28136 11.8293C9.28136 11.8316 9.27904 11.8316 9.27673 11.8339C9.27673 11.8362 9.27441 11.8386 9.27209 11.8386C9.26978 11.8409 9.26978 11.8432 9.26746 11.8432C9.26514 11.8455 9.26514 11.8478 9.26282 11.8501C9.26051 11.8501 9.25819 11.8525 9.25819 11.8548C9.25587 11.8548 9.25356 11.8571 9.25356 11.8594C9.25124 11.8617 9.24892 11.8617 9.24892 11.864C9.2466 11.8664 9.24429 11.8664 9.24429 11.8687C9.24197 11.871 9.23965 11.871 9.23734 11.8733C9.23734 11.8756 9.23502 11.8756 9.2327 11.8779C9.2327 11.8803 9.23038 11.8803 9.22807 11.8826C9.22807 11.8849 9.22575 11.8872 9.22343 11.8872C9.22112 11.8895 9.22112 11.8918 9.2188 11.8918C9.21648 11.8942 9.21648 11.8965 9.21416 11.8965C9.21185 11.8988 9.20953 11.9011 9.20953 11.9034C9.20721 11.9034 9.2049 11.9058 9.2049 11.9081C9.20258 11.9104 9.20026 11.9104 9.20026 11.9127C9.19795 11.915 9.19563 11.915 9.19563 11.9173C9.19331 11.9197 9.19099 11.9197 9.18868 11.922C9.18868 11.9243 9.18636 11.9243 9.18404 11.9266C9.18404 11.9289 9.18173 11.9289 9.17941 11.9312C9.17941 11.9336 9.17709 11.9336 9.17477 11.9359C9.17477 11.9382 9.17246 11.9405 9.17014 11.9405C9.16782 11.9428 9.16782 11.9451 9.16551 11.9475C9.16319 11.9475 9.16319 11.9498 9.16087 11.9521C9.15855 11.9521 9.15624 11.9544 9.15624 11.9567C9.15392 11.9567 9.1516 11.959 9.1516 11.9614C9.14929 11.9637 9.14697 11.9637 9.14697 11.966C9.14465 11.9683 9.14233 11.9683 9.14233 11.9706C9.14002 11.9729 9.1377 11.9729 9.13538 11.9753C9.13538 11.9776 9.13307 11.9776 9.13075 11.9799C9.13075 11.9822 9.12843 11.9822 9.12612 11.9845C9.12612 11.9868 9.1238 11.9892 9.12148 11.9892C9.11916 11.9915 9.11916 11.9938 9.11685 11.9961C9.11453 11.9961 9.11453 11.9984 9.11221 12.0008C9.1099 12.0008 9.10758 12.0031 9.10758 12.0054C9.10526 12.0054 9.10294 12.0077 9.10294 12.01C9.10063 12.0123 9.09831 12.0123 9.09831 12.0147C9.09599 12.017 9.09368 12.017 9.09368 12.0193C9.09136 12.0216 9.08904 12.0216 9.08672 12.0239C9.08441 12.0262 9.08441 12.0262 9.08209 12.0286C9.08209 12.0309 9.07977 12.0309 9.07746 12.0332C9.07746 12.0355 9.07514 12.0355 9.07282 12.0378C9.07282 12.0401 9.0705 12.0425 9.06819 12.0425C9.06587 12.0448 9.06587 12.0471 9.06355 12.0494C9.06124 12.0494 9.05892 12.0517 9.05892 12.054C9.0566 12.054 9.05429 12.0564 9.05429 12.0587C9.05197 12.0587 9.04965 12.061 9.04965 12.0633C9.04733 12.0656 9.04502 12.0656 9.04502 12.0679C9.0427 12.0703 9.04038 12.0703 9.04038 12.0726C9.03807 12.0749 9.03575 12.0749 9.03343 12.0772C9.03343 12.0795 9.03111 12.0795 9.0288 12.0818C9.0288 12.0842 9.02648 12.0865 9.02416 12.0865C9.02416 12.0888 9.02185 12.0911 9.01953 12.0911C9.01953 12.0934 9.01721 12.0958 9.01489 12.0958C9.01258 12.0958 9.01026 12.1004 9.01026 12.1027C9.00794 12.1027 9.00563 12.105 9.00563 12.1073C9.00331 12.1073 9.00099 12.1097 9.00099 12.112C8.99867 12.1143 8.99636 12.1143 8.99636 12.1166C8.99404 12.1189 8.99172 12.1189 8.99172 12.1212C8.98941 12.1236 8.98709 12.1236 8.98477 12.1259C8.98477 12.1282 8.98245 12.1282 8.98014 12.1305C8.98014 12.1328 8.97782 12.1351 8.9755 12.1351C8.9755 12.1375 8.97319 12.1398 8.97087 12.1398C8.97087 12.1421 8.96855 12.1444 8.96624 12.1444C8.96392 12.1467 8.96392 12.149 8.9616 12.1514C8.95928 12.1514 8.95697 12.1537 8.95697 12.156C8.95465 12.156 8.95233 12.1583 8.95233 12.1606C8.95002 12.1606 8.9477 12.1629 8.9477 12.1653C8.94538 12.1676 8.94306 12.1676 8.94306 12.1699C8.94075 12.1722 8.93843 12.1722 8.93611 12.1745C8.93611 12.1769 8.9338 12.1769 8.93148 12.1792C8.93148 12.1815 8.92916 12.1815 8.92684 12.1838C8.92684 12.1861 8.92453 12.1884 8.92221 12.1884C8.92221 12.1908 8.91989 12.1931 8.91758 12.1931C8.91526 12.1954 8.91526 12.1977 8.91294 12.2C8.91062 12.2 8.90831 12.2023 8.90831 12.2047C8.90599 12.207 8.90599 12.207 8.90367 12.2093C8.90136 12.2116 8.90136 12.2116 8.89904 12.2139C8.89672 12.2162 8.89441 12.2162 8.89441 12.2186C8.89209 12.2209 8.89209 12.2209 8.88977 12.2232C8.88745 12.2255 8.88745 12.2255 8.88514 12.2278C8.88282 12.2301 8.8805 12.2301 8.8805 12.2325C8.87819 12.2348 8.87819 12.2348 8.87587 12.2371C8.87355 12.2394 8.87355 12.2394 8.87123 12.2417C8.86892 12.244 8.86892 12.244 8.8666 12.2464C8.86428 12.2487 8.86197 12.2487 8.86197 12.251C8.86197 12.2533 8.85965 12.2533 8.85733 12.2556C8.85501 12.2579 8.85501 12.2579 8.8527 12.2603C8.85038 12.2626 8.85038 12.2626 8.84806 12.2649C8.84575 12.2672 8.84343 12.2672 8.84343 12.2695C8.84111 12.2719 8.84111 12.2719 8.83879 12.2742C8.83648 12.2765 8.83648 12.2765 8.83416 12.2788C8.83184 12.2811 8.82953 12.2811 8.82953 12.2834C8.82721 12.2858 8.82721 12.2858 8.82489 12.2881C8.82258 12.2904 8.82258 12.2904 8.82026 12.2927C8.81331 12.2973 8.81331 12.2997 8.81099 12.2997C8.80867 12.302 8.80636 12.302 8.80636 12.3043C8.80404 12.3066 8.80404 12.3066 8.80172 12.3089C8.7994 12.3112 8.7994 12.3112 8.79709 12.3136C8.79477 12.3159 8.79245 12.3159 8.79245 12.3182C8.79014 12.3205 8.79014 12.3205 8.78782 12.3228C8.7855 12.3251 8.7855 12.3251 8.78318 12.3275C8.78087 12.3298 8.78087 12.3298 8.77855 12.3321C8.77623 12.3344 8.77392 12.3344 8.77392 12.3367C8.7716 12.339 8.7716 12.339 8.76928 12.3414C8.76696 12.3437 8.76696 12.3437 8.76465 12.346C8.76233 12.3483 8.76001 12.3483 8.76001 12.3506C8.7577 12.353 8.7577 12.353 8.75538 12.3553C8.75306 12.3576 8.75306 12.3576 8.75074 12.3599C8.74843 12.3622 8.74843 12.3622 8.74611 12.3645C8.74379 12.3669 8.74148 12.3669 8.74148 12.3692C8.74148 12.3715 8.73916 12.3715 8.73684 12.3738C8.73453 12.3761 8.73453 12.3761 8.73221 12.3784C8.72989 12.3808 8.72989 12.3808 8.72757 12.3831C8.72526 12.3854 8.72294 12.3854 8.72294 12.3877C8.72062 12.39 8.72062 12.39 8.71831 12.3923C8.71599 12.3947 8.71599 12.3947 8.71367 12.397C8.71135 12.3993 8.70904 12.3993 8.70904 12.4016C8.70672 12.4039 8.70672 12.4039 8.7044 12.4062C8.70209 12.4086 8.70209 12.4086 8.69977 12.4109C8.69745 12.4132 8.69745 12.4132 8.69513 12.4155C8.69282 12.4178 8.6905 12.4178 8.6905 12.4201C8.68355 12.4294 8.68123 12.4294 8.67891 12.4317C8.6766 12.434 8.6766 12.434 8.67428 12.4364C8.67196 12.4387 8.66965 12.4387 8.66965 12.441C8.66733 12.4433 8.66733 12.4433 8.66501 12.4456C8.6627 12.448 8.6627 12.448 8.66038 12.4503C8.65806 12.4526 8.65806 12.4526 8.65574 12.4549C8.65343 12.4572 8.65111 12.4572 8.65111 12.4595C8.64879 12.4619 8.64879 12.4619 8.64648 12.4642C8.64416 12.4665 8.64416 12.4665 8.64184 12.4688C8.63952 12.4711 8.63952 12.4711 8.63721 12.4734C8.63489 12.4758 8.63257 12.4758 8.63257 12.4781C8.63026 12.4804 8.63026 12.4804 8.62794 12.4827C8.62562 12.485 8.62562 12.485 8.6233 12.4873C8.62099 12.4897 8.61867 12.4897 8.61867 12.492C8.61635 12.4943 8.61635 12.4943 8.61404 12.4966C8.61172 12.4989 8.61172 12.4989 8.6094 12.5012C8.60708 12.5036 8.60708 12.5036 8.60477 12.5059C8.60245 12.5082 8.60013 12.5082 8.60013 12.5105C8.59782 12.5128 8.59782 12.5128 8.5955 12.5151C8.59318 12.5175 8.59318 12.5175 8.59087 12.5198C8.58855 12.5221 8.58623 12.5221 8.58623 12.5244C8.58623 12.5267 8.57928 12.5314 8.57696 12.5337C8.57465 12.536 8.57465 12.536 8.57233 12.5383C8.57001 12.5406 8.57001 12.5406 8.56769 12.543C8.56538 12.5453 8.56306 12.5453 8.56306 12.5476C8.56074 12.5499 8.56074 12.5499 8.55843 12.5522C8.55611 12.5545 8.55611 12.5545 8.55379 12.5569C8.55147 12.5592 8.54916 12.5592 8.54916 12.5615C8.54684 12.5638 8.54684 12.5638 8.54452 12.5661C8.54221 12.5684 8.54221 12.5684 8.53989 12.5708C8.53757 12.5731 8.53757 12.5731 8.53525 12.5754C8.53294 12.5777 8.53062 12.5777 8.53062 12.58C8.5283 12.5823 8.5283 12.5823 8.52599 12.5847C8.52367 12.587 8.52367 12.587 8.52135 12.5893C8.51903 12.5916 8.51903 12.5916 8.51672 12.5939C8.5144 12.5962 8.51208 12.5962 8.51208 12.5986C8.50977 12.6009 8.50977 12.6009 8.50745 12.6032C8.50513 12.6055 8.50513 12.6055 8.50282 12.6078C8.5005 12.6101 8.49818 12.6101 8.49818 12.6125C8.49586 12.6148 8.49586 12.6148 8.49355 12.6171C8.49123 12.6194 8.49123 12.6194 8.48891 12.6217C8.4866 12.6241 8.4866 12.6241 8.48428 12.6264C8.48196 12.6287 8.47964 12.6287 8.47964 12.631C8.47733 12.6333 8.47733 12.6333 8.47501 12.6356C8.47269 12.638 8.47269 12.638 8.47038 12.6403C8.46806 12.6426 8.46574 12.6426 8.46574 12.6449C8.1761 12.9994 8.00464 13.4744 8.00464 14.0305V22.6664C8.00464 24.1424 9.20026 25.6369 10.6786 26.0053L11.0586 26.1003C11.0586 27.7941 12.4303 29.5088 14.1241 29.9305C15.183 30.1946 16.1168 29.8911 16.666 29.2122C16.6683 29.2099 16.6683 29.2099 16.6706 29.2075C16.6729 29.2052 16.6729 29.2052 16.6752 29.2029C16.6775 29.2006 16.6775 29.2006 16.6799 29.1983C16.6822 29.196 16.6822 29.196 16.6845 29.1936C16.6868 29.1913 16.6868 29.1913 16.6891 29.189C16.6914 29.1867 16.6914 29.1867 16.6938 29.1844C16.6961 29.182 16.6984 29.182 16.6984 29.1797C16.7007 29.1774 16.7007 29.1774 16.703 29.1751C16.7054 29.1728 16.7054 29.1728 16.7077 29.1705C16.71 29.1681 16.71 29.1681 16.7123 29.1658C16.7146 29.1635 16.7146 29.1635 16.7169 29.1612C16.7193 29.1589 16.7193 29.1589 16.7216 29.1566C16.7239 29.1542 16.7239 29.1542 16.7262 29.1519C16.7285 29.1496 16.7308 29.1496 16.7308 29.1473C16.7332 29.145 16.7332 29.145 16.7355 29.1427C16.7378 29.1403 16.7378 29.1403 16.7401 29.138C16.7424 29.1357 16.7424 29.1357 16.7447 29.1334C16.7471 29.1311 16.7471 29.1311 16.7494 29.1288C16.7517 29.1264 16.7517 29.1264 16.754 29.1241C16.7563 29.1218 16.7563 29.1218 16.7586 29.1195C16.761 29.1172 16.7633 29.1172 16.7633 29.1149C16.7656 29.1125 16.7656 29.1125 16.7679 29.1102C16.7702 29.1079 16.7702 29.1079 16.7725 29.1056C16.7749 29.1033 16.7749 29.1033 16.7772 29.101C16.7795 29.0986 16.7818 29.0986 16.7818 29.0963C16.7818 29.094 16.7841 29.094 16.7864 29.0917C16.7888 29.0894 16.7888 29.0894 16.7911 29.087C16.7934 29.0847 16.7934 29.0847 16.7957 29.0824C16.798 29.0801 16.798 29.0801 16.8004 29.0778C16.8027 29.0755 16.8027 29.0755 16.805 29.0731C16.8073 29.0708 16.8073 29.0708 16.8096 29.0685C16.8119 29.0662 16.8143 29.0662 16.8143 29.0639C16.8143 29.0616 16.8166 29.0616 16.8189 29.0592C16.8212 29.0569 16.8212 29.0569 16.8235 29.0546C16.8258 29.0523 16.8258 29.0523 16.8282 29.05C16.8305 29.0477 16.8305 29.0477 16.8328 29.0453C16.8351 29.043 16.8351 29.043 16.8374 29.0407C16.8397 29.0384 16.8397 29.0384 16.8421 29.0361C16.8444 29.0338 16.8467 29.0338 16.8467 29.0314C16.8467 29.0291 16.849 29.0291 16.8513 29.0268C16.8536 29.0245 16.8536 29.0245 16.856 29.0222C16.8583 29.0199 16.8583 29.0199 16.8606 29.0175C16.8629 29.0152 16.8629 29.0152 16.8652 29.0129C16.8675 29.0106 16.8675 29.0106 16.8699 29.0083C16.8722 29.0059 16.8722 29.0059 16.8745 29.0036C16.8768 29.0013 16.8768 29.0013 16.8791 28.999C16.8814 28.9967 16.8814 28.9967 16.8838 28.9944C16.8861 28.992 16.8861 28.992 16.8884 28.9897C16.8907 28.9874 16.8907 28.9874 16.893 28.9851C16.8954 28.9828 16.8977 28.9828 16.8977 28.9805C16.9 28.9781 16.9 28.9781 16.9023 28.9758C16.9046 28.9735 16.9046 28.9735 16.9069 28.9712C16.9093 28.9689 16.9093 28.9689 16.9116 28.9666C16.9139 28.9642 16.9139 28.9642 16.9162 28.9619C16.9185 28.9596 16.9185 28.9596 16.9208 28.9573C16.9232 28.955 16.9232 28.955 16.9255 28.9527C16.9278 28.9503 16.9301 28.9503 16.9301 28.948C16.9324 28.9457 16.9324 28.9457 16.9347 28.9434C16.9371 28.9411 16.9371 28.9411 16.9394 28.9388C16.9417 28.9364 16.9417 28.9364 16.944 28.9341C16.9463 28.9318 16.9463 28.9318 16.9486 28.9295C16.951 28.9272 16.951 28.9272 16.9533 28.9249C16.9556 28.9225 16.9556 28.9225 16.9579 28.9202C16.9602 28.9179 16.9625 28.9179 16.9625 28.9156C16.9649 28.9133 16.9649 28.9133 16.9672 28.9109C16.9695 28.9086 16.9695 28.9086 16.9718 28.9063C16.9741 28.904 16.9741 28.904 16.9765 28.9017C16.9788 28.8994 16.9788 28.8994 16.9811 28.897C16.9834 28.8947 16.9834 28.8947 16.9857 28.8924C16.988 28.8901 16.988 28.8901 16.9904 28.8878C16.9927 28.8855 16.9927 28.8855 16.995 28.8831C16.9973 28.8808 16.9973 28.8808 16.9996 28.8785C17.0019 28.8762 17.0019 28.8762 17.0043 28.8739C17.0066 28.8716 17.0066 28.8716 17.0089 28.8692C17.0112 28.8669 17.0135 28.8669 17.0135 28.8646C17.0158 28.8623 17.0158 28.8623 17.0182 28.86C17.0205 28.8577 17.0205 28.8577 17.0228 28.8553C17.0251 28.853 17.0251 28.853 17.0274 28.8507C17.0297 28.8484 17.0297 28.8484 17.0321 28.8461C17.0344 28.8438 17.0344 28.8438 17.0367 28.8414C17.039 28.8391 17.039 28.8391 17.0413 28.8368C17.0436 28.8345 17.046 28.8345 17.046 28.8322C17.0483 28.8298 17.0483 28.8299 17.0506 28.8275C17.0529 28.8252 17.0529 28.8252 17.0552 28.8229C17.0575 28.8206 17.0575 28.8206 17.0599 28.8183C17.0622 28.8159 17.0622 28.8159 17.0645 28.8136C17.0668 28.8113 17.0668 28.8113 17.0691 28.809C17.0715 28.8067 17.0715 28.8067 17.0738 28.8044C17.0761 28.802 17.0761 28.802 17.0784 28.7997C17.0807 28.7974 17.0807 28.7974 17.083 28.7951C17.0854 28.7928 17.0854 28.7928 17.0877 28.7905C17.09 28.7881 17.09 28.7881 17.0923 28.7858C17.0946 28.7835 17.0969 28.7835 17.0969 28.7812C17.0993 28.7789 17.0993 28.7789 17.1016 28.7766C17.1039 28.7742 17.1039 28.7742 17.1062 28.7719C17.1085 28.7696 17.1085 28.7696 17.1108 28.7673C17.1132 28.765 17.1132 28.765 17.1155 28.7627C17.1178 28.7603 17.1178 28.7603 17.1201 28.758C17.1224 28.7557 17.1224 28.7557 17.1247 28.7534C17.1271 28.7511 17.1294 28.7511 17.1294 28.7488C17.1317 28.7464 17.1317 28.7464 17.134 28.7441C17.1363 28.7418 17.1363 28.7418 17.1386 28.7395C17.141 28.7372 17.141 28.7372 17.1433 28.7348C17.1456 28.7325 17.1456 28.7325 17.1479 28.7302C17.1502 28.7279 17.1502 28.7279 17.1526 28.7256C17.1549 28.7233 17.1549 28.7233 17.1572 28.7209C17.1595 28.7186 17.1618 28.7186 17.1618 28.7163C17.1641 28.714 17.1641 28.714 17.1665 28.7117C17.1688 28.7094 17.1688 28.7094 17.1711 28.707C17.1734 28.7047 17.1734 28.7047 17.1757 28.7024C17.178 28.7001 17.178 28.7001 17.1804 28.6978C17.1827 28.6955 17.1827 28.6955 17.185 28.6931C17.1873 28.6908 17.1873 28.6908 17.1896 28.6885C17.1919 28.6862 17.1919 28.6862 17.1943 28.6839C17.1966 28.6816 17.1966 28.6816 17.1989 28.6792C17.2012 28.6769 17.2012 28.6769 17.2035 28.6746C17.2058 28.6723 17.2058 28.6723 17.2082 28.67C17.2105 28.6677 17.2128 28.6677 17.2128 28.6653C17.2151 28.663 17.2151 28.663 17.2174 28.6607C17.2197 28.6584 17.2197 28.6584 17.2221 28.6561C17.2244 28.6537 17.2244 28.6538 17.2267 28.6514C17.229 28.6491 17.229 28.6491 17.2313 28.6468C17.2336 28.6445 17.2336 28.6445 17.236 28.6422C17.2383 28.6398 17.2383 28.6398 17.2406 28.6375C17.2429 28.6352 17.2452 28.6352 17.2452 28.6329C17.2476 28.6306 17.2476 28.6306 17.2499 28.6283C17.2522 28.6259 17.2522 28.6259 17.2545 28.6236C17.2568 28.6213 17.2568 28.6213 17.2591 28.619C17.2615 28.6167 17.2615 28.6167 17.2638 28.6144C17.2661 28.612 17.2661 28.612 17.2684 28.6097C17.2707 28.6074 17.2707 28.6074 17.273 28.6051C17.2754 28.6028 17.2754 28.6028 17.2777 28.6005C17.28 28.5981 17.28 28.5981 17.2823 28.5958C17.2846 28.5935 17.2846 28.5935 17.2869 28.5912C17.2893 28.5889 17.2893 28.5889 17.2916 28.5866C17.2939 28.5842 17.2962 28.5842 17.2962 28.5819C17.2985 28.5796 17.2985 28.5796 17.3008 28.5773C17.3032 28.575 17.3032 28.575 17.3055 28.5727C17.3078 28.5703 17.3078 28.5703 17.3101 28.568C17.3124 28.5657 17.3124 28.5657 17.3147 28.5634C17.3171 28.5611 17.3171 28.5611 17.3194 28.5587C17.3217 28.5564 17.3217 28.5564 17.324 28.5541C17.3263 28.5518 17.3286 28.5518 17.3286 28.5495C17.331 28.5472 17.331 28.5472 17.3333 28.5448C17.3356 28.5425 17.3356 28.5425 17.3379 28.5402C17.3402 28.5379 17.3402 28.5379 17.3426 28.5356C17.3449 28.5333 17.3449 28.5333 17.3472 28.5309C17.3495 28.5286 17.3495 28.5286 17.3518 28.5263C17.3541 28.524 17.3541 28.524 17.3565 28.5217C17.3588 28.5194 17.3611 28.5194 17.3611 28.517C17.3634 28.5147 17.3634 28.5147 17.3657 28.5124C17.368 28.5101 17.368 28.5101 17.3704 28.5078C17.3727 28.5055 17.3727 28.5055 17.375 28.5031C17.3773 28.5008 17.3773 28.5008 17.3796 28.4985C17.3819 28.4962 17.3819 28.4962 17.3843 28.4939C17.3866 28.4916 17.3866 28.4916 17.3889 28.4892C17.3912 28.4869 17.3912 28.4869 17.3935 28.4846C17.3958 28.4823 17.3958 28.4823 17.3982 28.48C17.4005 28.4777 17.4005 28.4777 17.4028 28.4753C17.4051 28.473 17.4051 28.473 17.4074 28.4707C17.4097 28.4684 17.4121 28.4684 17.4121 28.4661C17.4144 28.4637 17.4144 28.4637 17.4167 28.4614C17.419 28.4591 17.419 28.4591 17.4213 28.4568C17.4237 28.4545 17.4237 28.4545 17.426 28.4522C17.4283 28.4498 17.4283 28.4498 17.4306 28.4475C17.4329 28.4452 17.4329 28.4452 17.4352 28.4429C17.4376 28.4406 17.4376 28.4406 17.4399 28.4383C17.4422 28.4359 17.4445 28.4359 17.4445 28.4336C17.4468 28.4313 17.4468 28.4313 17.4491 28.429C17.4515 28.4267 17.4515 28.4267 17.4538 28.4244C17.4561 28.422 17.4561 28.422 17.4584 28.4197C17.4607 28.4174 17.4607 28.4174 17.463 28.4151C17.4654 28.4128 17.4654 28.4128 17.4677 28.4105C17.47 28.4081 17.47 28.4081 17.4723 28.4058C17.4746 28.4035 17.4769 28.4035 17.4769 28.4012C17.4793 28.3989 17.4793 28.3989 17.4816 28.3966C17.4839 28.3942 17.4839 28.3942 17.4862 28.3919C17.4885 28.3896 17.4885 28.3896 17.4908 28.3873C17.4932 28.385 17.4955 28.385 17.4955 28.3826C17.4955 28.3803 17.4978 28.3803 17.5001 28.378C17.5024 28.3757 17.5024 28.3757 17.5047 28.3734C17.5071 28.3711 17.5071 28.3711 17.5094 28.3687C17.5117 28.3664 17.5117 28.3664 17.514 28.3641C17.5163 28.3618 17.5163 28.3618 17.5187 28.3595C17.521 28.3572 17.521 28.3572 17.5233 28.3548C17.5256 28.3525 17.5279 28.3525 17.5279 28.3502C17.5279 28.3479 17.5302 28.3479 17.5326 28.3456C17.5349 28.3433 17.5349 28.3433 17.5372 28.3409C17.5395 28.3386 17.5395 28.3386 17.5418 28.3363C17.5441 28.334 17.5441 28.334 17.5465 28.3317C17.5488 28.3294 17.5488 28.3294 17.5511 28.327C17.5534 28.3247 17.5534 28.3247 17.5557 28.3224C17.558 28.3201 17.5604 28.3201 17.5604 28.3178C17.5604 28.3155 17.5627 28.3155 17.565 28.3131C17.5673 28.3108 17.5673 28.3108 17.5696 28.3085C17.5719 28.3062 17.5719 28.3062 17.5743 28.3039C17.5766 28.3016 17.5766 28.3016 17.5789 28.2992C17.5812 28.2969 17.5812 28.2969 17.5835 28.2946C17.5858 28.2923 17.5858 28.2923 17.5882 28.29C17.5905 28.2876 17.5905 28.2876 17.5928 28.2853C17.5951 28.283 17.5951 28.283 17.5974 28.2807C17.5997 28.2784 17.5998 28.2784 17.6021 28.2761C17.6044 28.2737 17.6044 28.2737 17.6067 28.2714C17.609 28.2691 17.6113 28.2691 17.6113 28.2668C17.6137 28.2645 17.6137 28.2645 17.616 28.2622C17.6183 28.2598 17.6183 28.2598 17.6206 28.2575C17.6229 28.2552 17.6229 28.2552 17.6252 28.2529C17.6276 28.2506 17.6276 28.2506 17.6299 28.2483C17.6322 28.2459 17.6322 28.2459 17.6345 28.2436C17.6368 28.2413 17.6368 28.2413 17.6391 28.239C17.6415 28.2367 17.6438 28.2367 17.6438 28.2344C17.6461 28.232 17.6461 28.232 17.6484 28.2297C17.6507 28.2274 17.6507 28.2274 17.653 28.2251C17.6554 28.2228 17.6554 28.2228 17.6577 28.2205C17.66 28.2181 17.66 28.2181 17.6623 28.2158C17.6646 28.2135 17.6646 28.2135 17.6669 28.2112C17.6693 28.2089 17.6693 28.2089 17.6716 28.2066C17.6739 28.2042 17.6762 28.2042 17.6762 28.2019C17.6785 28.1996 17.6785 28.1996 17.6808 28.1973C17.6832 28.195 17.6832 28.195 17.6855 28.1926C17.6878 28.1903 17.6878 28.1903 17.6901 28.188C17.6924 28.1857 17.6948 28.1857 17.6948 28.1834C17.6971 28.1811 17.6971 28.1811 17.6994 28.1787C17.7017 28.1764 17.7017 28.1764 17.704 28.1741C17.7063 28.1718 17.7063 28.1718 17.7087 28.1695C17.711 28.1672 17.711 28.1672 17.7133 28.1648C17.7156 28.1625 17.7156 28.1625 17.7179 28.1602C17.7202 28.1579 17.7202 28.1579 17.7226 28.1556C17.7249 28.1533 17.7272 28.1533 17.7272 28.1509C17.7295 28.1486 17.7295 28.1486 17.7318 28.1463C17.7341 28.144 17.7341 28.144 17.7365 28.1417C17.7388 28.1394 17.7388 28.1394 17.7411 28.137C17.7434 28.1347 17.7434 28.1347 17.7457 28.1324C17.748 28.1301 17.748 28.1301 17.7504 28.1278C17.7527 28.1255 17.7527 28.1255 17.755 28.1231C17.7573 28.1208 17.7596 28.1208 17.7596 28.1185C17.7619 28.1162 17.7619 28.1162 17.7643 28.1139C17.7666 28.1115 17.7666 28.1115 17.7689 28.1092C17.7712 28.1069 17.7712 28.1069 17.7735 28.1046C17.7759 28.1023 17.7759 28.1023 17.7782 28.1C17.7805 28.0976 17.7805 28.0976 17.7828 28.0953C17.7851 28.093 17.7851 28.093 17.7874 28.0907C17.7898 28.0884 17.7898 28.0884 17.7921 28.0861C17.7944 28.0837 17.7944 28.0837 17.7967 28.0814C17.799 28.0791 17.799 28.0791 17.8013 28.0768C17.8037 28.0745 17.8037 28.0745 17.806 28.0722C17.8083 28.0698 17.8106 28.0698 17.8106 28.0675C17.8129 28.0652 17.8129 28.0652 17.8152 28.0629C17.8176 28.0606 17.8176 28.0606 17.8199 28.0583C17.8222 28.0559 17.8222 28.0559 17.8245 28.0536C17.8268 28.0513 17.8268 28.0513 17.8291 28.049C17.8315 28.0467 17.8315 28.0467 17.8338 28.0444C17.8361 28.042 17.8361 28.042 17.8384 28.0397C17.8407 28.0374 17.843 28.0374 17.843 28.0351C17.8454 28.0328 17.8454 28.0328 17.8477 28.0305C17.85 28.0281 17.85 28.0281 17.8523 28.0258C17.8546 28.0235 17.8546 28.0235 17.8569 28.0212C17.8593 28.0189 17.8593 28.0189 17.8616 28.0165C17.8639 28.0142 17.8639 28.0142 17.8662 28.0119C17.8685 28.0096 17.8685 28.0096 17.8709 28.0073C17.8732 28.005 17.8755 28.005 17.8755 28.0026C17.8778 28.0003 17.8778 28.0003 17.8801 27.998C17.8824 27.9957 17.8824 27.9957 17.8848 27.9934C17.8871 27.9911 17.8871 27.9911 17.8894 27.9887C17.8917 27.9864 17.894 27.9864 17.894 27.9841C17.8963 27.9818 17.8963 27.9818 17.8987 27.9795C17.901 27.9772 17.901 27.9772 17.9033 27.9748C17.9056 27.9725 17.9056 27.9725 17.9079 27.9702C17.9102 27.9679 17.9102 27.9679 17.9126 27.9656C17.9149 27.9633 17.9149 27.9633 17.9172 27.9609C17.9195 27.9586 17.9195 27.9586 17.9218 27.9563C17.9241 27.954 17.9265 27.954 17.9265 27.9517C17.9288 27.9494 17.9288 27.9494 17.9311 27.947C17.9334 27.9447 17.9334 27.9447 17.9357 27.9424C17.938 27.9401 17.938 27.9401 17.9404 27.9378C17.9427 27.9354 17.9427 27.9354 17.945 27.9331C17.9473 27.9308 17.9473 27.9308 17.9496 27.9285C17.9519 27.9262 17.9519 27.9262 17.9543 27.9239C17.9566 27.9215 17.9589 27.9215 17.9589 27.9192C17.9612 27.9169 17.9612 27.9169 17.9635 27.9146C17.9659 27.9123 17.9659 27.9123 17.9682 27.91C17.9705 27.9076 17.9705 27.9076 17.9728 27.9053C17.9728 27.9053 17.9751 27.9053 17.9751 27.903L25.9761 29.898C25.9761 31.5918 27.3478 33.3065 29.0416 33.7282C30.1005 33.9923 31.032 33.6888 31.5835 33.0099C31.5858 33.0076 31.5881 33.0076 31.5881 33.0053C31.5904 33.0029 31.5904 33.0029 31.5927 33.0006C31.595 32.9983 31.595 32.9983 31.5974 32.996C31.5997 32.9937 31.602 32.9937 31.602 32.9914C31.6043 32.989 31.6043 32.989 31.6066 32.9867C31.6089 32.9844 31.6089 32.9844 31.6113 32.9821C31.6136 32.9798 31.6136 32.9798 31.6159 32.9775C31.6182 32.9751 31.6205 32.9751 31.6205 32.9728C31.6228 32.9705 31.6228 32.9705 31.6252 32.9682C31.6275 32.9659 31.6275 32.9659 31.6298 32.9636C31.6321 32.9612 31.6344 32.9612 31.6344 32.9589C31.6367 32.9566 31.6367 32.9566 31.6391 32.9543C31.6414 32.952 31.6414 32.952 31.6437 32.9497C31.646 32.9473 31.646 32.9473 31.6483 32.945C31.6506 32.9427 31.653 32.9427 31.653 32.9404C31.6553 32.9381 31.6553 32.9381 31.6576 32.9358C31.6599 32.9334 31.6599 32.9334 31.6622 32.9311C31.6645 32.9288 31.6645 32.9288 31.6669 32.9265C31.6692 32.9242 31.6715 32.9242 31.6715 32.9218C31.6738 32.9195 31.6738 32.9195 31.6761 32.9172C31.6785 32.9149 31.6785 32.9149 31.6808 32.9126C31.6831 32.9103 31.6854 32.9103 31.6854 32.9079C31.6877 32.9056 31.6877 32.9056 31.69 32.9033C31.6924 32.901 31.6924 32.901 31.6947 32.8987C31.697 32.8964 31.697 32.8964 31.6993 32.894C31.7016 32.8917 31.7039 32.8917 31.7039 32.8894C31.7063 32.8871 31.7063 32.8871 31.7086 32.8848C31.7109 32.8825 31.7109 32.8825 31.7132 32.8801C31.7155 32.8778 31.7178 32.8778 31.7178 32.8755C31.7202 32.8732 31.7202 32.8732 31.7225 32.8709C31.7248 32.8686 31.7248 32.8686 31.7271 32.8662C31.7294 32.8639 31.7294 32.8639 31.7317 32.8616C31.7341 32.8593 31.7364 32.8593 31.7364 32.857C31.7364 32.8547 31.7387 32.8547 31.741 32.8523C31.7433 32.85 31.7433 32.85 31.7456 32.8477C31.748 32.8454 31.7503 32.8454 31.7503 32.8431C31.7526 32.8407 31.7526 32.8408 31.7549 32.8384C31.7572 32.8361 31.7572 32.8361 31.7596 32.8338C31.7619 32.8315 31.7619 32.8315 31.7642 32.8292C31.7665 32.8268 31.7688 32.8268 31.7688 32.8245C31.7688 32.8222 31.7711 32.8222 31.7735 32.8199C31.7758 32.8176 31.7758 32.8176 31.7781 32.8153C31.7804 32.8129 31.7804 32.8129 31.7827 32.8106C31.785 32.8083 31.7874 32.8083 31.7874 32.806C31.7897 32.8037 31.7897 32.8037 31.792 32.8014C31.7943 32.799 31.7943 32.799 31.7966 32.7967C31.7989 32.7944 31.8013 32.7944 31.8013 32.7921C31.8013 32.7898 31.8036 32.7898 31.8059 32.7875C31.8082 32.7851 31.8082 32.7851 31.8105 32.7828C31.8128 32.7805 31.8128 32.7805 31.8152 32.7782C31.8175 32.7759 31.8198 32.7759 31.8198 32.7736C31.8221 32.7712 31.8221 32.7712 31.8244 32.7689C31.8267 32.7666 31.8267 32.7666 31.8291 32.7643C31.8314 32.762 31.8337 32.762 31.8337 32.7597C31.8337 32.7573 31.836 32.7573 31.8383 32.755C31.8406 32.7527 31.8406 32.7527 31.843 32.7504C31.8453 32.7481 31.8453 32.7481 31.8476 32.7457C31.8499 32.7434 31.8522 32.7434 31.8522 32.7411C31.8546 32.7388 31.8546 32.7388 31.8569 32.7365C31.8592 32.7342 31.8592 32.7342 31.8615 32.7318C31.8638 32.7295 31.8638 32.7295 31.8661 32.7272C31.8685 32.7249 31.8708 32.7249 31.8708 32.7226C31.8731 32.7203 31.8731 32.7203 31.8754 32.7179C31.8777 32.7156 31.8777 32.7156 31.88 32.7133C31.8824 32.711 31.8847 32.711 31.8847 32.7087C31.887 32.7064 31.887 32.7064 31.8893 32.704C31.8916 32.7017 31.8916 32.7017 31.8939 32.6994C31.8963 32.6971 31.8963 32.6971 31.8986 32.6948C31.9009 32.6925 31.9032 32.6925 31.9032 32.6901C31.9055 32.6878 31.9055 32.6878 31.9078 32.6855C31.9102 32.6832 31.9102 32.6832 31.9125 32.6809C31.9148 32.6786 31.9171 32.6786 31.9171 32.6762C31.9194 32.6739 31.9194 32.6739 31.9217 32.6716C31.9241 32.6693 31.9241 32.6693 31.9264 32.667C31.9287 32.6647 31.9287 32.6646 31.931 32.6623C31.9333 32.66 31.9357 32.66 31.9357 32.6577C31.938 32.6554 31.938 32.6554 31.9403 32.6531C31.9426 32.6507 31.9426 32.6507 31.9449 32.6484C31.9472 32.6461 31.9496 32.6461 31.9496 32.6438C31.9519 32.6415 31.9519 32.6415 31.9542 32.6392C31.9565 32.6368 31.9565 32.6368 31.9588 32.6345C31.9611 32.6322 31.9611 32.6322 31.9635 32.6299C31.9658 32.6276 31.9681 32.6276 31.9681 32.6253C31.9704 32.6229 31.9704 32.6229 31.9727 32.6206C31.975 32.6183 31.975 32.6183 31.9774 32.616C31.9797 32.6137 31.9797 32.6137 31.982 32.6114C31.9843 32.609 31.9866 32.609 31.9866 32.6067C31.9866 32.6044 31.9889 32.6044 31.9913 32.6021C31.9936 32.5998 31.9936 32.5998 31.9959 32.5975C31.9982 32.5951 32.0005 32.5951 32.0005 32.5928C32.0028 32.5905 32.0028 32.5905 32.0052 32.5882C32.0075 32.5859 32.0075 32.5859 32.0098 32.5836C32.0121 32.5812 32.0121 32.5812 32.0144 32.5789C32.0167 32.5766 32.0191 32.5766 32.0191 32.5743C32.0191 32.572 32.0214 32.572 32.0237 32.5697C32.026 32.5673 32.026 32.5673 32.0283 32.565C32.0307 32.5627 32.033 32.5627 32.033 32.5604C32.0353 32.5581 32.0353 32.5581 32.0376 32.5557C32.0399 32.5534 32.0399 32.5534 32.0422 32.5511C32.0446 32.5488 32.0446 32.5488 32.0469 32.5465C32.0492 32.5442 32.0515 32.5442 32.0515 32.5418C32.0515 32.5395 32.0538 32.5395 32.0561 32.5372C32.0585 32.5349 32.0585 32.5349 32.0608 32.5326C32.0631 32.5303 32.0631 32.5303 32.0654 32.5279C32.0677 32.5256 32.07 32.5256 32.07 32.5233C32.0724 32.521 32.0724 32.521 32.0747 32.5187C32.077 32.5164 32.077 32.5164 32.0793 32.514C32.0816 32.5117 32.0839 32.5117 32.0839 32.5094C32.0863 32.5071 32.0863 32.5071 32.0886 32.5048C32.0909 32.5025 32.0909 32.5025 32.0932 32.5001C32.0955 32.4978 32.0955 32.4978 32.0978 32.4955C32.1002 32.4932 32.1025 32.4932 32.1025 32.4909C32.1048 32.4886 32.1048 32.4886 32.1071 32.4862C32.1094 32.4839 32.1094 32.4839 32.1117 32.4816C32.1141 32.4793 32.1164 32.4793 32.1164 32.477C32.1187 32.4746 32.1187 32.4746 32.121 32.4723C32.1233 32.47 32.1233 32.47 32.1257 32.4677C32.128 32.4654 32.128 32.4654 32.1303 32.4631C32.1326 32.4607 32.1349 32.4607 32.1349 32.4584C32.1372 32.4561 32.1372 32.4561 32.1396 32.4538C32.1419 32.4515 32.1419 32.4515 32.1442 32.4492C32.1465 32.4468 32.1488 32.4468 32.1488 32.4445C32.1511 32.4422 32.1511 32.4422 32.1535 32.4399C32.1558 32.4376 32.1558 32.4376 32.1581 32.4353C32.1604 32.4329 32.1604 32.4329 32.1627 32.4306C32.165 32.4283 32.1674 32.4283 32.1674 32.426C32.1697 32.4237 32.1697 32.4237 32.172 32.4214C32.1743 32.419 32.1743 32.419 32.1766 32.4167C32.1789 32.4144 32.1789 32.4144 32.1813 32.4121C32.1836 32.4098 32.1859 32.4098 32.1859 32.4075C32.1882 32.4051 32.1882 32.4051 32.1905 32.4028C32.1928 32.4005 32.1928 32.4005 32.1952 32.3982C32.1975 32.3959 32.1998 32.3959 32.1998 32.3936C32.2021 32.3912 32.2021 32.3912 32.2044 32.3889C32.2068 32.3866 32.2068 32.3866 32.2091 32.3843C32.2114 32.382 32.2114 32.382 32.2137 32.3796C32.216 32.3773 32.2183 32.3773 32.2183 32.375C32.2207 32.3727 32.2207 32.3727 32.223 32.3704C32.2253 32.3681 32.2253 32.3681 32.2276 32.3657C32.2299 32.3634 32.2322 32.3634 32.2322 32.3611C32.2346 32.3588 32.2346 32.3588 32.2369 32.3565C32.2392 32.3542 32.2392 32.3542 32.2415 32.3518C32.2438 32.3495 32.2438 32.3495 32.2461 32.3472C32.2485 32.3449 32.2508 32.3449 32.2508 32.3426C32.2531 32.3403 32.2531 32.3403 32.2554 32.3379C32.2577 32.3356 32.2577 32.3356 32.26 32.3333C32.2624 32.331 32.2624 32.331 32.2647 32.3287C32.267 32.3264 32.2693 32.3264 32.2693 32.324C32.2716 32.3217 32.2716 32.3217 32.2739 32.3194C32.2763 32.3171 32.2763 32.3171 32.2786 32.3148C32.2809 32.3125 32.2832 32.3125 32.2832 32.3101C32.2855 32.3078 32.2855 32.3078 32.2878 32.3055C32.2902 32.3032 32.2902 32.3032 32.2925 32.3009C32.2948 32.2985 32.2948 32.2985 32.2971 32.2962C32.2994 32.2939 32.3018 32.2939 32.3018 32.2916C32.3041 32.2893 32.3041 32.2893 32.3064 32.287C32.3087 32.2846 32.3087 32.2846 32.311 32.2823C32.3133 32.28 32.3157 32.28 32.3157 32.2777C32.318 32.2754 32.318 32.2754 32.3203 32.2731C32.3226 32.2707 32.3226 32.2707 32.3249 32.2684C32.3272 32.2661 32.3272 32.2661 32.3296 32.2638C32.3319 32.2615 32.3342 32.2615 32.3342 32.2592C32.3365 32.2568 32.3365 32.2568 32.3388 32.2545C32.3411 32.2522 32.3411 32.2522 32.3435 32.2499C32.3458 32.2476 32.3481 32.2476 32.3481 32.2453C32.3504 32.2429 32.3504 32.2429 32.3527 32.2406C32.355 32.2383 32.355 32.2383 32.3574 32.236C32.3597 32.2337 32.3597 32.2337 32.362 32.2314C32.3643 32.229 32.3666 32.229 32.3666 32.2267C32.3689 32.2244 32.3689 32.2244 32.3713 32.2221C32.3736 32.2198 32.3736 32.2198 32.3759 32.2175C32.3782 32.2151 32.3782 32.2151 32.3805 32.2128C32.3829 32.2105 32.3852 32.2105 32.3852 32.2082C32.3852 32.2059 32.3875 32.2059 32.3898 32.2035C32.3921 32.2012 32.3921 32.2012 32.3944 32.1989C32.3968 32.1966 32.3991 32.1966 32.3991 32.1943C32.4014 32.192 32.4014 32.192 32.4037 32.1896C32.406 32.1873 32.406 32.1873 32.4083 32.185C32.4107 32.1827 32.4107 32.1827 32.413 32.1804C32.4153 32.1781 32.4176 32.1781 32.4176 32.1757C32.4176 32.1734 32.4199 32.1734 32.4222 32.1711C32.4246 32.1688 32.4246 32.1688 32.4269 32.1665C32.4292 32.1642 32.4315 32.1642 32.4315 32.1618C32.4338 32.1595 32.4338 32.1595 32.4361 32.1572C32.4385 32.1549 32.4385 32.1549 32.4408 32.1526C32.4431 32.1503 32.4431 32.1503 32.4454 32.1479C32.4477 32.1456 32.45 32.1456 32.45 32.1433C32.45 32.141 32.4524 32.141 32.4547 32.1387C32.457 32.1364 32.457 32.1364 32.4593 32.134C32.4616 32.1317 32.4616 32.1317 32.4639 32.1294C32.4663 32.1271 32.4686 32.1271 32.4686 32.1248C32.4709 32.1224 32.4709 32.1224 32.4732 32.1201C32.4755 32.1178 32.4755 32.1178 32.4779 32.1155C32.4802 32.1132 32.4825 32.1132 32.4825 32.1109C32.4825 32.1085 32.4848 32.1085 32.4871 32.1062C32.4894 32.1039 32.4894 32.1039 32.4918 32.1016C32.4941 32.0993 32.4941 32.0993 32.4964 32.097C32.4987 32.0946 32.501 32.0946 32.501 32.0923C32.5033 32.09 32.5033 32.09 32.5057 32.0877C32.508 32.0854 32.508 32.0854 32.5103 32.0831C32.5126 32.0807 32.5149 32.0807 32.5149 32.0784C32.5149 32.0761 32.5172 32.0761 32.5196 32.0738C32.5219 32.0715 32.5219 32.0715 32.5242 32.0692C32.5265 32.0668 32.5265 32.0668 32.5288 32.0645C32.5311 32.0622 32.5335 32.0622 32.5335 32.0599C32.5358 32.0576 32.5358 32.0576 32.5381 32.0553C32.5404 32.0529 32.5404 32.0529 32.5427 32.0506C32.545 32.0483 32.5474 32.0483 32.5474 32.046C32.5474 32.0437 32.5497 32.0437 32.552 32.0413C32.5543 32.039 32.5543 32.039 32.5566 32.0367C32.559 32.0344 32.5589 32.0344 32.5613 32.0321C32.5636 32.0298 32.5659 32.0298 32.5659 32.0274C32.5682 32.0251 32.5682 32.0251 32.5705 32.0228C32.5729 32.0205 32.5729 32.0205 32.5752 32.0182C32.5775 32.0159 32.5775 32.0159 32.5798 32.0135C32.5821 32.0112 32.5844 32.0112 32.5844 32.0089C32.5868 32.0066 32.5868 32.0066 32.5891 32.0043C32.5914 32.002 32.5914 32.002 32.5937 31.9996C32.596 31.9973 32.5983 31.9973 32.5983 31.995C32.6007 31.9927 32.6007 31.9927 32.603 31.9904C32.6053 31.9881 32.6053 31.9881 32.6076 31.9857C32.6099 31.9834 32.6099 31.9834 32.6122 31.9811C32.6146 31.9788 32.6169 31.9788 32.6169 31.9765C32.6192 31.9742 32.6192 31.9742 32.6215 31.9718C32.6238 31.9695 32.6238 31.9695 32.6261 31.9672C32.6285 31.9649 32.6308 31.9649 32.6308 31.9626C32.6331 31.9603 32.6331 31.9603 32.6354 31.9579C32.6377 31.9556 32.6377 31.9556 32.64 31.9533C32.6424 31.951 32.6424 31.951 32.6447 31.9487C32.647 31.9464 32.6493 31.9463 32.6493 31.944C32.6516 31.9417 32.6516 31.9417 32.654 31.9394C32.6563 31.9371 32.6563 31.9371 32.6586 31.9348C32.6609 31.9324 32.6609 31.9324 32.6632 31.9301C32.6655 31.9278 32.6679 31.9278 32.6679 31.9255C32.6702 31.9232 32.6702 31.9232 32.6725 31.9209C32.6748 31.9185 32.6748 31.9185 32.6771 31.9162C32.6794 31.9139 32.6818 31.9139 32.6818 31.9116C32.6841 31.9093 32.6841 31.9093 32.6864 31.907C32.6887 31.9046 32.6887 31.9046 32.691 31.9023C32.6933 31.9 32.6933 31.9 32.6957 31.8977C32.698 31.8954 32.7003 31.8954 32.7003 31.8931C32.7003 31.8907 32.7026 31.8907 32.7049 31.8884C32.7072 31.8861 32.7072 31.8861 32.7096 31.8838C32.7119 31.8815 32.7142 31.8815 32.7142 31.8792C32.7165 31.8768 32.7165 31.8768 32.7188 31.8745C32.7211 31.8722 32.7211 31.8722 32.7235 31.8699C32.7258 31.8676 32.7258 31.8676 32.7281 31.8653C32.7304 31.8629 32.7327 31.8629 32.7327 31.8606C32.735 31.8583 32.7351 31.8583 32.7374 31.856C32.7397 31.8537 32.7397 31.8537 32.742 31.8513C32.7443 31.849 32.7466 31.849 32.7466 31.8467C32.749 31.8444 32.749 31.8444 32.7513 31.8421C32.7536 31.8398 32.7536 31.8398 32.7559 31.8374C32.7582 31.8351 32.7582 31.8351 32.7605 31.8328C32.7629 31.8305 32.7652 31.8305 32.7652 31.8282C32.7675 31.8259 32.7675 31.8259 32.7698 31.8235C32.7721 31.8212 32.7721 31.8212 32.7744 31.8189C32.7768 31.8166 32.7768 31.8166 32.7791 31.8143C32.7814 31.812 32.7837 31.812 32.7837 31.8096C32.786 31.8073 32.786 31.8073 32.7883 31.805C32.7907 31.8027 32.7907 31.8027 32.793 31.8004C32.7953 31.7981 32.7976 31.7981 32.7976 31.7957C32.7999 31.7934 32.7999 31.7934 32.8022 31.7911C32.8046 31.7888 32.8046 31.7888 32.8069 31.7865C32.8092 31.7842 32.8092 31.7842 32.8115 31.7818C32.8138 31.7795 32.8161 31.7795 32.8161 31.7772C32.8185 31.7749 32.8185 31.7749 32.8208 31.7726C32.8231 31.7703 32.8231 31.7702 32.8254 31.7679C32.8277 31.7656 32.8301 31.7656 32.8301 31.7633C32.8324 31.761 32.8324 31.761 32.8347 31.7587C32.837 31.7563 32.837 31.7563 32.8393 31.754C32.8416 31.7517 32.8416 31.7517 32.844 31.7494C32.8463 31.7471 32.8486 31.7471 32.8486 31.7448C32.8509 31.7424 32.8509 31.7424 32.8532 31.7401C32.8555 31.7378 32.8555 31.7378 32.8579 31.7355C32.8602 31.7332 32.8625 31.7332 32.8625 31.7309C32.8648 31.7285 32.8648 31.7285 32.8671 31.7262C32.8694 31.7239 32.8694 31.7239 32.8718 31.7216C32.8741 31.7193 32.8741 31.7193 32.8764 31.717C32.8787 31.7146 32.881 31.7146 32.881 31.7123C32.8833 31.71 32.8833 31.71 32.8857 31.7077C32.888 31.7054 32.888 31.7054 32.8903 31.7031C32.8926 31.7007 32.8926 31.7007 32.8949 31.6984C32.8972 31.6961 32.8996 31.6961 32.8996 31.6938C32.9019 31.6915 32.9019 31.6915 32.9042 31.6892C32.9065 31.6868 32.9065 31.6868 32.9088 31.6845C32.9111 31.6822 32.9135 31.6822 32.9135 31.6799C32.9158 31.6776 32.9158 31.6776 32.9181 31.6752C32.9204 31.6729 32.9204 31.6729 32.9227 31.6706C32.9251 31.6683 32.9251 31.6683 32.9274 31.666C32.9297 31.6637 32.9297 31.6637 32.932 31.6613C33.641 31.7007 34.2504 31.4389 34.6397 30.9593C34.642 30.9569 34.642 30.9569 34.6443 30.9546C34.6467 30.9523 34.6467 30.9523 34.649 30.95C34.6513 30.9477 34.6513 30.9477 34.6536 30.9454C34.6559 30.943 34.6559 30.943 34.6582 30.9407C34.6606 30.9384 34.6606 30.9384 34.6629 30.9361C34.6652 30.9338 34.6652 30.9338 34.6675 30.9315C34.6698 30.9291 34.6698 30.9291 34.6721 30.9268C34.6745 30.9245 34.6745 30.9245 34.6768 30.9222C34.6791 30.9199 34.6791 30.9199 34.6814 30.9176C34.6837 30.9152 34.6837 30.9152 34.686 30.9129C34.6884 30.9106 34.6884 30.9106 34.6907 30.9083C34.693 30.906 34.693 30.906 34.6953 30.9037C34.6976 30.9013 34.7 30.9013 34.7 30.899C34.7023 30.8967 34.7023 30.8967 34.7046 30.8944C34.7069 30.8921 34.7069 30.8921 34.7092 30.8898C34.7115 30.8874 34.7115 30.8874 34.7139 30.8851C34.7162 30.8828 34.7162 30.8828 34.7185 30.8805C34.7208 30.8782 34.7208 30.8782 34.7231 30.8758C34.7254 30.8735 34.7254 30.8735 34.7278 30.8712C34.7301 30.8689 34.7301 30.8689 34.7324 30.8666C34.7347 30.8643 34.7347 30.8643 34.737 30.8619C34.7393 30.8596 34.7393 30.8596 34.7417 30.8573C34.744 30.855 34.744 30.855 34.7463 30.8527C34.7486 30.8504 34.7486 30.8504 34.7509 30.848C34.7532 30.8457 34.7532 30.8457 34.7556 30.8434C34.7579 30.8411 34.7579 30.8411 34.7602 30.8388C34.7625 30.8365 34.7625 30.8365 34.7648 30.8341C34.7671 30.8318 34.7671 30.8318 34.7695 30.8295C34.7718 30.8272 34.7718 30.8272 34.7741 30.8249C34.7764 30.8226 34.7764 30.8226 34.7787 30.8202C34.781 30.8179 34.7834 30.8179 34.7834 30.8156C34.7857 30.8133 34.7857 30.8133 34.788 30.811C34.7903 30.8087 34.7903 30.8087 34.7926 30.8063C34.795 30.804 34.795 30.804 34.7973 30.8017C34.7996 30.7994 34.7996 30.7994 34.8019 30.7971C34.8042 30.7948 34.8042 30.7948 34.8065 30.7924C34.8089 30.7901 34.8089 30.7901 34.8112 30.7878C34.8135 30.7855 34.8158 30.7855 34.8158 30.7832C34.8181 30.7808 34.8181 30.7808 34.8204 30.7785C34.8228 30.7762 34.8228 30.7762 34.8251 30.7739C34.8274 30.7716 34.8274 30.7716 34.8297 30.7693C34.832 30.7669 34.832 30.7669 34.8343 30.7646C34.8367 30.7623 34.8367 30.7623 34.839 30.76C34.8413 30.7577 34.8413 30.7577 34.8436 30.7554C34.8459 30.753 34.8459 30.753 34.8482 30.7507C34.8506 30.7484 34.8506 30.7484 34.8529 30.7461C34.8552 30.7438 34.8552 30.7438 34.8575 30.7415C34.8598 30.7391 34.8598 30.7391 34.8621 30.7368C34.8645 30.7345 34.8645 30.7345 34.8668 30.7322C34.8691 30.7299 34.8691 30.7299 34.8714 30.7276C34.8737 30.7252 34.8737 30.7252 34.876 30.7229C34.8784 30.7206 34.8784 30.7206 34.8807 30.7183C34.883 30.716 34.883 30.716 34.8853 30.7137C34.8876 30.7113 34.8876 30.7113 34.89 30.709C34.8923 30.7067 34.8923 30.7067 34.8946 30.7044C34.8969 30.7021 34.8992 30.7021 34.8992 30.6997C34.9015 30.6974 34.9015 30.6974 34.9039 30.6951C34.9062 30.6928 34.9062 30.6928 34.9085 30.6905C34.9108 30.6882 34.9108 30.6882 34.9131 30.6858C34.9154 30.6835 34.9154 30.6835 34.9178 30.6812C34.9201 30.6789 34.9201 30.6789 34.9224 30.6766C34.9247 30.6743 34.9247 30.6743 34.927 30.6719C34.9293 30.6696 34.9293 30.6696 34.9317 30.6673C34.934 30.665 34.934 30.665 34.9363 30.6627C34.9386 30.6604 34.9386 30.6604 34.9409 30.658C34.9432 30.6557 34.9432 30.6557 34.9456 30.6534C34.9479 30.6511 34.9479 30.6511 34.9502 30.6488C34.9525 30.6465 34.9525 30.6465 34.9548 30.6441C34.9571 30.6418 34.9571 30.6418 34.9595 30.6395C34.9618 30.6372 34.9618 30.6372 34.9641 30.6349C34.9664 30.6326 34.9664 30.6326 34.9687 30.6302C34.9711 30.6279 34.9711 30.6279 34.9734 30.6256C34.9757 30.6233 34.9757 30.6233 34.978 30.621C34.9803 30.6187 34.9826 30.6187 34.9826 30.6163C34.985 30.614 34.985 30.614 34.9873 30.6117C34.9896 30.6094 34.9896 30.6094 34.9919 30.6071C34.9942 30.6047 34.9942 30.6047 34.9965 30.6024C34.9989 30.6001 34.9989 30.6001 35.0012 30.5978C35.0035 30.5955 35.0035 30.5955 35.0058 30.5932C35.0081 30.5908 35.0081 30.5908 35.0104 30.5885C35.0128 30.5862 35.0151 30.5862 35.0151 30.5839C35.0174 30.5816 35.0174 30.5816 35.0197 30.5793C35.022 30.5769 35.022 30.5769 35.0243 30.5746C35.0267 30.5723 35.0267 30.5723 35.029 30.57C35.0313 30.5677 35.0313 30.5677 35.0336 30.5654C35.0359 30.563 35.0359 30.563 35.0382 30.5607C35.0406 30.5584 35.0406 30.5584 35.0429 30.5561C35.0452 30.5538 35.0452 30.5538 35.0475 30.5515C35.0498 30.5491 35.0498 30.5491 35.0521 30.5468C35.0545 30.5445 35.0545 30.5445 35.0568 30.5422C35.0591 30.5399 35.0591 30.5399 35.0614 30.5376C35.0637 30.5352 35.0637 30.5352 35.0661 30.5329C35.0684 30.5306 35.0684 30.5306 35.0707 30.5283C35.073 30.526 35.073 30.526 35.0753 30.5237C35.0776 30.5213 35.0776 30.5213 35.08 30.519C35.0823 30.5167 35.0823 30.5167 35.0846 30.5144C35.0869 30.5121 35.0869 30.5121 35.0892 30.5097C35.0915 30.5074 35.0915 30.5074 35.0939 30.5051C35.0962 30.5028 35.0985 30.5028 35.0985 30.5005C35.1008 30.4982 35.1008 30.4982 35.1031 30.4958C35.1054 30.4935 35.1054 30.4935 35.1078 30.4912C35.1101 30.4889 35.1101 30.4889 35.1124 30.4866C35.1147 30.4843 35.1147 30.4843 35.117 30.4819C35.1193 30.4796 35.1193 30.4796 35.1217 30.4773C35.124 30.475 35.124 30.475 35.1263 30.4727C35.1286 30.4704 35.1286 30.4704 35.1309 30.468C35.1332 30.4657 35.1332 30.4657 35.1356 30.4634C35.1379 30.4611 35.1379 30.4611 35.1402 30.4588C35.1425 30.4565 35.1425 30.4565 35.1448 30.4541C35.1472 30.4518 35.1472 30.4518 35.1495 30.4495C35.1518 30.4472 35.1518 30.4472 35.1541 30.4449C35.1564 30.4426 35.1564 30.4426 35.1587 30.4402C35.1611 30.4379 35.1611 30.4379 35.1634 30.4356C35.1657 30.4333 35.1657 30.4333 35.168 30.431C35.1703 30.4286 35.1703 30.4286 35.1726 30.4263C35.175 30.424 35.175 30.424 35.1773 30.4217C35.1796 30.4194 35.1796 30.4194 35.1819 30.4171C35.1842 30.4147 35.1842 30.4147 35.1865 30.4124C35.1889 30.4101 35.1889 30.4101 35.1912 30.4078C35.1935 30.4055 35.1935 30.4055 35.1958 30.4032C35.1981 30.4008 35.1981 30.4008 35.2004 30.3985C35.2028 30.3962 35.2028 30.3962 35.2051 30.3939C35.2074 30.3916 35.2074 30.3916 35.2097 30.3893C35.212 30.3869 35.2143 30.3869 35.2143 30.3846C35.2167 30.3823 35.2167 30.3823 35.219 30.38C35.2213 30.3777 35.2213 30.3777 35.2236 30.3754C35.2259 30.373 35.2259 30.373 35.2282 30.3707C35.2306 30.3684 35.2306 30.3684 35.2329 30.3661C35.2352 30.3638 35.2352 30.3638 35.2375 30.3615C35.2398 30.3591 35.2398 30.3591 35.2422 30.3568C35.2445 30.3545 35.2445 30.3545 35.2468 30.3522C35.2491 30.3499 35.2491 30.3499 35.2514 30.3476C35.2537 30.3452 35.2537 30.3452 35.2561 30.3429C35.2584 30.3406 35.2584 30.3406 35.2607 30.3383C35.263 30.336 35.263 30.336 35.2653 30.3336C35.2676 30.3313 35.2676 30.3313 35.27 30.329C35.2723 30.3267 35.2723 30.3267 35.2746 30.3244C35.2769 30.3221 35.2769 30.3221 35.2792 30.3197C35.2815 30.3174 35.2815 30.3174 35.2839 30.3151C35.2862 30.3128 35.2862 30.3128 35.2885 30.3105C35.2908 30.3082 35.2908 30.3082 35.2931 30.3058C35.2954 30.3035 35.2978 30.3035 35.2978 30.3012C35.3001 30.2989 35.3001 30.2989 35.3024 30.2966C35.3047 30.2943 35.3047 30.2943 35.307 30.2919C35.3093 30.2896 35.3093 30.2896 35.3117 30.2873C35.314 30.285 35.314 30.285 35.3163 30.2827C35.3186 30.2804 35.3186 30.2804 35.3209 30.278C35.3233 30.2757 35.3233 30.2757 35.3256 30.2734C35.3279 30.2711 35.3279 30.2711 35.3302 30.2688C35.3325 30.2665 35.3325 30.2665 35.3348 30.2641C35.3372 30.2618 35.3372 30.2618 35.3395 30.2595C35.3418 30.2572 35.3418 30.2572 35.3441 30.2549C35.3464 30.2525 35.3464 30.2525 35.3487 30.2502C35.3511 30.2479 35.3511 30.2479 35.3534 30.2456C35.3557 30.2433 35.3557 30.2433 35.358 30.241C35.3603 30.2386 35.3603 30.2386 35.3626 30.2363C35.365 30.234 35.365 30.234 35.3673 30.2317C35.3696 30.2294 35.3696 30.2294 35.3719 30.2271C35.3742 30.2247 35.3742 30.2247 35.3765 30.2224C35.3789 30.2201 35.3789 30.2201 35.3812 30.2178C35.3835 30.2155 35.3835 30.2155 35.3858 30.2132C35.3881 30.2108 35.3881 30.2108 35.3904 30.2085C35.3928 30.2062 35.3928 30.2062 35.3951 30.2039C35.3974 30.2016 35.3974 30.2016 35.3997 30.1993C35.402 30.1969 35.402 30.1969 35.4043 30.1946C35.4067 30.1923 35.4067 30.1923 35.409 30.19C35.4113 30.1877 35.4136 30.1877 35.4136 30.1854C35.4159 30.183 35.4159 30.183 35.4183 30.1807C35.4206 30.1784 35.4206 30.1784 35.4229 30.1761C35.4252 30.1738 35.4252 30.1738 35.4275 30.1715C35.4298 30.1691 35.4298 30.1691 35.4322 30.1668C35.4345 30.1645 35.4345 30.1645 35.4368 30.1622C35.4391 30.1599 35.4391 30.1599 35.4414 30.1575C35.4437 30.1552 35.4437 30.1552 35.4461 30.1529C35.4484 30.1506 35.4484 30.1506 35.4507 30.1483C35.453 30.146 35.453 30.146 35.4553 30.1436C35.4576 30.1413 35.4576 30.1413 35.46 30.139C35.4623 30.1367 35.4623 30.1367 35.4646 30.1344C35.4669 30.1321 35.4669 30.1321 35.4692 30.1297C35.4715 30.1274 35.4715 30.1274 35.4739 30.1251C35.4762 30.1228 35.4762 30.1228 35.4785 30.1205C35.4808 30.1182 35.4808 30.1182 35.4831 30.1158C35.4854 30.1135 35.4854 30.1135 35.4878 30.1112C35.4901 30.1089 35.4901 30.1089 35.4924 30.1066C35.4947 30.1043 35.497 30.1043 35.497 30.1019C35.4993 30.0996 35.4994 30.0996 35.5017 30.0973C35.504 30.095 35.504 30.095 35.5063 30.0927C35.5086 30.0904 35.5086 30.0904 35.5109 30.088C35.5133 30.0857 35.5133 30.0857 35.5156 30.0834C35.5179 30.0811 35.5179 30.0811 35.5202 30.0788C35.5225 30.0765 35.5225 30.0764 35.5248 30.0741C35.5272 30.0718 35.5272 30.0718 35.5295 30.0695C35.5318 30.0672 35.5318 30.0672 35.5341 30.0649C35.5364 30.0625 35.5364 30.0625 35.5387 30.0602C35.5411 30.0579 35.5411 30.0579 35.5434 30.0556C35.5457 30.0533 35.5457 30.0533 35.548 30.051C35.5503 30.0486 35.5503 30.0486 35.5526 30.0463C35.555 30.044 35.555 30.044 35.5573 30.0417C35.5596 30.0394 35.5596 30.0394 35.5619 30.0371C35.5642 30.0347 35.5642 30.0347 35.5665 30.0324C35.5689 30.0301 35.5689 30.0301 35.5712 30.0278C35.5735 30.0255 35.5735 30.0255 35.5758 30.0232C35.5781 30.0208 35.5781 30.0208 35.5804 30.0185C35.5828 30.0162 35.5828 30.0162 35.5851 30.0139C35.5874 30.0116 35.5874 30.0116 35.5897 30.0093C35.592 30.0069 35.592 30.0069 35.5944 30.0046C35.5967 30.0023 35.5967 30.0023 35.599 30C35.6013 29.9977 35.6013 29.9977 35.6036 29.9954C35.6059 29.993 35.6059 29.993 35.6083 29.9907C35.6106 29.9884 35.6129 29.9884 35.6129 29.9861C35.6152 29.9838 35.6152 29.9838 35.6175 29.9814C35.6198 29.9791 35.6198 29.9791 35.6222 29.9768C35.6245 29.9745 35.6245 29.9745 35.6268 29.9722C35.6291 29.9699 35.6291 29.9699 35.6314 29.9675C35.6337 29.9652 35.6337 29.9652 35.6361 29.9629C35.6384 29.9606 35.6384 29.9606 35.6407 29.9583C35.643 29.956 35.643 29.956 35.6453 29.9536C35.6476 29.9513 35.6476 29.9513 35.65 29.949C35.6523 29.9467 35.6523 29.9467 35.6546 29.9444C35.6569 29.9421 35.6569 29.9421 35.6592 29.9397C35.6615 29.9374 35.6615 29.9374 35.6639 29.9351C35.6662 29.9328 35.6662 29.9328 35.6685 29.9305C35.6708 29.9282 35.6708 29.9282 35.6731 29.9258C35.6754 29.9235 35.6754 29.9235 35.6778 29.9212C35.6801 29.9189 35.6801 29.9189 35.6824 29.9166C35.6847 29.9143 35.6847 29.9143 35.687 29.9119C35.6894 29.9096 35.6894 29.9096 35.6917 29.9073C35.694 29.905 35.6963 29.905 35.6963 29.9027C35.6986 29.9004 35.6986 29.9003 35.7009 29.898C35.7033 29.8957 35.7033 29.8957 35.7056 29.8934C35.7079 29.8911 35.7079 29.8911 35.7102 29.8888C35.7125 29.8864 35.7125 29.8864 35.7148 29.8841C35.7172 29.8818 35.7172 29.8818 35.7195 29.8795C35.7218 29.8772 35.7218 29.8772 35.7241 29.8749C35.7264 29.8725 35.7264 29.8725 35.7287 29.8702C35.7311 29.8679 35.7311 29.8679 35.7334 29.8656C35.7357 29.8633 35.7357 29.8633 35.738 29.861C35.7403 29.8586 35.7403 29.8586 35.7426 29.8563C35.745 29.854 35.745 29.854 35.7473 29.8517C35.7496 29.8494 35.7496 29.8494 35.7519 29.8471C35.7542 29.8447 35.7542 29.8447 35.7565 29.8424C35.7589 29.8401 35.7589 29.8401 35.7612 29.8378C35.7635 29.8355 35.7635 29.8355 35.7658 29.8332C35.7681 29.8308 35.7681 29.8308 35.7705 29.8285C35.7728 29.8262 35.7728 29.8262 35.7751 29.8239C35.7774 29.8216 35.7774 29.8216 35.7797 29.8193C35.782 29.8169 35.782 29.8169 35.7844 29.8146C35.7867 29.8123 35.7867 29.8123 35.789 29.81C35.7913 29.8077 35.7913 29.8077 35.7936 29.8053C35.7959 29.803 35.7959 29.803 35.7983 29.8007C35.8006 29.7984 35.8006 29.7984 35.8029 29.7961C35.8052 29.7938 35.8052 29.7938 35.8075 29.7914C35.8098 29.7891 35.8122 29.7891 35.8122 29.7868C35.8145 29.7845 35.8145 29.7845 35.8168 29.7822C35.8191 29.7799 35.8191 29.7799 35.8214 29.7775C35.8237 29.7752 35.8237 29.7752 35.8261 29.7729C35.8284 29.7706 35.8284 29.7706 35.8307 29.7683C35.833 29.766 35.833 29.766 35.8353 29.7636C35.8376 29.7613 35.8376 29.7613 35.84 29.759C35.8423 29.7567 35.8423 29.7567 35.8446 29.7544C35.8469 29.7521 35.8469 29.7521 35.8492 29.7497C35.8515 29.7474 35.8515 29.7474 35.8539 29.7451C35.8562 29.7428 35.8562 29.7428 35.8585 29.7405C35.8608 29.7382 35.8608 29.7382 35.8631 29.7358C35.8655 29.7335 35.8655 29.7335 35.8678 29.7312C35.8701 29.7289 35.8701 29.7289 35.8724 29.7266C35.8747 29.7243 35.8747 29.7243 35.877 29.7219C35.8794 29.7196 35.8794 29.7196 35.8817 29.7173C35.884 29.715 35.884 29.715 35.8863 29.7127C35.8886 29.7103 35.8886 29.7103 35.8909 29.708C35.8933 29.7057 35.8956 29.7057 35.8956 29.7034C35.8979 29.7011 35.8979 29.7011 35.9002 29.6988C35.9025 29.6964 35.9025 29.6964 35.9048 29.6941C35.9072 29.6918 35.9072 29.6918 35.9095 29.6895C35.9118 29.6872 35.9118 29.6872 35.9141 29.6849C35.9164 29.6825 35.9164 29.6825 35.9187 29.6802C35.9211 29.6779 35.9211 29.6779 35.9234 29.6756C35.9257 29.6733 35.928 29.6733 35.928 29.671C35.9303 29.6686 35.9303 29.6686 35.9326 29.6663C35.935 29.664 35.935 29.664 35.9373 29.6617C35.9396 29.6594 35.9396 29.6594 35.9419 29.6571C35.9442 29.6547 35.9442 29.6547 35.9466 29.6524C35.9489 29.6501 35.9489 29.6501 35.9512 29.6478C35.9535 29.6455 35.9535 29.6455 35.9558 29.6432C35.9581 29.6408 35.9581 29.6408 35.9605 29.6385C35.9628 29.6362 35.9628 29.6362 35.9651 29.6339C35.9674 29.6316 35.9674 29.6316 35.9697 29.6292C35.972 29.6269 35.972 29.6269 35.9744 29.6246C35.9767 29.6223 35.9767 29.6223 35.979 29.62C35.9813 29.6177 35.9813 29.6177 35.9836 29.6153C35.9859 29.613 35.9859 29.613 35.9883 29.6107C35.9906 29.6084 35.9906 29.6084 35.9929 29.6061C35.9952 29.6038 35.9952 29.6038 35.9975 29.6014C35.9998 29.5991 35.9998 29.5991 36.0022 29.5968C36.0045 29.5945 36.0045 29.5945 36.0068 29.5922C36.0091 29.5899 36.0114 29.5899 36.0114 29.5875C36.0137 29.5852 36.0137 29.5852 36.0161 29.5829C36.0184 29.5806 36.0184 29.5806 36.0207 29.5783C36.023 29.576 36.023 29.576 36.0253 29.5736C36.0276 29.5713 36.0276 29.5713 36.03 29.569C36.0323 29.5667 36.0323 29.5667 36.0346 29.5644C36.0369 29.5621 36.0369 29.5621 36.0392 29.5597C36.0416 29.5574 36.0416 29.5574 36.0439 29.5551C36.0462 29.5528 36.0462 29.5528 36.0485 29.5505C36.0508 29.5482 36.0508 29.5482 36.0531 29.5458C36.0555 29.5435 36.0555 29.5435 36.0578 29.5412C36.0601 29.5389 36.0601 29.5389 36.0624 29.5366C36.0647 29.5342 36.0647 29.5342 36.067 29.5319C36.0694 29.5296 36.0694 29.5296 36.0717 29.5273C36.074 29.525 36.074 29.525 36.0763 29.5227C36.0786 29.5203 36.0786 29.5203 36.0809 29.518C36.0833 29.5157 36.0833 29.5157 36.0856 29.5134C36.0879 29.5111 36.0879 29.5111 36.0902 29.5088C36.0925 29.5064 36.0948 29.5064 36.0948 29.5041C36.0972 29.5018 36.0972 29.5018 36.0995 29.4995C36.1018 29.4972 36.1018 29.4972 36.1041 29.4949C36.1064 29.4925 36.1064 29.4925 36.1087 29.4902C36.1111 29.4879 36.1111 29.4879 36.1134 29.4856C36.1157 29.4833 36.1157 29.4833 36.118 29.481C36.1203 29.4786 36.1203 29.4786 36.1227 29.4763C36.125 29.474 36.1273 29.474 36.1273 29.4717C36.1296 29.4694 36.1296 29.4694 36.1319 29.4671C36.1342 29.4647 36.1342 29.4647 36.1366 29.4624C36.1389 29.4601 36.1389 29.4601 36.1412 29.4578C36.1435 29.4555 36.1435 29.4555 36.1458 29.4531C36.1481 29.4508 36.1481 29.4508 36.1505 29.4485C36.1528 29.4462 36.1528 29.4462 36.1551 29.4439C36.1574 29.4416 36.1574 29.4416 36.1597 29.4392C36.162 29.4369 36.162 29.4369 36.1644 29.4346C36.1667 29.4323 36.1667 29.4323 36.169 29.43C36.1713 29.4277 36.1713 29.4277 36.1736 29.4253C36.1759 29.423 36.1759 29.423 36.1783 29.4207C36.1806 29.4184 36.1806 29.4184 36.1829 29.4161C36.1852 29.4138 36.1852 29.4138 36.1875 29.4114C36.1898 29.4091 36.1898 29.4091 36.1922 29.4068C36.1945 29.4045 36.1945 29.4045 36.1968 29.4022C36.1991 29.3999 36.1991 29.3999 36.2014 29.3975C36.2037 29.3952 36.2037 29.3952 36.2061 29.3929C36.2084 29.3906 36.2107 29.3906 36.2107 29.3883C36.213 29.386 36.213 29.386 36.2153 29.3836C36.2177 29.3813 36.2177 29.3813 36.22 29.379C36.2223 29.3767 36.2223 29.3767 36.2246 29.3744C36.2269 29.3721 36.2269 29.3721 36.2292 29.3697C36.2316 29.3674 36.2316 29.3674 36.2339 29.3651C36.2362 29.3628 36.2362 29.3628 36.2385 29.3605C36.2408 29.3581 36.2408 29.3581 36.2431 29.3558C36.2455 29.3535 36.2455 29.3535 36.2478 29.3512C36.2501 29.3489 36.2501 29.3489 36.2524 29.3466C36.2547 29.3442 36.2547 29.3442 36.257 29.3419C36.2594 29.3396 36.2594 29.3396 36.2617 29.3373C36.264 29.335 36.264 29.335 36.2663 29.3327C36.2686 29.3303 36.2686 29.3303 36.2709 29.328C36.2733 29.3257 36.2733 29.3257 36.2756 29.3234C36.2779 29.3211 36.2779 29.3211 36.2802 29.3188C36.2825 29.3164 36.2825 29.3164 36.2848 29.3141C36.2872 29.3118 36.2872 29.3118 36.2895 29.3095C36.2918 29.3072 36.2941 29.3072 36.2941 29.3049C36.2964 29.3025 36.2964 29.3025 36.2987 29.3002C36.3011 29.2979 36.3011 29.2979 36.3034 29.2956C36.3057 29.2933 36.3057 29.2933 36.308 29.291C36.3103 29.2886 36.3103 29.2886 36.3127 29.2863C36.315 29.284 36.315 29.284 36.3173 29.2817C36.3196 29.2794 36.3196 29.2794 36.3219 29.277C36.3242 29.2747 36.3266 29.2747 36.3266 29.2724C36.3289 29.2701 36.3289 29.2701 36.3312 29.2678C36.3335 29.2655 36.3335 29.2655 36.3358 29.2631C36.3381 29.2608 36.3381 29.2608 36.3405 29.2585C36.3428 29.2562 36.3428 29.2562 36.3451 29.2539C36.3474 29.2516 36.3474 29.2516 36.3497 29.2492C36.352 29.2469 36.352 29.2469 36.3544 29.2446C36.3567 29.2423 36.3567 29.2423 36.359 29.24C36.3613 29.2377 36.3613 29.2377 36.3636 29.2353C36.3659 29.233 36.3659 29.233 36.3683 29.2307C36.3706 29.2284 36.3706 29.2284 36.3729 29.2261C36.3752 29.2238 36.3752 29.2238 36.3775 29.2214C36.3798 29.2191 36.3798 29.2191 36.3822 29.2168C36.3845 29.2145 36.3845 29.2145 36.3868 29.2122C36.3891 29.2099 36.3891 29.2099 36.3914 29.2075C36.3938 29.2052 36.3938 29.2052 36.3961 29.2029C36.3984 29.2006 36.3984 29.2006 36.4007 29.1983C36.403 29.196 36.403 29.196 36.4053 29.1936C36.4077 29.1913 36.41 29.1913 36.41 29.189C36.4123 29.1867 36.4123 29.1867 36.4146 29.1844C36.4169 29.182 36.4169 29.182 36.4192 29.1797C36.4216 29.1774 36.4216 29.1774 36.4239 29.1751C36.4262 29.1728 36.4262 29.1728 36.4285 29.1705C36.4308 29.1681 36.4308 29.1681 36.4331 29.1658C36.4355 29.1635 36.4355 29.1635 36.4378 29.1612C36.4401 29.1589 36.4401 29.1589 36.4424 29.1566C36.4447 29.1542 36.4447 29.1542 36.447 29.1519C36.4494 29.1496 36.4494 29.1496 36.4517 29.1473C36.454 29.145 36.454 29.145 36.4563 29.1427C36.4586 29.1403 36.4586 29.1403 36.4609 29.138C36.4633 29.1357 36.4633 29.1357 36.4656 29.1334C36.4679 29.1311 36.4679 29.1311 36.4702 29.1288C36.4725 29.1264 36.4725 29.1264 36.4748 29.1241C36.4772 29.1218 36.4772 29.1218 36.4795 29.1195C36.4818 29.1172 36.4818 29.1172 36.4841 29.1149C36.4864 29.1125 36.4864 29.1125 36.4888 29.1102C36.4911 29.1079 36.4934 29.1079 36.4934 29.1056C36.783 28.7511 36.9545 28.2761 36.9545 27.72V26.0748C37.1653 24.388 35.9674 22.8934 34.4914 22.525Z" stroke="black" stroke-miterlimit="10" stroke-linecap="round" stroke-linejoin="round"/>
<path d="M8 14.0352V22.6711C8 24.1471 9.19562 25.6416 10.6739 26.01L32.545 31.4621C34.021 31.8306 35.219 30.9315 35.219 29.4555V27.8104C35.219 26.3344 34.0234 24.8399 32.545 24.4714L24.2267 22.3976V15.4093L10.6739 12.0286C9.19562 11.6602 8 12.5592 8 14.0352Z" fill="white" stroke="black" stroke-miterlimit="10" stroke-linecap="round" stroke-linejoin="round"/>
<path d="M24.2241 15.4092L26.8471 16.0626C27.8875 16.3221 28.8305 17.1725 29.2499 18.2314L31.6273 24.2466L24.2241 22.3999V15.4092Z" fill="white" stroke="black" stroke-miterlimit="10" stroke-linecap="round" stroke-linejoin="round"/>
<path d="M16.4159 29.4717C17.5363 28.4824 17.416 26.5155 16.1471 25.0785C14.8782 23.6415 12.9414 23.2786 11.8209 24.268C10.7005 25.2573 10.8208 27.2242 12.0897 28.6612C13.3586 30.0982 15.2954 30.4611 16.4159 29.4717Z" fill="white" stroke="black" stroke-miterlimit="10"/>
<path d="M31.3946 33.2088C32.515 32.2195 32.3947 30.2525 31.1259 28.8156C29.857 27.3786 27.9201 27.0157 26.7997 28.005C25.6793 28.9944 25.7996 30.9613 27.0685 32.3983C28.3373 33.8352 30.2742 34.1981 31.3946 33.2088Z" fill="white" stroke="black" stroke-miterlimit="10"/>
<path d="M7.5 15C11.6421 15 15 11.6421 15 7.5C15 3.35786 11.6421 0 7.5 0C3.35786 0 0 3.35786 0 7.5C0 11.6421 3.35786 15 7.5 15Z" fill="#2F5ACF"/>
<path d="M11.2563 7.5H7.5" stroke="white" stroke-miterlimit="10" stroke-linecap="round" stroke-linejoin="round"/>
<path d="M7.5 2.03369V7.49995" stroke="white" stroke-miterlimit="10" stroke-linecap="round" stroke-linejoin="round"/>
</svg>
