<svg width="33" height="35" viewBox="0 0 33 35" fill="none" xmlns="http://www.w3.org/2000/svg">
<path d="M22.6488 13.0316L10.5994 10.0281C9.92679 9.86045 9.31815 9.98174 8.8771 10.3147C8.87048 10.3191 8.86387 10.3213 8.85946 10.3258C8.85284 10.3302 8.84622 10.3324 8.84181 10.3368C8.8352 10.3412 8.82858 10.3434 8.82417 10.3478C8.81756 10.3522 8.81094 10.3544 8.80653 10.3588C8.79991 10.3632 8.7933 10.3655 8.78889 10.3699C8.78227 10.3743 8.77566 10.3765 8.77125 10.3809C8.76463 10.3853 8.75801 10.3875 8.7536 10.3919C8.74699 10.3963 8.74037 10.3985 8.73596 10.4029C8.72935 10.4074 8.72273 10.4096 8.71832 10.414C8.7117 10.4184 8.70509 10.4206 8.70068 10.425C8.69406 10.4294 8.68745 10.4316 8.68304 10.436C8.67642 10.4404 8.6698 10.4426 8.66539 10.447C8.65878 10.4515 8.65216 10.4537 8.64775 10.4581C8.64114 10.4625 8.63452 10.4647 8.63011 10.4691C8.62129 10.4735 8.61467 10.4779 8.60806 10.4823C8.60144 10.4867 8.59483 10.4889 8.59042 10.4934C8.58601 10.4978 8.57939 10.5 8.57277 10.5044C8.56616 10.5088 8.55954 10.511 8.55513 10.5154C8.54852 10.5198 8.54411 10.522 8.53749 10.5264C8.53087 10.5308 8.52426 10.5331 8.51985 10.5375C8.51323 10.5419 8.50662 10.5441 8.50221 10.5485C8.49559 10.5529 8.48897 10.5551 8.48456 10.5595C8.47795 10.5639 8.47133 10.5661 8.46692 10.5705C8.46031 10.575 8.45369 10.5772 8.44928 10.5816C8.44266 10.586 8.43605 10.5882 8.43164 10.5926C8.42502 10.597 8.41841 10.5992 8.414 10.6036C8.40738 10.608 8.40077 10.6102 8.39635 10.6146C8.38753 10.6191 8.38092 10.6235 8.37651 10.6257C8.36989 10.6301 8.36328 10.6323 8.35887 10.6367C8.35225 10.6411 8.34563 10.6433 8.34122 10.6477C8.33461 10.6521 8.32799 10.6543 8.32358 10.6588C8.31697 10.6632 8.31035 10.6654 8.30594 10.6698C8.29932 10.6742 8.29271 10.6764 8.2883 10.6808C8.28168 10.6852 8.27507 10.6874 8.27066 10.6918C8.26404 10.6962 8.25742 10.6984 8.25301 10.7029C8.2464 10.7073 8.24199 10.7095 8.23537 10.7139C8.22876 10.7183 8.22214 10.7205 8.21773 10.7249C8.21111 10.7293 8.2045 10.7315 8.20009 10.7359C8.19347 10.7403 8.18686 10.7426 8.18245 10.747C8.17363 10.7536 8.16701 10.7558 8.1626 10.7602C8.15598 10.7646 8.14937 10.7668 8.14496 10.7712C8.13834 10.7756 8.13173 10.7778 8.12732 10.7822C8.1207 10.7867 8.11408 10.7889 8.10967 10.7933C8.10306 10.7977 8.09644 10.7999 8.09203 10.8043C8.08542 10.8087 8.0788 10.8109 8.07439 10.8153C8.06777 10.8197 8.06116 10.8219 8.05675 10.8263C8.05013 10.8308 8.04352 10.833 8.0391 10.8374C8.03249 10.8418 8.02587 10.844 8.02146 10.8484C8.01485 10.8528 8.00823 10.855 8.00382 10.8594C7.99721 10.8638 7.99059 10.866 7.98618 10.8705C7.97956 10.8749 7.97295 10.8771 7.96854 10.8815C7.95972 10.8881 7.9531 10.8903 7.94649 10.8947C7.93987 10.8991 7.93325 10.9013 7.92884 10.9057C7.92223 10.9101 7.91561 10.9124 7.9112 10.9168C7.90459 10.9212 7.89797 10.9234 7.89356 10.9278C7.88694 10.9322 7.88033 10.9344 7.87592 10.9388C7.87151 10.9432 7.86269 10.9454 7.85828 10.9498C7.85166 10.9543 7.84504 10.9565 7.84063 10.9609C7.83402 10.9653 7.8274 10.9675 7.82299 10.9719C7.81638 10.9763 7.80976 10.9785 7.80535 10.9829C7.79873 10.9873 7.79212 10.9895 7.78771 10.9939C7.78109 10.9984 7.77668 11.0006 7.77007 11.005C7.76345 11.0094 7.75683 11.0116 7.75242 11.016C7.74581 11.0204 7.73919 11.0226 7.73478 11.027C7.72817 11.0314 7.72155 11.0336 7.71714 11.0381C7.71052 11.0425 7.70391 11.0447 7.6995 11.0491C7.69288 11.0535 7.68627 11.0557 7.68186 11.0601C7.67524 11.0645 7.66862 11.0667 7.66421 11.0711C7.6576 11.0755 7.65098 11.0777 7.64657 11.0822C7.63996 11.0866 7.63334 11.0888 7.62893 11.0932C7.62231 11.0976 7.6157 11.0998 7.61129 11.1042C7.60467 11.1086 7.59806 11.1108 7.59365 11.1152C7.58703 11.1196 7.58042 11.1219 7.576 11.1263C7.56939 11.1307 7.56277 11.1329 7.55836 11.1373C7.55175 11.1417 7.54513 11.1439 7.54072 11.1483C7.53411 11.1527 7.52749 11.1549 7.52308 11.1593C7.51205 11.166 7.50544 11.1704 7.50103 11.1748C7.49441 11.1792 7.48779 11.1814 7.48338 11.1858C7.47677 11.1902 7.47236 11.1924 7.46574 11.1968C7.45913 11.2012 7.45251 11.2034 7.4481 11.2079C7.44148 11.2123 7.43487 11.2145 7.43046 11.2189C7.42384 11.2233 7.41723 11.2255 7.41282 11.2299C7.4062 11.2343 7.39959 11.2365 7.39517 11.2409C7.38856 11.2453 7.38194 11.2476 7.37753 11.252C7.37092 11.2564 7.3643 11.2586 7.35989 11.263C7.35328 11.2674 7.34666 11.2696 7.34225 11.274C7.33563 11.2784 7.32902 11.2806 7.32461 11.285C7.31799 11.2895 7.31138 11.2917 7.30697 11.2961C7.30035 11.3005 7.29373 11.3027 7.28932 11.3071C7.28271 11.3115 7.27609 11.3137 7.27168 11.3181C7.26507 11.3225 7.25845 11.3247 7.25404 11.3291C7.24742 11.3336 7.24081 11.3358 7.2364 11.3402C7.22978 11.3446 7.22317 11.3468 7.21876 11.3512C7.21214 11.3556 7.20552 11.3578 7.20111 11.3622C7.1945 11.3666 7.18788 11.3688 7.18347 11.3732C7.17245 11.3799 7.16583 11.3821 7.16142 11.3865C7.1548 11.3909 7.14819 11.3931 7.14378 11.3975C7.13716 11.4019 7.13055 11.4041 7.12614 11.4085C7.11952 11.4129 7.1129 11.4151 7.10849 11.4196C7.10188 11.424 7.09526 11.4262 7.09085 11.4306C7.08424 11.435 7.07762 11.4372 7.07321 11.4416C7.06659 11.446 7.05998 11.4482 7.05557 11.4526C7.04895 11.457 7.04234 11.4593 7.03793 11.4637C7.03131 11.4681 7.02469 11.4703 7.02028 11.4747C7.01367 11.4791 7.00926 11.4813 7.00264 11.4857C6.99603 11.4901 6.98941 11.4923 6.985 11.4967C6.97838 11.5012 6.97177 11.5034 6.96736 11.5078C6.96074 11.5122 6.95413 11.5144 6.94972 11.5188C6.9431 11.5232 6.93648 11.5254 6.93207 11.5298C6.92546 11.5342 6.91884 11.5364 6.91443 11.5408C6.90782 11.5453 6.9012 11.5475 6.89679 11.5519C6.89017 11.5563 6.88356 11.5585 6.87915 11.5629C6.87253 11.5673 6.86592 11.5695 6.86151 11.5739C6.85048 11.5805 6.84386 11.5827 6.83945 11.5872C6.83284 11.5916 6.82622 11.5938 6.82181 11.5982C6.8152 11.6026 6.80858 11.6048 6.80417 11.6092C6.79755 11.6136 6.79094 11.6158 6.78653 11.6202C6.77991 11.6246 6.7733 11.6269 6.76889 11.6313C6.76227 11.6357 6.75565 11.6379 6.75124 11.6423C6.74463 11.6467 6.73801 11.6489 6.7336 11.6533C6.72699 11.6577 6.72037 11.6599 6.71596 11.6643C6.70934 11.6688 6.70493 11.671 6.69832 11.6754C6.6917 11.6798 6.68509 11.682 6.68068 11.6864C6.67406 11.6908 6.66745 11.693 6.66303 11.6974C6.65642 11.7018 6.6498 11.704 6.64539 11.7084C6.63878 11.7129 6.63216 11.7151 6.62775 11.7195C6.62114 11.7239 6.61452 11.7261 6.61011 11.7305C6.60349 11.7349 6.59688 11.7371 6.59247 11.7415C6.58585 11.7459 6.57924 11.7481 6.57483 11.7526C6.56821 11.757 6.56159 11.7592 6.55718 11.7636C6.55057 11.768 6.54395 11.7702 6.53954 11.7746C6.53293 11.779 6.52631 11.7812 6.5219 11.7856C6.51528 11.79 6.50867 11.7922 6.50426 11.7967C6.49764 11.8011 6.49103 11.8033 6.48662 11.8077C6.48 11.8121 6.47338 11.8143 6.46897 11.8187C6.46236 11.8231 6.45574 11.8253 6.45133 11.8297C6.44472 11.8341 6.4381 11.8364 6.43369 11.8408C6.42707 11.8452 6.42046 11.8474 6.41605 11.8518C6.40943 11.8562 6.40282 11.8584 6.39841 11.8628C6.39179 11.8672 6.38517 11.8694 6.38076 11.8738C6.37415 11.8782 6.36753 11.8805 6.36312 11.8849C6.35651 11.8893 6.34989 11.8915 6.34548 11.8959C6.33886 11.9003 6.33225 11.9025 6.32784 11.9069C6.32122 11.9113 6.31461 11.9135 6.3102 11.9179C6.30358 11.9224 6.29696 11.9246 6.29255 11.929C6.28594 11.9334 6.27932 11.9356 6.27491 11.94C6.2683 11.9444 6.26168 11.9466 6.25727 11.951C6.25065 11.9554 6.24624 11.9576 6.23963 11.962C6.23301 11.9665 6.2264 11.9687 6.22199 11.9731C6.21537 11.9775 6.20876 11.9797 6.20434 11.9841C6.19773 11.9885 6.19111 11.9907 6.1867 11.9951C6.18009 11.9995 6.17347 12.0017 6.16906 12.0062C6.16245 12.0106 6.15583 12.0128 6.15142 12.0172C6.1448 12.0216 6.13819 12.0238 6.13378 12.0282C6.12716 12.0326 6.12055 12.0348 6.11614 12.0392C6.10952 12.0436 6.1029 12.0458 6.09849 12.0503C6.09188 12.0547 6.08526 12.0569 6.08085 12.0613C6.07424 12.0657 6.06762 12.0679 6.06321 12.0723C6.05659 12.0767 6.04998 12.0789 6.04557 12.0833C6.03895 12.0877 6.03234 12.09 6.02793 12.0944C6.02131 12.0988 6.01469 12.101 6.01028 12.1054C6.00367 12.1098 5.99705 12.112 5.99264 12.1164C5.98603 12.1208 5.97941 12.123 5.975 12.1274C5.96838 12.1319 5.96177 12.1341 5.95736 12.1385C5.95074 12.1429 5.94633 12.1451 5.93972 12.1495C5.9331 12.1539 5.92648 12.1561 5.92207 12.1605C5.91546 12.1649 5.90884 12.1671 5.90443 12.1715C5.89782 12.176 5.8912 12.1782 5.88679 12.1826C5.88017 12.187 5.87356 12.1892 5.86915 12.1936C5.86253 12.198 5.85592 12.2002 5.85151 12.2046C5.84489 12.209 5.83827 12.2112 5.83386 12.2157C5.82725 12.2201 5.82063 12.2223 5.81622 12.2267C5.80961 12.2311 5.80299 12.2333 5.79858 12.2377C5.79196 12.2421 5.78535 12.2443 5.78094 12.2487C5.77432 12.2531 5.76771 12.2553 5.7633 12.2598C5.75668 12.2642 5.75007 12.2664 5.74565 12.2708C5.73904 12.2752 5.73242 12.2774 5.72801 12.2818C5.7214 12.2862 5.71478 12.2884 5.71037 12.2928C5.70376 12.2972 5.69714 12.2995 5.69273 12.3039C5.68611 12.3083 5.6795 12.3105 5.67509 12.3149C5.66847 12.3193 5.66186 12.3215 5.65745 12.3259C5.65083 12.3303 5.64421 12.3325 5.6398 12.3369C5.63319 12.3414 5.62657 12.3436 5.62216 12.348C5.61555 12.3524 5.60893 12.3546 5.60452 12.359C5.5979 12.3634 5.59129 12.3656 5.58688 12.37C5.58026 12.3744 5.57365 12.3766 5.56924 12.381C5.56262 12.3855 5.556 12.3877 5.55159 12.3921C5.54498 12.3965 5.53836 12.3987 5.53395 12.4031C5.52734 12.4075 5.52072 12.4097 5.51631 12.4141C5.50969 12.4185 5.50308 12.4207 5.49867 12.4251C5.49205 12.4296 5.48764 12.4318 5.48103 12.4362C5.47441 12.4406 5.46779 12.4428 5.46338 12.4472C5.45677 12.4516 5.45015 12.4538 5.44574 12.4582C5.43913 12.4626 5.43251 12.4648 5.4281 12.4693C5.42148 12.4737 5.41487 12.4759 5.41046 12.4803C5.40384 12.4847 5.39723 12.4869 5.39282 12.4913C5.3862 12.4957 5.37958 12.4979 5.37517 12.5023C5.36856 12.5067 5.36194 12.5089 5.35753 12.5134C5.35092 12.5178 5.3443 12.52 5.33989 12.5244C5.33327 12.5288 5.32666 12.531 5.32225 12.5354C5.31563 12.5398 5.30902 12.542 5.30461 12.5464C5.29799 12.5508 5.29138 12.5531 5.28696 12.5575C5.28035 12.5619 5.27373 12.5641 5.26932 12.5685C5.26271 12.5729 5.25609 12.5751 5.25168 12.5795C5.24507 12.5839 5.23845 12.5861 5.23404 12.5905C5.22742 12.595 5.22081 12.5972 5.2164 12.6016C5.20978 12.606 5.20317 12.6082 5.19876 12.6126C5.19214 12.617 5.18773 12.6192 5.18111 12.6236C5.1745 12.628 5.16788 12.6302 5.16347 12.6346C5.15686 12.6391 5.15024 12.6413 5.14583 12.6457C5.13921 12.6501 5.1326 12.6523 5.12819 12.6567C5.12157 12.6611 5.11496 12.6633 5.11055 12.6677C5.10393 12.6721 5.09731 12.6743 5.0929 12.6788C5.08629 12.6832 5.07967 12.6854 5.07526 12.6898C5.06865 12.6942 5.06203 12.6964 5.05762 12.7008C5.051 12.7052 5.04439 12.7074 5.03998 12.7118C5.03336 12.7162 5.02675 12.7184 5.02234 12.7229C5.01572 12.7273 5.0091 12.7295 5.00469 12.7339C4.99808 12.7383 4.99146 12.7405 4.98705 12.7449C4.98044 12.7493 4.97382 12.7515 4.96941 12.7559C4.96279 12.7603 4.95618 12.7626 4.95177 12.767C4.94515 12.7714 4.93854 12.7736 4.93413 12.778C4.92751 12.7824 4.92089 12.7846 4.91648 12.789C4.90987 12.7934 4.90325 12.7956 4.89884 12.8C4.89223 12.8045 4.88561 12.8067 4.8812 12.8111C4.87458 12.8155 4.86797 12.8177 4.86356 12.8221C4.85694 12.8265 4.85033 12.8287 4.84592 12.8331C4.8393 12.8375 4.83268 12.8397 4.82827 12.8441C4.82166 12.8486 4.81504 12.8508 4.81063 12.8552C4.80402 12.8596 4.7974 12.8618 4.79299 12.8662C4.78637 12.8706 4.77976 12.8728 4.77535 12.8772C4.76873 12.8816 4.76212 12.8838 4.75771 12.8883C4.75109 12.8927 4.74447 12.8949 4.74006 12.8993C4.73345 12.9037 4.72904 12.9059 4.72242 12.9103C4.71581 12.9147 4.70919 12.9169 4.70478 12.9213C4.69816 12.9257 4.69155 12.9279 4.68714 12.9324C4.68052 12.9368 4.67391 12.939 4.6695 12.9434C4.66288 12.9478 4.65627 12.95 4.65185 12.9544C4.64524 12.9588 4.63862 12.961 4.63421 12.9654C4.6276 12.9698 4.62098 12.972 4.61657 12.9765C4.60996 12.9809 4.60334 12.9831 4.59893 12.9875C4.59231 12.9919 4.5857 12.9941 4.58129 12.9985C4.57467 13.0029 4.56806 13.0051 4.56365 13.0095C4.55703 13.0139 4.55041 13.0162 4.546 13.0206C4.53939 13.025 4.53277 13.0272 4.52836 13.0316C4.52175 13.036 4.51513 13.0382 4.51072 13.0426C4.5041 13.047 4.49749 13.0492 4.49308 13.0536C4.48646 13.0581 4.47985 13.0603 4.47544 13.0647C4.46882 13.0691 4.4622 13.0713 4.45779 13.0757C4.45118 13.0801 4.44456 13.0823 4.44015 13.0867C4.43354 13.0911 4.42913 13.0933 4.42251 13.0977C4.41589 13.1022 4.40928 13.1044 4.40487 13.1088C4.39825 13.1132 4.39164 13.1154 4.38723 13.1198C4.38061 13.1242 4.37399 13.1264 4.36958 13.1308C4.36297 13.1352 4.35635 13.1374 4.35194 13.1419C4.34533 13.1463 4.33871 13.1485 4.3343 13.1529C4.32768 13.1573 4.32107 13.1595 4.31666 13.1639C4.31004 13.1683 4.30343 13.1705 4.29902 13.1749C4.2924 13.1793 4.28579 13.1815 4.28137 13.186C4.27476 13.1904 4.26814 13.1926 4.26373 13.197C4.25712 13.2014 4.2505 13.2036 4.24609 13.208C4.23948 13.2124 4.23286 13.2146 4.22845 13.219C4.22183 13.2234 4.21522 13.2257 4.21081 13.2301C4.20419 13.2345 4.19758 13.2367 4.19317 13.2411C4.18655 13.2455 4.17993 13.2477 4.17552 13.2521C4.16891 13.2565 4.16229 13.2587 4.15788 13.2631C4.15127 13.2676 4.14465 13.2698 4.14024 13.2742C4.13362 13.2786 4.12701 13.2808 4.1226 13.2852C4.11598 13.2896 4.10937 13.2918 4.10496 13.2962C4.09834 13.3006 4.09172 13.3028 4.08731 13.3072C4.0807 13.3117 4.07408 13.3139 4.06967 13.3183C4.06306 13.3227 4.05644 13.3249 4.05203 13.3293C4.04541 13.3337 4.0388 13.3359 4.03439 13.3403C4.02777 13.3447 4.02116 13.3469 4.01675 13.3514C4.01013 13.3558 4.00351 13.358 3.9991 13.3624C3.99249 13.3668 3.98587 13.369 3.98146 13.3734C3.97485 13.3778 3.97044 13.38 3.96382 13.3844C3.9572 13.3888 3.95059 13.391 3.94618 13.3955C3.93956 13.3999 3.93295 13.4021 3.92854 13.4065C3.92192 13.4109 3.9153 13.4131 3.91089 13.4175C3.90428 13.4219 3.89766 13.4241 3.89325 13.4285C3.88664 13.4329 3.88002 13.4351 3.87561 13.4396C3.86899 13.444 3.86238 13.4462 3.85797 13.4506C3.85135 13.455 3.84474 13.4572 3.84033 13.4616C3.83371 13.466 3.8271 13.4682 3.82268 13.4726C3.81607 13.477 3.80945 13.4793 3.80504 13.4837C3.79843 13.4881 3.79181 13.4903 3.7874 13.4947C3.78079 13.4991 3.77417 13.5013 3.76976 13.5057C3.76314 13.5101 3.75653 13.5123 3.75212 13.5167C3.7455 13.5212 3.73889 13.5234 3.73447 13.5278C3.72786 13.5322 3.72124 13.5344 3.71683 13.5388C3.71022 13.5432 3.7036 13.5454 3.69919 13.5498C3.69258 13.5542 3.68596 13.5564 3.68155 13.5608C3.67493 13.5653 3.67052 13.5675 3.66391 13.5719C3.65729 13.5763 3.65068 13.5785 3.64627 13.5829C3.63965 13.5873 3.63303 13.5895 3.62862 13.5939C3.62201 13.5983 3.61539 13.6005 3.61098 13.605C3.60437 13.6094 3.59775 13.6116 3.59334 13.616C3.58672 13.6204 3.58011 13.6226 3.5757 13.627C3.56908 13.6314 3.56247 13.6336 3.55806 13.638C3.55144 13.6424 3.54482 13.6446 3.54041 13.6491C3.5338 13.6535 3.52718 13.6557 3.52277 13.6601C3.51616 13.6645 3.50954 13.6667 3.50513 13.6711C3.49851 13.6755 3.4919 13.6777 3.48749 13.6821C3.48087 13.6865 3.47426 13.6888 3.46985 13.6932C3.46323 13.6976 3.45661 13.6998 3.4522 13.7042C3.44559 13.7086 3.43897 13.7108 3.43456 13.7152C3.42795 13.7196 3.42133 13.7218 3.41692 13.7262C3.4103 13.7307 3.40369 13.7329 3.39928 13.7373C3.39266 13.7417 3.38605 13.7439 3.38164 13.7483C3.37502 13.7527 3.36841 13.7549 3.36399 13.7593C3.35738 13.7637 3.35076 13.7659 3.34635 13.7703C3.33974 13.7748 3.33312 13.777 3.32871 13.7814C3.3221 13.7858 3.31548 13.788 3.31107 13.7924C3.30445 13.7968 3.29784 13.799 3.29343 13.8034C3.28681 13.8078 3.2802 13.81 3.27578 13.8145C3.26917 13.8189 3.26255 13.8211 3.25814 13.8255C3.25153 13.8299 3.24491 13.8321 3.2405 13.8365C3.23389 13.8409 3.22727 13.8431 3.22286 13.8475C3.21624 13.8519 3.21183 13.8541 3.20522 13.8586C3.1986 13.863 3.19199 13.8652 3.18758 13.8696C3.18096 13.874 3.17434 13.8762 3.16993 13.8806C3.16332 13.885 3.1567 13.8872 3.15229 13.8916C3.14568 13.896 3.13906 13.8983 3.13465 13.9027C3.12803 13.9071 3.12142 13.9093 3.11701 13.9137C3.11039 13.9181 3.10378 13.9203 3.09937 13.9247C3.09275 13.9291 3.08613 13.9313 3.08172 13.9357C3.07511 13.9401 3.06849 13.9424 3.06408 13.9468C3.05747 13.9512 3.05085 13.9534 3.04644 13.9578C3.03982 13.9622 3.03321 13.9644 3.0288 13.9688C3.02218 13.9732 3.01557 13.9754 3.01116 13.9798C3.00454 13.9843 2.99792 13.9865 2.99351 13.9909C2.93838 14.0262 2.93177 14.0284 2.92515 14.0328C2.91854 14.0372 2.91192 14.0394 2.90751 14.0438C2.90089 14.0482 2.89428 14.0504 2.88987 14.0548C2.88325 14.0592 2.87664 14.0614 2.87223 14.0658C2.86561 14.0703 2.8612 14.0725 2.85458 14.0769C2.84797 14.0813 2.84135 14.0835 2.83694 14.0879C2.83033 14.0923 2.82371 14.0945 2.8193 14.0989C2.81268 14.1033 2.80607 14.1055 2.80166 14.11C2.79504 14.1144 2.78843 14.1166 2.78402 14.121C2.7774 14.1254 2.77078 14.1276 2.76637 14.132C2.75976 14.1364 2.75314 14.1386 2.74873 14.143C2.74212 14.1474 2.7355 14.1496 2.73109 14.1541C2.72447 14.1585 2.71786 14.1607 2.71345 14.1651C2.70683 14.1695 2.70022 14.1717 2.69581 14.1761C2.68919 14.1805 2.68257 14.1827 2.67816 14.1871C2.67155 14.1915 2.66493 14.1938 2.66052 14.1982C2.65391 14.2026 2.64729 14.2048 2.64288 14.2092C2.63626 14.2136 2.62965 14.2158 2.62524 14.2202C2.61862 14.2246 2.61201 14.2268 2.6076 14.2312C2.60098 14.2357 2.59437 14.2379 2.58995 14.2423C2.58113 14.2489 2.57452 14.2533 2.5679 14.2577C2.56129 14.2621 2.55467 14.2643 2.55026 14.2687C2.54364 14.2731 2.53703 14.2753 2.53262 14.2798C2.526 14.2842 2.51939 14.2864 2.51498 14.2908C2.50836 14.2952 2.50175 14.2974 2.49733 14.3018C2.49072 14.3062 2.4841 14.3084 2.47969 14.3128C2.47308 14.3172 2.46646 14.3195 2.46205 14.3239C2.45544 14.3283 2.44882 14.3305 2.44441 14.3349C2.43779 14.3393 2.43118 14.3415 2.42677 14.3459C2.42015 14.3503 2.41354 14.3525 2.40913 14.3569C2.40251 14.3614 2.39589 14.3636 2.39148 14.368C2.38487 14.3724 2.37825 14.3746 2.37384 14.379C2.36723 14.3834 2.36061 14.3856 2.3562 14.39C2.34958 14.3944 2.34297 14.3966 2.33856 14.401C2.33194 14.4055 2.32533 14.4077 2.32092 14.4121C2.3143 14.4165 2.30768 14.4187 2.30327 14.4231C2.29666 14.4275 2.29004 14.4297 2.28563 14.4341C2.27902 14.4385 2.2724 14.4407 2.26799 14.4452C2.26137 14.4496 2.25476 14.4518 2.25035 14.4562C2.24373 14.4606 2.23712 14.4628 2.23271 14.4672C2.22388 14.4738 2.21727 14.476 2.21065 14.4804C2.20404 14.4848 2.19742 14.487 2.19301 14.4915C2.1864 14.4959 2.17978 14.4981 2.17537 14.5025C2.16875 14.5069 2.16214 14.5091 2.15773 14.5135C2.15111 14.5179 2.1445 14.5201 2.14009 14.5245C2.13347 14.5289 2.12685 14.5312 2.12244 14.5356C2.11583 14.54 2.10921 14.5422 2.1048 14.5466C2.09819 14.551 2.09378 14.5532 2.08716 14.5576C2.08054 14.562 2.07393 14.5642 2.06952 14.5686C2.0629 14.5731 2.05629 14.5753 2.05188 14.5797C2.04526 14.5841 2.03864 14.5863 2.03423 14.5907C2.02762 14.5951 2.021 14.5973 2.01659 14.6017C2.00998 14.6061 2.00336 14.6083 1.99895 14.6127C1.99233 14.6172 1.98572 14.6194 1.98131 14.6238C1.97469 14.6282 1.96808 14.6304 1.96367 14.6348C1.95705 14.6392 1.95044 14.6414 1.94602 14.6458C1.93941 14.6502 1.93279 14.6524 1.92838 14.6569C1.92177 14.6613 1.91515 14.6635 1.91074 14.6679C1.90412 14.6723 1.89751 14.6745 1.8931 14.6789C1.88648 14.6833 1.87987 14.6855 1.87546 14.6899C1.86884 14.6943 1.86223 14.6965 1.85781 14.701C1.8512 14.7054 1.84458 14.7076 1.84017 14.712C1.83356 14.7164 1.82694 14.7186 1.82253 14.723C1.81592 14.7274 1.8093 14.7296 1.80489 14.734C1.79827 14.7384 1.79166 14.7407 1.78725 14.7451C1.78063 14.7495 1.77402 14.7517 1.76961 14.7561C1.76299 14.7605 1.75637 14.7627 1.75196 14.7671C1.74535 14.7715 1.73873 14.7737 1.73432 14.7781C1.28666 15.1067 1.00659 15.6514 1.00659 16.3306V28.3801C1.00659 29.7231 2.09598 31.0837 3.43897 31.4189L15.4884 34.4224C16.161 34.59 16.7697 34.4687 17.2107 34.1357C17.2173 34.1313 17.2239 34.1291 17.2283 34.1247C17.235 34.1203 17.2416 34.1181 17.246 34.1137C17.2526 34.1093 17.2592 34.1071 17.2636 34.1027C17.2702 34.0983 17.2747 34.0961 17.2813 34.0916C17.2879 34.0872 17.2945 34.085 17.2989 34.0806C17.3055 34.0762 17.3121 34.074 17.3166 34.0696C17.3232 34.0652 17.3298 34.063 17.3342 34.0586C17.3408 34.0542 17.3474 34.0519 17.3518 34.0475C17.3585 34.0431 17.3651 34.0409 17.3695 34.0365C17.3761 34.0321 17.3827 34.0299 17.3871 34.0255C17.3937 34.0211 17.4004 34.0189 17.4048 34.0145C17.4114 34.01 17.418 34.0078 17.4224 34.0034C17.429 33.999 17.4356 33.9968 17.44 33.9924C17.4467 33.988 17.4533 33.9858 17.4577 33.9814C17.4643 33.977 17.4709 33.9748 17.4753 33.9704C17.4819 33.9659 17.4886 33.9637 17.493 33.9593C17.4996 33.9549 17.5062 33.9527 17.5106 33.9483C17.5172 33.9439 17.5238 33.9417 17.5283 33.9373C17.5349 33.9329 17.5415 33.9307 17.5459 33.9262C17.5525 33.9218 17.5591 33.9196 17.5635 33.9152C17.5702 33.9108 17.5768 33.9086 17.5812 33.9042C17.5878 33.8998 17.5944 33.8976 17.5988 33.8932C17.6054 33.8888 17.6121 33.8866 17.6165 33.8821C17.6231 33.8777 17.6297 33.8755 17.6341 33.8711C17.6407 33.8667 17.6473 33.8645 17.6518 33.8601C17.6584 33.8557 17.665 33.8535 17.6694 33.8491C17.676 33.8447 17.6826 33.8425 17.687 33.838C17.6937 33.8336 17.7003 33.8314 17.7047 33.827C17.7113 33.8226 17.7179 33.8204 17.7223 33.816C17.7289 33.8116 17.7333 33.8094 17.74 33.805C17.7466 33.8006 17.7532 33.7983 17.7576 33.7939C17.7642 33.7895 17.7708 33.7873 17.7752 33.7829C17.7819 33.7785 17.7885 33.7763 17.7929 33.7719C17.7995 33.7675 17.8061 33.7653 17.8105 33.7609C17.8171 33.7564 17.8238 33.7542 17.8282 33.7498C17.8348 33.7454 17.8414 33.7432 17.8458 33.7388C17.8524 33.7344 17.859 33.7322 17.8635 33.7278C17.8701 33.7234 17.8767 33.7212 17.8811 33.7168C17.8877 33.7123 17.8943 33.7101 17.8987 33.7057C17.9054 33.7013 17.912 33.6991 17.9164 33.6947C17.923 33.6903 17.9296 33.6881 17.934 33.6837C17.9406 33.6793 17.9473 33.6771 17.9517 33.6726C17.9583 33.6682 17.9649 33.666 17.9693 33.6616C17.9759 33.6572 17.9825 33.655 17.9869 33.6506C17.9936 33.6462 18.0002 33.644 18.0046 33.6396C18.0112 33.6352 18.0178 33.633 18.0222 33.6285C18.0288 33.6241 18.0333 33.6219 18.0399 33.6175C18.0465 33.6131 18.0531 33.6109 18.0575 33.6065C18.0641 33.6021 18.0707 33.5999 18.0752 33.5955C18.0818 33.5911 18.0884 33.5888 18.0928 33.5844C18.0994 33.58 18.106 33.5778 18.1104 33.5734C18.1171 33.569 18.1237 33.5668 18.1281 33.5624C18.1347 33.558 18.1413 33.5558 18.1457 33.5514C18.1523 33.5469 18.159 33.5447 18.1634 33.5403C18.17 33.5359 18.1766 33.5337 18.181 33.5293C18.1876 33.5249 18.1942 33.5227 18.1987 33.5183C18.2053 33.5139 18.2119 33.5117 18.2163 33.5073C18.2229 33.5028 18.2295 33.5006 18.2339 33.4962C18.2406 33.4918 18.2472 33.4896 18.2516 33.4852C18.2582 33.4808 18.2648 33.4786 18.2692 33.4742C18.2758 33.4698 18.2825 33.4676 18.2869 33.4631C18.2935 33.4587 18.3001 33.4565 18.3045 33.4521C18.3111 33.4477 18.3177 33.4455 18.3221 33.4411C18.3288 33.4367 18.3354 33.4345 18.3398 33.4301C18.3464 33.4257 18.353 33.4235 18.3574 33.419C18.364 33.4146 18.3707 33.4124 18.3751 33.408C18.3817 33.4036 18.3883 33.4014 18.3927 33.397C18.3993 33.3926 18.4059 33.3904 18.4104 33.386C18.417 33.3816 18.4236 33.3793 18.428 33.3749C18.4346 33.3705 18.4412 33.3683 18.4456 33.3639C18.4523 33.3595 18.4589 33.3573 18.4633 33.3529C18.4699 33.3485 18.4765 33.3463 18.4809 33.3419C18.4875 33.3374 18.4919 33.3352 18.4986 33.3308C18.5052 33.3264 18.5118 33.3242 18.5162 33.3198C18.5228 33.3154 18.5294 33.3132 18.5338 33.3088C18.5405 33.3044 18.5471 33.3022 18.5515 33.2978C18.5581 33.2933 18.5647 33.2911 18.5691 33.2867C18.5757 33.2823 18.5824 33.2801 18.5868 33.2757C18.5934 33.2713 18.6 33.2691 18.6044 33.2647C18.611 33.2603 18.6176 33.2581 18.6221 33.2537C18.6287 33.2492 18.6353 33.247 18.6397 33.2426C18.6463 33.2382 18.6529 33.236 18.6573 33.2316C18.664 33.2272 18.6706 33.225 18.675 33.2206C18.6816 33.2162 18.6882 33.214 18.6926 33.2095C18.6992 33.2051 18.7059 33.2029 18.7103 33.1985C18.7169 33.1941 18.7235 33.1919 18.7279 33.1875C18.7345 33.1831 18.7411 33.1809 18.7456 33.1765C18.7522 33.1721 18.7588 33.1699 18.7632 33.1654C18.7698 33.161 18.7764 33.1588 18.7808 33.1544C18.7874 33.15 18.7919 33.1478 18.7985 33.1434C18.8051 33.139 18.8117 33.1368 18.8161 33.1324C18.8227 33.128 18.8294 33.1257 18.8338 33.1213C18.8404 33.1169 18.847 33.1147 18.8514 33.1103C18.858 33.1059 18.8646 33.1037 18.869 33.0993C18.8757 33.0949 18.8823 33.0927 18.8867 33.0883C18.8933 33.0838 18.8999 33.0816 18.9043 33.0772C18.9109 33.0728 18.9176 33.0706 18.922 33.0662C18.9286 33.0618 18.9352 33.0596 18.9396 33.0552C18.9462 33.0508 18.9528 33.0486 18.9573 33.0442C18.9639 33.0397 18.9705 33.0375 18.9749 33.0331C18.9815 33.0287 18.9881 33.0265 18.9925 33.0221C18.9992 33.0177 19.0058 33.0155 19.0102 33.0111C19.0168 33.0067 19.0234 33.0045 19.0278 33C19.0344 32.9956 19.0411 32.9934 19.0455 32.989C19.0521 32.9846 19.0587 32.9824 19.0631 32.978C19.0697 32.9736 19.0763 32.9714 19.0807 32.967C19.0874 32.9626 19.094 32.9604 19.0984 32.9559C19.105 32.9515 19.1116 32.9493 19.116 32.9449C19.1226 32.9405 19.1293 32.9383 19.1337 32.9339C19.1403 32.9295 19.1469 32.9273 19.1513 32.9229C19.1579 32.9185 19.1645 32.9162 19.169 32.9118C19.1756 32.9074 19.1822 32.9052 19.1866 32.9008C19.1932 32.8964 19.1998 32.8942 19.2042 32.8898C19.2109 32.8854 19.2175 32.8832 19.2219 32.8788C19.2285 32.8743 19.2351 32.8721 19.2395 32.8677C19.2461 32.8633 19.2528 32.8611 19.2572 32.8567C19.2638 32.8523 19.2704 32.8501 19.2748 32.8457C19.2814 32.8413 19.288 32.8391 19.2924 32.8347C19.2991 32.8302 19.3057 32.828 19.3101 32.8236C19.3167 32.8192 19.3233 32.817 19.3277 32.8126C19.3344 32.8082 19.341 32.806 19.3454 32.8016C19.352 32.7972 19.3586 32.795 19.363 32.7906C19.3696 32.7861 19.3762 32.7839 19.3807 32.7795C19.3873 32.7751 19.3939 32.7729 19.3983 32.7685C19.4049 32.7641 19.4115 32.7619 19.4159 32.7575C19.4226 32.7531 19.4292 32.7509 19.4336 32.7464C19.4402 32.742 19.4468 32.7398 19.4512 32.7354C19.4578 32.731 19.4645 32.7288 19.4689 32.7244C19.4755 32.72 19.4821 32.7178 19.4865 32.7134C19.4931 32.709 19.4997 32.7068 19.5042 32.7023C19.5108 32.6979 19.5174 32.6957 19.5218 32.6913C19.5284 32.6869 19.535 32.6847 19.5394 32.6803C19.5461 32.6759 19.5505 32.6737 19.5571 32.6693C19.5637 32.6649 19.5703 32.6626 19.5747 32.6582C19.5813 32.6538 19.588 32.6516 19.5924 32.6472C19.599 32.6428 19.6056 32.6406 19.61 32.6362C19.6166 32.6318 19.6232 32.6296 19.6276 32.6252C19.6343 32.6207 19.6409 32.6185 19.6453 32.6141C19.6519 32.6097 19.6585 32.6075 19.6629 32.6031C19.6695 32.5987 19.6762 32.5965 19.6806 32.5921C19.6872 32.5877 19.6938 32.5855 19.6982 32.5811C19.7048 32.5766 19.7114 32.5744 19.7159 32.57C19.7225 32.5656 19.7291 32.5634 19.7335 32.559C19.7401 32.5546 19.7467 32.5524 19.7511 32.548C19.7578 32.5436 19.7644 32.5414 19.7688 32.5369C19.7754 32.5325 19.782 32.5303 19.7864 32.5259C19.793 32.5215 19.7997 32.5193 19.8041 32.5149C19.8107 32.5105 19.8173 32.5083 19.8217 32.5039C19.8283 32.4995 19.8349 32.4973 19.8394 32.4928C19.846 32.4884 19.8526 32.4862 19.857 32.4818C19.8636 32.4774 19.8702 32.4752 19.8746 32.4708C19.8812 32.4664 19.8879 32.4642 19.8923 32.4598C19.8989 32.4554 19.9055 32.4531 19.9099 32.4487C19.9165 32.4443 19.9231 32.4421 19.9276 32.4377C19.9342 32.4333 19.9408 32.4311 19.9452 32.4267C19.9518 32.4223 19.9584 32.4201 19.9628 32.4157C19.9695 32.4112 19.9761 32.409 19.9805 32.4046C19.9871 32.4002 19.9937 32.398 19.9981 32.3936C20.0047 32.3892 20.0114 32.387 20.0158 32.3826C20.0224 32.3782 20.029 32.376 20.0334 32.3716C20.04 32.3671 20.0466 32.3649 20.0511 32.3605C20.0577 32.3561 20.0643 32.3539 20.0687 32.3495C20.0753 32.3451 20.0819 32.3429 20.0863 32.3385C20.093 32.3341 20.0996 32.3319 20.104 32.3274C20.1106 32.323 20.1172 32.3208 20.1216 32.3164C20.1282 32.312 20.1349 32.3098 20.1393 32.3054C20.1459 32.301 20.1525 32.2988 20.1569 32.2944C20.1635 32.29 20.1701 32.2878 20.1745 32.2833C20.1812 32.2789 20.1878 32.2767 20.1922 32.2723C20.1988 32.2679 20.2054 32.2657 20.2098 32.2613C20.2164 32.2569 20.2231 32.2547 20.2275 32.2503C20.2341 32.2459 20.2407 32.2437 20.2451 32.2392C20.2517 32.2348 20.2583 32.2326 20.2628 32.2282C20.2694 32.2238 20.276 32.2216 20.2804 32.2172C20.287 32.2128 20.2936 32.2106 20.298 32.2062C20.3047 32.2018 20.3113 32.1995 20.3157 32.1951C20.3223 32.1907 20.3289 32.1885 20.3333 32.1841C20.3399 32.1797 20.3466 32.1775 20.351 32.1731C20.3576 32.1687 20.3642 32.1665 20.3686 32.1621C20.3752 32.1576 20.3818 32.1554 20.3863 32.151C20.3929 32.1466 20.3995 32.1444 20.4039 32.14C20.4105 32.1356 20.4171 32.1334 20.4215 32.129C20.4281 32.1246 20.4348 32.1224 20.4392 32.118C20.4458 32.1135 20.4524 32.1113 20.4568 32.1069C20.4634 32.1025 20.47 32.1003 20.4745 32.0959C20.4811 32.0915 20.4877 32.0893 20.4921 32.0849C20.4987 32.0805 20.5053 32.0783 20.5097 32.0738C20.5164 32.0694 20.523 32.0672 20.5274 32.0628C20.534 32.0584 20.5406 32.0562 20.545 32.0518C20.5516 32.0474 20.5583 32.0452 20.5627 32.0408C20.5693 32.0364 20.5759 32.0342 20.5803 32.0297C20.5869 32.0253 20.5935 32.0231 20.598 32.0187C20.6046 32.0143 20.6112 32.0121 20.6156 32.0077C20.6222 32.0033 20.6288 32.0011 20.6332 31.9967C20.6399 31.9923 20.6465 31.99 20.6509 31.9856C20.6575 31.9812 20.6641 31.979 20.6685 31.9746C20.6751 31.9702 20.6818 31.968 20.6862 31.9636C20.6928 31.9592 20.6994 31.957 20.7038 31.9526C20.7104 31.9481 20.717 31.9459 20.7214 31.9415C20.7281 31.9371 20.7347 31.9349 20.7391 31.9305C20.7457 31.9261 20.7523 31.9239 20.7567 31.9195C20.7633 31.9151 20.77 31.9129 20.7744 31.9085C20.781 31.904 20.7876 31.9018 20.792 31.8974C20.7986 31.893 20.8052 31.8908 20.8097 31.8864C20.8163 31.882 20.8229 31.8798 20.8273 31.8754C20.8339 31.871 20.8405 31.8688 20.8449 31.8643C20.8516 31.8599 20.8582 31.8577 20.8626 31.8533C20.8692 31.8489 20.8758 31.8467 20.8802 31.8423C20.8868 31.8379 20.8935 31.8357 20.8979 31.8313C20.9045 31.8269 20.9111 31.8247 20.9155 31.8202C20.9221 31.8158 20.9287 31.8136 20.9331 31.8092C20.9398 31.8048 20.9464 31.8026 20.9508 31.7982C20.9574 31.7938 20.964 31.7916 20.9684 31.7872C20.9751 31.7828 20.9817 31.7805 20.9861 31.7761C20.9927 31.7717 20.9993 31.7695 21.0037 31.7651C21.0103 31.7607 21.0169 31.7585 21.0214 31.7541C21.028 31.7497 21.0346 31.7475 21.039 31.7431C21.0456 31.7387 21.0522 31.7364 21.0566 31.732C21.0633 31.7276 21.0699 31.7254 21.0743 31.721C21.0809 31.7166 21.0875 31.7144 21.0919 31.71C21.0985 31.7056 21.1052 31.7034 21.1096 31.699C21.1162 31.6945 21.1228 31.6923 21.1272 31.6879C21.1338 31.6835 21.1404 31.6813 21.1449 31.6769C21.1515 31.6725 21.1581 31.6703 21.1625 31.6659C21.1691 31.6615 21.1757 31.6593 21.1801 31.6549C21.1868 31.6504 21.1934 31.6482 21.1978 31.6438C21.2044 31.6394 21.211 31.6372 21.2154 31.6328C21.222 31.6284 21.2287 31.6262 21.2331 31.6218C21.2397 31.6174 21.2463 31.6152 21.2507 31.6107C21.2573 31.6063 21.2639 31.6041 21.2683 31.5997C21.275 31.5953 21.2816 31.5931 21.286 31.5887C21.2926 31.5843 21.2992 31.5821 21.3036 31.5777C21.3102 31.5733 21.3169 31.5711 21.3213 31.5666C21.3279 31.5622 21.3345 31.56 21.3389 31.5556C21.3455 31.5512 21.3521 31.549 21.3566 31.5446C21.3632 31.5402 21.3698 31.538 21.3742 31.5336C21.3808 31.5292 21.3874 31.5269 21.3918 31.5225C21.3985 31.5181 21.4051 31.5159 21.4095 31.5115C21.4161 31.5071 21.4227 31.5049 21.4271 31.5005C21.4337 31.4961 21.4404 31.4939 21.4448 31.4895C21.4514 31.485 21.458 31.4828 21.4624 31.4784C21.469 31.474 21.4756 31.4718 21.4801 31.4674C21.4867 31.463 21.4933 31.4608 21.4977 31.4564C21.5043 31.452 21.5109 31.4498 21.5153 31.4454C21.5219 31.4409 21.5286 31.4387 21.533 31.4343C21.5396 31.4299 21.5462 31.4277 21.5506 31.4233C21.5572 31.4189 21.5638 31.4167 21.5683 31.4123C21.5749 31.4079 21.5815 31.4057 21.5859 31.4012C21.5925 31.3968 21.5991 31.3946 21.6035 31.3902C21.6102 31.3858 21.6168 31.3836 21.6212 31.3792C21.6278 31.3748 21.6344 31.3726 21.6388 31.3682C21.6454 31.3638 21.6521 31.3616 21.6565 31.3571C21.6631 31.3527 21.6697 31.3505 21.6741 31.3461C21.6807 31.3417 21.6873 31.3395 21.6918 31.3351C21.6984 31.3307 21.705 31.3285 21.7094 31.3241C21.716 31.3197 21.7226 31.3174 21.727 31.313C21.7337 31.3086 21.7403 31.3064 21.7447 31.302C21.7513 31.2976 21.7579 31.2954 21.7623 31.291C21.7689 31.2866 21.7756 31.2844 21.78 31.28C21.7866 31.2755 21.7932 31.2733 21.7976 31.2689C21.8042 31.2645 21.8108 31.2623 21.8152 31.2579C21.8219 31.2535 21.8285 31.2513 21.8329 31.2469C21.8395 31.2425 21.8461 31.2403 21.8505 31.2359C21.8571 31.2314 21.8638 31.2292 21.8682 31.2248C21.8748 31.2204 21.8814 31.2182 21.8858 31.2138C21.8924 31.2094 21.899 31.2072 21.9035 31.2028C21.9101 31.1984 21.9167 31.1962 21.9211 31.1918C21.9277 31.1873 21.9343 31.1851 21.9387 31.1807C21.9454 31.1763 21.952 31.1741 21.9564 31.1697C21.963 31.1653 21.9696 31.1631 21.974 31.1587C21.9806 31.1543 21.9873 31.1521 21.9917 31.1476C21.9983 31.1432 22.0049 31.141 22.0093 31.1366C22.0159 31.1322 22.0225 31.13 22.0269 31.1256C22.0336 31.1212 22.0402 31.119 22.0446 31.1146C22.0512 31.1102 22.0578 31.108 22.0622 31.1035C22.0688 31.0991 22.0755 31.0969 22.0799 31.0925C22.0865 31.0881 22.0931 31.0859 22.0975 31.0815C22.1041 31.0771 22.1085 31.0749 22.1152 31.0705C22.1218 31.0661 22.1284 31.0638 22.1328 31.0594C22.1394 31.055 22.146 31.0528 22.1504 31.0484C22.1571 31.044 22.1637 31.0418 22.1681 31.0374C22.1747 31.033 22.1813 31.0308 22.1857 31.0264C22.1923 31.0219 22.199 31.0197 22.2034 31.0153C22.21 31.0109 22.2166 31.0087 22.221 31.0043C22.2276 30.9999 22.2342 30.9977 22.2387 30.9933C22.2453 30.9889 22.2519 30.9867 22.2563 30.9823C22.2629 30.9778 22.2695 30.9756 22.2739 30.9712C22.2806 30.9668 22.2872 30.9646 22.2916 30.9602C22.2982 30.9558 22.3048 30.9536 22.3092 30.9492C22.3158 30.9448 22.3225 30.9426 22.3269 30.9381C22.3335 30.9337 22.3401 30.9315 22.3445 30.9271C22.3511 30.9227 22.3577 30.9205 22.3621 30.9161C22.3688 30.9117 22.3754 30.9095 22.3798 30.9051C22.3864 30.9007 22.393 30.8985 22.3974 30.894C22.404 30.8896 22.4107 30.8874 22.4151 30.883C22.4217 30.8786 22.4283 30.8764 22.4327 30.872C22.4393 30.8676 22.4459 30.8654 22.4504 30.861C22.457 30.8566 22.4636 30.8543 22.468 30.8499C22.4746 30.8455 22.4812 30.8433 22.4856 30.8389C22.4923 30.8345 22.4989 30.8323 22.5033 30.8279C22.5099 30.8235 22.5165 30.8213 22.5209 30.8169C22.5275 30.8124 22.5342 30.8102 22.5386 30.8058C22.5452 30.8014 22.5518 30.7992 22.5562 30.7948C22.5628 30.7904 22.5694 30.7882 22.5738 30.7838C22.5805 30.7794 22.5871 30.7772 22.5915 30.7728C22.5981 30.7683 22.6047 30.7661 22.6091 30.7617C22.6157 30.7573 22.6224 30.7551 22.6268 30.7507C22.6334 30.7463 22.64 30.7441 22.6444 30.7397C22.651 30.7353 22.6576 30.7331 22.6621 30.7287C22.6687 30.7242 22.6753 30.722 22.6797 30.7176C22.6863 30.7132 22.6929 30.711 22.6973 30.7066C22.704 30.7022 22.7106 30.7 22.715 30.6956C22.7216 30.6912 22.7282 30.689 22.7326 30.6845C22.7392 30.6801 22.7459 30.6779 22.7503 30.6735C22.7569 30.6691 22.7635 30.6669 22.7679 30.6625C22.7745 30.6581 22.7811 30.6559 22.7856 30.6515C22.7922 30.6471 22.7988 30.6449 22.8032 30.6404C22.8098 30.636 22.8164 30.6338 22.8208 30.6294C22.8275 30.625 22.8341 30.6228 22.8385 30.6184C22.8451 30.614 22.8517 30.6118 22.8561 30.6074C22.8627 30.603 22.8694 30.6007 22.8738 30.5963C22.8804 30.5919 22.887 30.5897 22.8914 30.5853C22.898 30.5809 22.9046 30.5787 22.909 30.5743C22.9157 30.5699 22.9223 30.5677 22.9267 30.5633C22.9333 30.5588 22.9399 30.5566 22.9443 30.5522C22.9509 30.5478 22.9576 30.5456 22.962 30.5412C22.9686 30.5368 22.9752 30.5346 22.9796 30.5302C22.9862 30.5258 22.9928 30.5236 22.9973 30.5192C23.0039 30.5147 23.0105 30.5125 23.0149 30.5081C23.0215 30.5037 23.0281 30.5015 23.0325 30.4971C23.0392 30.4927 23.0458 30.4905 23.0502 30.4861C23.0568 30.4817 23.0634 30.4795 23.0678 30.475C23.0744 30.4706 23.0811 30.4684 23.0855 30.464C23.0921 30.4596 23.0987 30.4574 23.1031 30.453C23.1097 30.4486 23.1163 30.4464 23.1207 30.442C23.1274 30.4376 23.134 30.4354 23.1384 30.4309C23.145 30.4265 23.1516 30.4243 23.156 30.4199C23.1626 30.4155 23.1671 30.4133 23.1737 30.4089C23.1803 30.4045 23.1869 30.4023 23.1913 30.3979C23.1979 30.3935 23.2045 30.3912 23.209 30.3868C23.2156 30.3824 23.2222 30.3802 23.2266 30.3758C23.2332 30.3714 23.2398 30.3692 23.2442 30.3648C23.2509 30.3604 23.2575 30.3582 23.2619 30.3538C23.2685 30.3493 23.2751 30.3471 23.2795 30.3427C23.2861 30.3383 23.2928 30.3361 23.2972 30.3317C23.3038 30.3273 23.3104 30.3251 23.3148 30.3207C23.3214 30.3163 23.328 30.3141 23.3325 30.3097C23.3391 30.3052 23.3457 30.303 23.3501 30.2986C23.3567 30.2942 23.3633 30.292 23.3677 30.2876C23.3744 30.2832 23.381 30.281 23.3854 30.2766C23.392 30.2722 23.3986 30.27 23.403 30.2655C23.4096 30.2611 23.4163 30.2589 23.4207 30.2545C23.4273 30.2501 23.4339 30.2479 23.4383 30.2435C23.4449 30.2391 23.4515 30.2369 23.4559 30.2325C23.4626 30.2281 23.4692 30.2259 23.4736 30.2214C23.4802 30.217 23.4868 30.2148 23.4912 30.2104C23.4978 30.206 23.5045 30.2038 23.5089 30.1994C23.5155 30.195 23.5221 30.1928 23.5265 30.1884C23.5331 30.184 23.5397 30.1818 23.5442 30.1773C23.5508 30.1729 23.5574 30.1707 23.5618 30.1663C23.5684 30.1619 23.575 30.1597 23.5794 30.1553C23.5861 30.1509 23.5927 30.1487 23.5971 30.1443C23.6037 30.1399 23.6103 30.1376 23.6147 30.1332C23.6213 30.1288 23.628 30.1266 23.6324 30.1222C23.639 30.1178 23.6456 30.1156 23.65 30.1112C23.6566 30.1068 23.6632 30.1046 23.6676 30.1002C23.6743 30.0957 23.6809 30.0935 23.6853 30.0891C23.6919 30.0847 23.6985 30.0825 23.7029 30.0781C23.7095 30.0737 23.7162 30.0715 23.7206 30.0671C23.7272 30.0627 23.7338 30.0605 23.7382 30.0561C23.7448 30.0516 23.7514 30.0494 23.7559 30.045C23.7625 30.0406 23.7691 30.0384 23.7735 30.034C23.7801 30.0296 23.7867 30.0274 23.7911 30.023C23.7978 30.0186 23.8044 30.0164 23.8088 30.0119C23.8154 30.0075 23.822 30.0053 23.8264 30.0009C23.833 29.9965 23.8397 29.9943 23.8441 29.9899C23.8507 29.9855 23.8573 29.9833 23.8617 29.9789C23.8683 29.9745 23.8749 29.9723 23.8794 29.9678C23.886 29.9634 23.8926 29.9612 23.897 29.9568C23.9036 29.9524 23.9102 29.9502 23.9146 29.9458C23.9213 29.9414 23.9257 29.9392 23.9323 29.9348C23.9389 29.9304 23.9455 29.9281 23.9499 29.9237C23.9565 29.9193 23.9632 29.9171 23.9676 29.9127C23.9742 29.9083 23.9808 29.9061 23.9852 29.9017C23.9918 29.8973 23.9984 29.8951 24.0028 29.8907C24.0095 29.8862 24.0161 29.884 24.0205 29.8796C24.0271 29.8752 24.0337 29.873 24.0381 29.8686C24.0447 29.8642 24.0514 29.862 24.0558 29.8576C24.0624 29.8532 24.069 29.851 24.0734 29.8466C24.08 29.8421 24.0866 29.8399 24.0911 29.8355C24.0977 29.8311 24.1043 29.8289 24.1087 29.8245C24.1153 29.8201 24.1219 29.8179 24.1263 29.8135C24.133 29.8091 24.1396 29.8069 24.144 29.8024C24.1506 29.798 24.1572 29.7958 24.1616 29.7914C24.1682 29.787 24.1749 29.7848 24.1793 29.7804C24.1859 29.776 24.1925 29.7738 24.1969 29.7694C24.2035 29.765 24.2101 29.7628 24.2145 29.7583C24.2212 29.7539 24.2278 29.7517 24.2322 29.7473C24.2388 29.7429 24.2454 29.7407 24.2498 29.7363C24.2564 29.7319 24.2631 29.7297 24.2675 29.7253C24.7151 29.3967 24.9952 28.852 24.9952 28.175V16.0704C25.0812 14.7274 23.9918 13.3668 22.6488 13.0316Z" stroke="black" stroke-miterlimit="10" stroke-linecap="round" stroke-linejoin="round"/>
<path d="M15.4818 34.4245L3.43238 31.421C2.08939 31.0858 1 29.7251 1 28.3821V16.3327C1 14.9897 2.08939 14.1716 3.43238 14.5068L15.4818 17.5103C16.8248 17.8455 17.9142 19.2061 17.9142 20.5491V32.5986C17.9142 33.9415 16.8248 34.7597 15.4818 34.4245Z" fill="white" stroke="black" stroke-miterlimit="10" stroke-linecap="round" stroke-linejoin="round"/>
<path d="M3.52295 22.9859C3.52295 21.1886 4.74465 20.2647 6.45813 20.6903C7.72173 21.0056 8.69865 21.9186 9.07575 23.2064L8.03046 23.3299C7.77024 22.5206 7.21011 21.9208 6.45813 21.7333C5.44592 21.4819 4.71819 22.0443 4.71819 23.2814C4.71819 24.5186 5.44592 25.4448 6.45813 25.6962C7.21011 25.8836 7.77024 25.5638 8.03046 24.8846L9.07575 25.5308C8.69865 26.6334 7.72173 27.0568 6.45813 26.7436C4.74465 26.318 3.52295 24.7832 3.52295 22.9859Z" fill="black"/>
<path d="M15.3912 23.0191V28.8718L14.2467 28.5851V24.5561L12.6413 26.3556L12.4494 26.3071L10.8264 23.7027V27.7317L9.68848 27.4472V21.5967L10.7668 21.8657L12.5553 24.77L14.3107 22.75L15.3912 23.0191Z" fill="black"/>
<path d="M25.5 15C29.6421 15 33 11.6421 33 7.5C33 3.35786 29.6421 0 25.5 0C21.3579 0 18 3.35786 18 7.5C18 11.6421 21.3579 15 25.5 15Z" fill="#2F5ACF"/>
<path d="M23.9624 9.03731C23.1901 8.26505 22.5617 7.34263 22.2399 6.43246C21.7832 5.14229 21.9304 3.87971 23.1012 3.05841C23.1962 2.97567 23.3372 2.9818 23.4261 3.07067L25.3355 4.97987C25.4275 5.07181 25.4275 5.22503 25.3355 5.31697L24.4835 6.16891C24.5785 6.85843 26.1416 8.42134 26.8312 8.51634L27.6833 7.6644C27.7752 7.57247 27.9285 7.57247 28.0204 7.6644L29.9299 9.57361C30.0096 9.65328 30.0249 9.77893 29.9575 9.87699C29.1361 11.0691 27.8641 11.2193 26.5676 10.7596C25.6573 10.4378 24.7348 9.80957 23.9624 9.03731Z" fill="white"/>
</svg>
