<svg width="25" height="34" fill="none" xmlns="http://www.w3.org/2000/svg"><path d="M17.5 15a7.5 7.5 0 1 0 0-15 7.5 7.5 0 0 0 0 15Z" fill="#2F5ACF"/><path d="m14 7.209 2.656 2.656M20.521 6l-3.865 3.865" stroke="#fff" stroke-miterlimit="10" stroke-linecap="round" stroke-linejoin="round"/><path d="m20.599 28.444-4.27-5.626c-.209-.276-.546-.364-.757-.2l-1.907 1.51c-1.432-.587-4.552-4.604-5.158-6.518l.002-.003s0-.002.003-.002l.002-.003.003-.003.002-.003s0-.002.003-.002l.002-.003s0-.002.003-.002l.002-.003s0-.003.003-.003l.002-.002.003-.003.002-.003s0-.002.003-.002l.002-.003s0-.003.003-.003l.002-.002.003-.003.002-.003s0-.002.003-.002l.002-.003s0-.003.003-.003l.003-.002s0-.003.002-.003l.003-.002.002-.003.003-.003s0-.003.002-.003l.003-.002s0-.003.002-.003l.003-.002.002-.003.003-.003s0-.002.002-.002l.003-.003s0-.003.002-.003l.003-.002s0-.003.002-.003l.003-.003.002-.002.003-.003s0-.003.002-.003l.003-.002s0-.003.002-.003l.003-.002.002-.003.003-.003s0-.002.002-.002l.003-.003s0-.003.002-.003l.003-.003s0-.002.002-.002l.003-.003.002-.002.003-.003s0-.003.003-.003l.002-.002s0-.003.003-.003l.002-.003s0-.002.003-.002l.002-.003.003-.003.002-.002s0-.003.003-.003l.002-.003s0-.002.003-.002l.002-.003.003-.002.002-.003s0-.003.003-.003l.002-.002s0-.003.003-.003l.002-.003s0-.002.003-.002l-.013.015.003-.002.002-.003s0-.002.003-.002l.002-.003s0-.003.003-.003l.002-.002.003-.003.002-.003s0-.002.003-.002l.002-.003s0-.003.003-.003l.002-.002s0-.003.003-.003l.002-.003.003-.002.002-.003s0-.003.003-.003l.003-.002s0-.003.002-.003l.003-.003s0-.002.002-.002l.003-.003.002-.002.003-.003s0-.003.002-.003l.003-.003s0-.002.002-.002l.003-.003.002-.002.003-.003s0-.003.002-.003l-.005.006s0-.003.003-.003l.002-.003s0-.002.003-.002l.002-.003.003-.003.002-.002s0-.003.003-.003l.002-.003s0-.002.003-.002l.002-.003.003-.003.002-.002s0-.003.003-.003l.002-.003s0-.002.003-.002l.002-.003s0-.002.003-.002l.003-.003.002-.003.003-.003s0-.002.002-.002l.003-.003s0-.002.002-.002l.003-.003.002-.003.003-.002s0-.003.002-.003l.003-.003s0-.002.002-.002l.003-.003s0-.003.002-.003l.003-.002.002-.003.003-.003s0-.002.002-.002l.003-.003s0-.003.002-.003l.003-.002s0-.003.002-.003l.003-.002.002-.003.003-.003s0-.002.002-.002l.003-.003s0-.003.002-.003l.003-.002.002-.003.003-.003s0-.002.002-.002l.003-.003s0-.003.003-.003l.002-.002s0-.003.003-.003l.002-.003.003-.002.002-.003s0-.003.003-.003l.002-.002s0-.003.003-.003l.002-.003.003-.002.002-.003s0-.002.003-.002l.002-.003s0-.003.003-.003l.002-.002s0-.003.003-.003l.002-.003.003-.002.002-.003s0-.003.003-.003l.002-.002s0-.003.003-.003l.002-.003s0-.002.003-.002l.002-.003.003-.003.002-.002s0-.003.003-.003l.002-.003s0-.002.003-.002l.003-.003.002-.003.003-.002s0-.003.002-.003l.003-.002s0-.003.002-.003l.003-.003s0-.002.002-.002l.003-.003.002-.003.003-.002s0-.003.002-.003l.003-.003s0-.002.002-.002l.003-.003.002-.003.003-.002s0-.003.002-.003l.003-.003s0-.002.002-.002l.003-.003s0-.003.002-.003l.003-.002.002-.003.003-.003s0-.002.002-.002l.003-.003s0-.002.002-.002l-.02.023.003-.002.002-.003s0-.003.003-.003l.002-.002s0-.003.003-.003l.002-.003s0-.002.003-.002l.002-.003.003-.002.002-.003s0-.003.003-.003l.003-.002s0-.003.002-.003l.003-.003s0-.002.002-.002l.003-.003.002-.003.003-.002s0-.003.002-.003l.003-.003s0-.002.002-.002l.003-.003.002-.003.003-.002s0-.003.002-.003l.003-.003s0-.002.002-.002l.003-.003s0-.003.002-.003l.003-.002.002-.003.003-.002s0-.003.002-.003l.003-.003s0-.002.002-.002l.003-.003.002-.003.003-.002s0-.003.002-.003l.003-.003s0-.002.002-.002l.003-.003s0-.003.003-.003l.002-.002.003-.003.002-.003s0-.002.003-.002l.002-.003s0-.003.003-.003l.002-.002s0-.003.003-.003l.002-.003.003-.002.002-.003s0-.002.003-.002l.002-.003s0-.003.003-.003l.002-.002.003-.003.002-.003s0-.002.003-.002l.002-.003s0-.003.003-.003l.002-.002s0-.003.003-.003l.002-.003.003-.002.002-.003s0-.003.003-.003l.002-.002s0-.003.003-.003l.002-.003.003-.002.003-.003s0-.002.002-.002l-.013.013s0-.003.003-.003l.002-.003s0-.002.003-.002l.003-.003.002-.002.003-.003s0-.003.002-.003l.003-.002s0-.003.002-.003l.003-.003.002-.002.003-.003s0-.003.002-.003l.003-.002s0-.003.002-.003l.003-.003s0-.002.002-.002l.003-.003.002-.003.003-.002s0-.003.002-.003l.003-.003s0-.002.002-.002l.003-.003s0-.003.002-.003l.003-.002.002-.003.003-.002s0-.003.002-.003l.003-.003s0-.002.002-.002l.003-.003.002-.003.003-.002s0-.003.003-.003l.002-.003s0-.002.003-.002l.002-.003s0-.003.003-.003l.002-.002.003-.003.002-.003s0-.002.003-.002l.002-.003s0-.003.003-.003l.002-.002.003-.003.002-.003s0-.002.003-.002l.002-.003s0-.002.003-.002l.002-.003s0-.003.003-.003l.002-.002.003-.003.002-.003s0-.002.003-.002l.002-.003s0-.003.003-.003l.002-.002.003-.003.002-.003s0-.002.003-.002l.002-.003s0-.003.003-.003l.003-.002s0-.003.002-.003l.003-.003.002-.002.003-.003s0-.003.002-.003l.003-.002s0-.003.002-.003l.003-.002s0-.003.002-.003l.003-.003.002-.002.003-.003s0-.003.002-.003l.003-.002s0-.003.002-.003l.003-.003.002-.002.003-.003s0-.003.002-.003l.003-.002s0-.003.002-.003l.003-.003s0-.002.002-.002l.003-.003.002-.003.003-.002s0-.003.002-.003l.003-.003s0-.002.002-.002l.003-.003.003-.002.002-.003s0-.003.003-.003l.002-.002s0-.003.003-.003l.002-.003s0-.002.003-.002l.002-.003.003-.003.002-.002s0-.003.003-.003l.002-.003s0-.002.003-.002l-.023.021s0-.003.003-.003l.002-.002.003-.003.002-.003s0-.002.003-.002l.002-.003s0-.003.003-.003l.002-.002.003-.003.002-.002s0-.003.003-.003l.002-.003s0-.003.003-.003l.002-.002s0-.003.003-.003l.002-.002.003-.003.002-.003s0-.002.003-.002l.002-.003s0-.003.003-.003l.002-.002.003-.003.002-.003s0-.002.003-.002l.002-.003s0-.003.003-.003l.002-.002s0-.003.003-.003l.003-.003.002-.002-.005.005s0-.003.003-.003l.002-.002s0-.003.003-.003l.002-.002.003-.003.002-.003s0-.003.003-.003l.002-.002s0-.003.003-.003l.002-.002s0-.003.003-.003l.002-.003.003-.002.002-.003s0-.003.003-.003l.002-.002s0-.003.003-.003l.002-.003s0-.002.003-.002l.002-.003.003-.003.002-.002s0-.003.003-.003l.002-.003s0-.002.003-.002l.002-.003.003-.003.002-.002s0-.003.003-.003l.003-.003s0-.002.002-.002l.003-.003s0-.002.002-.002l.003-.003.002-.003.003-.002s0-.003.002-.003l.003-.003s0-.002.002-.002l.003-.003.002-.003.003-.002s0-.003.002-.003l.003-.003s0-.002.002-.002l.003-.003s0-.002.002-.002l.003-.003.002-.003.003-.003s0-.002.002-.002l.003-.003s0-.003.002-.003l.003-.002s0-.003.002-.003l.003-.002.002-.003.003-.003s0-.002.002-.002l.003-.003s0-.003.002-.003l.003-.002.003-.003.002-.003s0-.002.003-.002l.002-.003s0-.003.003-.003l.002-.002s0-.003.003-.003l.002-.002.003-.003.002-.003s0-.003.003-.003l.002-.002s0-.003.003-.003l.002-.002.003-.003.002-.003s0-.002.003-.002l.002-.003s0-.003.003-.003l.002-.002s0-.003.003-.003l.002-.003.003-.002.002-.003s0-.003.003-.003l.002-.002s0-.003.003-.003l.002-.003.003-.002.002-.003s0-.002.003-.002l.003-.003s0-.003.002-.003l.003-.003s0-.002.002-.002l.003-.003.002-.002.003-.003s0-.003.002-.003l.003-.002s0-.003.002-.003l.003-.003s0-.002.002-.002l.003-.003.002-.003.003-.002s0-.003.002-.003l-.02.024s0-.003.003-.003l.002-.002.003-.003.002-.003s0-.002.003-.002l.002-.003s0-.003.003-.003l.002-.002s0-.003.003-.003l.002-.003.003-.002.002-.003s0-.003.003-.003l.002-.002s0-.003.003-.003l.002-.002.003-.003.002-.003s0-.003.003-.003l.002-.002s0-.003.003-.003l.002-.002s0-.003.003-.003l.003-.003.002-.002.003-.003s0-.003.002-.003l.003-.002s0-.003.002-.003l.003-.003s0-.002.002-.002l.003-.003.002-.003.003-.002s0-.003.002-.003l.003-.003s0-.002.002-.002l.003-.003.002-.002.003-.003s0-.003.002-.003l.003-.003s0-.002.002-.002l.003-.003s0-.002.002-.002l.003-.003.002-.003.003-.002s0-.003.002-.003l.003-.003s0-.002.002-.002l.003-.003.002-.003.003-.002s0-.003.003-.003l.002-.003s0-.002.003-.002l.002-.003s0-.003.003-.003l.002-.002.003-.003.002-.002s0-.003.003-.003l.002-.003s0-.002.003-.002l.002-.003.003-.003.002-.002s0-.003.003-.003l.002-.003s0-.002.003-.002l.002-.003s0-.003.003-.003l.002-.002.003-.003-.013.013s0-.002.003-.002l.002-.003s0-.003.003-.003l.002-.002s0-.003.003-.003l.002-.003.003-.002.002-.003s0-.003.003-.003l.002-.002s0-.003.003-.003l.002-.003.003-.002.002-.003s0-.002.003-.002l.003-.003s0-.003.002-.003l.003-.002s0-.003.002-.003l.003-.003.002-.002.003-.003s0-.003.002-.003l.003-.002s0-.003.002-.003l.003-.003.002-.002.003-.003s0-.003.002-.003l.003-.002s0-.003.002-.003l.003-.003s0-.002.002-.002l.003-.003.002-.002.003-.003s0-.003.002-.003l.003-.002s0-.003.002-.003L10.04 16s0-.002.002-.002l.003-.003.002-.003.003-.002s0-.003.003-.003l.002-.003s0-.002.002-.002l.003-.003.003-.003.002-.002s0-.003.003-.003l.002-.003s0-.002.003-.002l.002-.003s0-.002.003-.002l.002-.003.003-.003.002-.002s0-.003.003-.003l.002-.003s0-.002.003-.002l.002-.003.003-.003.002-.002s0-.003.003-.003l.002-.003s0-.002.003-.002l.002-.003s0-.003.003-.003l.002-.002.003-.003.002-.003s0-.002.003-.002l.002-.003s0-.003.003-.003l.002-.002.003-.003.002-.002s0-.003.003-.003l.002-.003s0-.002.003-.002l.003-.003s0-.003.002-.003l.003-.002.002-.003.003-.003s0-.002.002-.002l.003-.003s0-.003.002-.003l.003-.002s0-.003.002-.003l.003-.003.002-.002.003-.003s0-.003.002-.003l.003-.002s0-.003.002-.003l.003-.003.002-.002.003-.003s0-.002.002-.002l.003-.003s0-.003.002-.003l.003-.002s0-.003.002-.003l.003-.003.002-.002.003-.003s0-.003.002-.003l-.022.021s0-.002.002-.002l.003-.003.002-.002.003-.003s0-.003.002-.003l.003-.002s0-.003.002-.003l.003-.003s0-.002.002-.002l.003-.003.002-.003.003-.002s0-.003.003-.003l.002-.003s0-.002.003-.002l.002-.003s0-.003.003-.003l.002-.002.003-.003.002-.002s0-.003.003-.003l.002-.003s0-.002.003-.002l.002-.003.003-.003.002-.002s0-.003.003-.003l.002-.003s0-.002.003-.002l.002-.003s0-.003.003-.003l-.005.006.002-.003.003-.003s0-.002.002-.002l.003-.003s0-.003.002-.003l.003-.002.002-.003.003-.003s0-.002.003-.002l.002-.003s0-.003.002-.003l.003-.002s0-.003.003-.003l.002-.002.003-.003.002-.003s0-.002.003-.002l.002-.003s0-.003.003-.003l.002-.002.003-.003.002-.003s0-.002.003-.002l.002-.003c.209-.165.209-.522 0-.798L6.046 9.28c-.199-.263-.518-.355-.73-.217a4.326 4.326 0 0 0-1.243.87l-.005.005-.005.005-.005.005-.005.005-.005.006-.005.005-.005.005-.005.006-.005.005-.005.005-.005.006-.005.005-.005.005-.005.005-.005.006-.005.005-.005.005-.005.006-.005.005-.005.005-.005.006-.005.005-.005.005-.005.006-.005.005-.005.005-.005.005-.006.006-.005.005-.005.005-.005.006-.005.005-.005.005-.005.006-.005.005-.005.005-.005.005c.015-.015.015-.013.013-.01l-.005.005-.005.005-.005.006-.005.005-.005.005-.005.006-.005.005-.005.005-.006.006-.005.005-.005.005-.005.005-.005.006-.005.005-.005.005c.005-.005.003-.005.003-.002l-.005.005-.005.005-.005.006-.005.005-.005.005-.005.006-.005.005-.005.005-.005.005-.006.006-.005.005-.005.005-.005.006-.005.005-.005.005-.005.006-.005.005-.005.005-.005.006-.005.005-.005.005-.005.005-.005.006-.005.005-.005.005-.005.006-.005.005-.005.005-.005.006-.005.005-.005.005-.005.006-.005.005-.005.005-.005.005-.005.006-.005.005-.005.005c.015-.016.012-.013.01-.013l-.005.005-.005.006-.005.005-.005.005-.006.006-.005.005-.005.005-.005.006-.005.005-.005.005-.005.005-.005.006-.005.005-.005.005c.005-.002.005-.002.003 0-.003 0-.003.003-.005.003l-.005.005-.005.006-.005.005-.005.005-.005.006-.006.005-.005.005-.005.005-.005.006-.005.005-.005.005-.005.006-.005.005-.005.005-.005.005-.005.006-.005.005-.005.005-.005.006-.005.005-.005.005-.005.006-.005.005-.005.005-.005.006-.005.005-.005.005-.005.005-.005.006-.005.005-.005.005-.005.006-.005.005-.005.005-.005.006-.005.005-.006.005-.005.005c.016-.013.013-.013.013-.01-.002 0-.002.003-.005.005-.002 0-.002.003-.005.005l-.005.006-.003.002c-.002.003-.005.003-.005.006-.002.002-.005.002-.005.005l-.005.005c-.002 0-.002.003-.005.006 0 0-.002.002-.005.002 0 .003-.002.006-.005.006 0 .002-.002.002-.002.005l-.005.005c-.003 0-.003.003-.005.005-.003 0-.003.003-.005.006l-.005.002c0 .003-.003.006-.003.006-.002.002-.005.002-.005.005l-.005.005c-.002 0-.002.003-.005.006-.003 0-.003.002-.005.005 0 0-.003.003-.005.003 0 .002-.003.005-.003.005-.002.003-.005.003-.005.005-.002.003-.005.003-.005.005-.002 0-.002.003-.005.006 0 0-.002.003-.005.003 0 .002-.002.005-.005.005l-.002.005c-.003.003-.005.003-.005.005l-.005.006c-.003 0-.003.002-.005.005-.003 0-.003.003-.005.005l-.003.003-.005.005c-.002.003-.005.003-.005.006l-.005.005c-.003 0-.003.002-.005.005 0 0-.003.003-.005.003 0 .002-.003.005-.005.005 0 .003-.003.003-.003.005-.002.003-.005.003-.005.006 0 .002-.002.002-.005.005-.002 0-.002.003-.005.003 0 .002-.002.005-.005.005 0 .003-.002.005-.002.005l-.005.006-.005.005c-.003 0-.003.003-.005.005-.003 0-.003.003-.005.005 0 0-.003.003-.005.003 0 .003-.003.005-.003.005-.002.003-.005.003-.005.006-.002.002-.005.002-.005.005l-.005.005c-.003 0-.003.003-.005.006l-.005.002c0 .003-.003.006-.005.006 0 .002-.003.002-.003.005l-.005.005c-.002 0-.002.003-.005.006-.002 0-.002.002-.005.002 0 .003-.002.005-.005.005l-.002.006c-.003.002-.005.002-.005.005l-.005.005c-.003 0-.003.003-.005.006-.003 0-.003.002-.005.005l-.003.003a.446.446 0 0 0-.005.005c-.002.003-.005.003-.005.005-.003.003-.005.003-.005.006-.003 0-.003.002-.005.005l-.005.002c0 .003-.003.006-.005.006 0 .002-.003.005-.003.005-.002.003-.005.003-.005.005l-.005.006-.005.005c-.002 0-.002.003-.005.003 0 .002-.002.005-.005.005 0 .003-.002.005-.002.005-.003.003-.005.003-.005.006l-.005.005c-.003 0-.003.003-.005.005l-.005.005-.003.003c-.002.003-.005.003-.005.005-.003.003-.005.003-.005.006l-.005.005c-.003 0-.003.003-.005.003 0 .002-.003.005-.005.005 0 .003-.003.005-.003.005-.002.003-.005.003-.005.006-.002.002-.005.002-.005.005-.002 0-.002.003-.005.005-.002 0-.002.003-.005.006 0 0-.002.002-.005.002 0 .003-.002.005-.002.005-.003.003-.005.003-.005.006-.003.002-.005.002-.005.005l-.005.005c-.003 0-.003.003-.005.006l-.005.002c0 .003-.003.006-.003.006-.003.002-.005.002-.005.005l-.005.005c-.003 0-.003.003-.005.006-.003 0-.003.002-.005.002 0 .003-.003.006-.005.006-.003 0-.003.005-.005.005 0 .002-.003.002-.003.005l-.005.005c-.002 0-.002.003-.005.006-.002 0-.002.002-.005.005l-.002.003-.005.005c-.003.003-.005.003-.005.005-.003.003-.005.003-.005.006-.003 0-.003.002-.005.005 0 0-.003.003-.005.003 0 .002-.003.005-.006.005 0 .003-.002.003-.002.005-.003.003-.005.003-.005.005l-.005.006c-.003 0-.003.003-.005.005-.003 0-.003.003-.005.003 0 .002-.003.005-.005.005 0 .003-.003.005-.003.005-.002.003-.005.003-.005.006-.002 0-.002.002-.005.005-.002 0-.002.003-.005.005l-.005.006-.002.002c-.003.003-.005.003-.005.006-.003.002-.005.002-.005.005l-.005.005c-.003 0-.003.003-.005.005 0 0-.003.003-.006.003 0 .003-.002.005-.005.005l-.002.006-.005.005c-.003 0-.003.003-.005.005-.003 0-.003.003-.005.006l-.005.002c0 .003-.003.006-.003.006l-.005.005-.005.005c-.002 0-.002.003-.005.005-.002 0-.002.003-.005.006 0 0-.002.002-.005.002l-.002.006c-.003.002-.005.002-.005.005-.003.003-.005.003-.005.005-.003 0-.003.003-.005.006l-.006.005s-.002.003-.005.003c0 .002-.002.005-.005.005 0 .002-.002.002-.002.005l-.005.006c-.003 0-.003.002-.005.005-.003 0-.003.002-.005.005l-.003.003a.446.446 0 0 0-.005.005c-.002.003-.005.003-.005.005l-.005.006c-.002 0-.002.002-.005.005 0 0-.002.003-.005.003 0 .002-.002.005-.005.005 0 .003-.002.003-.002.005-.003.003-.005.003-.005.005l-.005.006c-.003 0-.003.003-.006.005 0 0-.002.003-.005.003 0 .002-.002.005-.005.005 0 .003-.002.005-.002.005-.003.003-.005.003-.005.006-.003 0-.003.002-.005.005-.003 0-.003.003-.005.005-.003.003-.003.003-.005.003l-.005.005-.005.006-.005.005-.005.005-.005.006-.005.005-.005.005-.005.005-.006.006-.005.005-.005.005-.005.006-.005.005-.005.005-.005.005-.005.006-.005.005-.005.005-.005.006-.005.005-.005.005-.005.006-.005.005-.005.005-.005.005-.005.006-.005.005-.005.005-.005.006-.005.005-.005.005-.005.006-.005.005-.005.005-.005.006-.005.005-.005.005-.005.005.012-.01-.005.005-.005.005-.005.006-.005.005-.005.005-.005.006-.005.005-.005.005-.005.006-.005.005-.005.005-.005.005-.005.006-.005.005-.005.005c.005-.005.002-.005.002-.002l-.005.005-.005.005-.005.006-.005.005c-.002.003-.002.003-.005.003l-.005.005-.005.005-.005.006-.005.005-.005.005-.005.005-.005.006-.005.005-.005.005-.005.006-.005.005-.005.005-.005.006c-1.46 1.48-1.52 3.897-.69 6.586.727 2.334 2.134 4.877 3.86 7.152 1.728 2.275 3.791 4.298 5.83 5.592 2.722 1.732 5.399 2.188 7.236.31l.005-.005.005-.005.005-.006.005-.005.005-.005.005-.006.005-.005.005-.005.005-.005.005-.006.005-.005.005-.005.005-.006.005-.005.005-.005.005-.006.005-.005.005-.005.005-.006.005-.005.005-.005.005-.005.005-.006.005-.005.005-.005.005-.006.006-.005.005-.005.005-.006.005-.005.005-.005.005-.005.005-.006.005-.005.005-.005.005-.006.005-.005.005-.005.005-.005.005-.006.005-.005.005-.006.005-.005.005-.005.005-.005.005-.006.005-.005.005-.005.005-.006.005-.005.005-.005.005-.006.005-.005.005-.005.005-.005.005-.006.005-.005.006-.005.005-.006.005-.005.005-.005.005-.005.005-.006.005-.005.005-.005.005-.006.005-.005.005-.005.005-.006.005-.005.005-.005.005-.005.005-.006.005-.005.005-.006.005-.005.005-.005.005-.005.005-.006.005-.005.005-.005.005-.006.005-.005.005-.005.005-.005.005-.006.005-.005.005-.005.005-.006.006-.005.005-.005.005-.006.005-.005.005-.005.005-.005.005-.006.005-.005.005-.005.005-.006.005-.005.005-.005.005-.006.005-.005.005-.005.005-.006.005-.005.005-.005.005-.005.005-.006.005-.005.005-.005.005-.006.005-.005.005-.005.005-.006.005-.005.005-.005.005-.005.005-.006.006-.005.005-.005.005-.006.005-.005.005-.005.005-.006.005-.005.005-.005.005-.006.005-.005.005-.005.005-.005.005-.006.005-.005.005-.005.005-.006.005-.005.005-.005.005-.006.005-.005.005-.005.005-.005.005-.006.005-.005.005-.005.005-.006.005-.005.005-.005.005-.006.005-.005.005-.005.006-.006.005-.005.005-.005.005-.005.005-.006.005-.005.005-.005.005-.006.005-.005.005-.005.005-.006.005-.005.005-.005.005-.005.005-.006.005-.005.005-.005.005-.006.005-.005.005-.005.005-.006.005-.005.005-.005.005-.006.005-.005.005-.005.005-.005.005-.006.005-.005.005-.005.005-.006.005-.005.006-.005.005-.006.005-.005.005-.005.005-.005.005-.006.005-.005.005-.005.005-.006.005-.005.005-.005.005-.006.005-.005.005-.005.005-.006.005-.005.005-.005.005-.005.005-.006.005-.005.005-.005.005-.006.005-.005.005-.005.005-.006.005-.005.005-.005.005-.005.005-.006.005-.005.005-.005.006-.006.005-.005.004-.005.006-.006.005-.005.005-.005.005-.005.005-.006.005-.005.005-.005.005-.006.005-.005.005-.005.005-.006.005-.005.005-.005.005-.006.005-.005.005-.005.005-.005.005-.006.005-.005.005-.005.005-.006.005-.005.005-.005.005-.006.005-.005.005-.005.005-.005.005-.006.005-.005.006-.005.005-.006.005-.005.005-.005.005-.005.005-.006.005-.005.005-.005.005-.006.005-.005.005-.005.005-.006.005-.005.005-.005.005-.006.005-.005.005-.005.005-.006.005-.005.005-.005.005-.005.005-.006.005-.005.005-.005.005-.006.005-.005.005-.005.005-.005.005-.006.005-.005.006-.005.005-.006.005-.005.005-.005.005-.006.005-.005.005-.005.005-.005.005-.006.005-.005.005-.006.005-.005.005-.005.005-.005.005-.006.005-.005.005-.005.005-.006.005-.005.005-.005.005-.005.005-.006.005-.005.005-.005.005-.006.005-.005.005-.005.005-.006.005-.005.005-.005.005-.005.006-.006.005-.005.004-.005.006-.006.005-.005.005-.005.005-.006.005-.005.005-.005.005-.006.005-.005.005-.005.005-.006.005-.005.005-.005.005-.005.005-.006.005-.005.005-.005.005-.006.005-.005.005-.005.005-.005.005-.006.005-.005.005-.005.005-.006.005-.005.005-.005.005-.006.005-.005.005-.005.006-.006.005-.005.005-.005.005-.005.005-.006.005-.005.005-.005.005-.006.005-.005.005-.005.005-.006.005-.005.005-.005.005-.005.005-.006.005-.005.005-.005.005-.006.005-.005.005-.005.005-.006.005-.005.005-.005.005-.006.005-.005.005-.005.005-.005.005-.006.005-.005.005-.005.005-.006.006-.005.005-.005.005-.006.005-.005.005-.005.005-.005.005-.006.005-.005.005-.005.005-.006.005-.005.005-.005.005-.006.005-.005.005-.005.005-.006.005-.005.005-.005.005-.005.005-.006.005-.005.005-.005.005-.006.005-.005.005-.005.005-.006.005-.005.005-.005.005-.005.005-.006.005-.005c.124-.125.242-.26.358-.408-.025-.003-.056-.31-.234-.547Z" fill="#fff" stroke="#000" stroke-miterlimit="10" stroke-linecap="round" stroke-linejoin="round"/><path d="M5.397 25.618C3.67 23.343 2.264 20.8 1.545 18.46.523 15.154.848 12.254 3.472 11.01c.209-.138.528-.045.73.217l4.272 5.624c.209.276.209.632 0 .799l-1.907 1.508c.216 1.681 3.711 6.285 5.253 6.916l1.907-1.509c.21-.164.549-.077.758.199l4.272 5.624-.003.003c.18.233.21.54.063.729-1.836 2.333-4.684 1.938-7.588.09-2.04-1.294-4.104-3.317-5.832-5.592Z" fill="#fff" stroke="#000" stroke-miterlimit="10" stroke-linecap="round" stroke-linejoin="round"/></svg>