<svg width="35" height="33" viewBox="0 0 35 33" fill="none" xmlns="http://www.w3.org/2000/svg">
<path d="M22.6488 10.0785L10.5994 7.07493C9.92679 6.90733 9.31815 7.02862 8.8771 7.36161C8.87048 7.36602 8.86387 7.36822 8.85946 7.37263C8.85284 7.37705 8.84622 7.37925 8.84181 7.38366C8.8352 7.38807 8.82858 7.39028 8.82417 7.39469C8.81756 7.3991 8.81094 7.4013 8.80653 7.40571C8.79991 7.41012 8.7933 7.41233 8.78889 7.41674C8.78227 7.42115 8.77566 7.42336 8.77125 7.42777C8.76463 7.43218 8.75801 7.43438 8.7536 7.43879C8.74699 7.4432 8.74037 7.44541 8.73596 7.44982C8.72935 7.45423 8.72273 7.45643 8.71832 7.46084C8.7117 7.46525 8.70509 7.46746 8.70068 7.47187C8.69406 7.47628 8.68745 7.47849 8.68304 7.4829C8.67642 7.48731 8.6698 7.48951 8.66539 7.49392C8.65878 7.49833 8.65216 7.50054 8.64775 7.50495C8.64114 7.50936 8.63452 7.51156 8.63011 7.51598C8.62129 7.52039 8.61467 7.5248 8.60806 7.52921C8.60144 7.53362 8.59483 7.53582 8.59042 7.54023C8.58601 7.54464 8.57939 7.54685 8.57277 7.55126C8.56616 7.55567 8.55954 7.55787 8.55513 7.56229C8.54852 7.5667 8.54411 7.5689 8.53749 7.57331C8.53087 7.57772 8.52426 7.57993 8.51985 7.58434C8.51323 7.58875 8.50662 7.59095 8.50221 7.59536C8.49559 7.59977 8.48897 7.60198 8.48456 7.60639C8.47795 7.6108 8.47133 7.61301 8.46692 7.61742C8.46031 7.62183 8.45369 7.62403 8.44928 7.62844C8.44266 7.63285 8.43605 7.63506 8.43164 7.63947C8.42502 7.64388 8.41841 7.64608 8.414 7.6505C8.40738 7.65491 8.40077 7.65711 8.39635 7.66152C8.38753 7.66593 8.38092 7.67034 8.37651 7.67255C8.36989 7.67696 8.36328 7.67916 8.35887 7.68357C8.35225 7.68798 8.34563 7.69019 8.34122 7.6946C8.33461 7.69901 8.32799 7.70122 8.32358 7.70563C8.31697 7.71004 8.31035 7.71224 8.30594 7.71665C8.29932 7.72106 8.29271 7.72327 8.2883 7.72768C8.28168 7.73209 8.27507 7.73429 8.27066 7.7387C8.26404 7.74312 8.25742 7.74532 8.25301 7.74973C8.2464 7.75414 8.24199 7.75635 8.23537 7.76076C8.22876 7.76517 8.22214 7.76737 8.21773 7.77178C8.21111 7.77619 8.2045 7.7784 8.20009 7.78281C8.19347 7.78722 8.18686 7.78943 8.18245 7.79384C8.17363 7.80045 8.16701 7.80266 8.1626 7.80707C8.15598 7.81148 8.14937 7.81368 8.14496 7.81809C8.13834 7.8225 8.13173 7.82471 8.12732 7.82912C8.1207 7.83353 8.11408 7.83574 8.10967 7.84015C8.10306 7.84456 8.09644 7.84676 8.09203 7.85117C8.08542 7.85558 8.0788 7.85779 8.07439 7.8622C8.06777 7.86661 8.06116 7.86881 8.05675 7.87322C8.05013 7.87763 8.04352 7.87984 8.0391 7.88425C8.03249 7.88866 8.02587 7.89087 8.02146 7.89528C8.01485 7.89969 8.00823 7.90189 8.00382 7.9063C7.99721 7.91071 7.99059 7.91292 7.98618 7.91733C7.97956 7.92174 7.97295 7.92394 7.96854 7.92836C7.95972 7.93497 7.9531 7.93718 7.94649 7.94159C7.93987 7.946 7.93325 7.9482 7.92884 7.95261C7.92223 7.95702 7.91561 7.95923 7.9112 7.96364C7.90459 7.96805 7.89797 7.97026 7.89356 7.97467C7.88694 7.97908 7.88033 7.98128 7.87592 7.98569C7.87151 7.9901 7.86269 7.99231 7.85828 7.99672C7.85166 8.00113 7.84504 8.00333 7.84063 8.00774C7.83402 8.01215 7.8274 8.01436 7.82299 8.01877C7.81638 8.02318 7.80976 8.02539 7.80535 8.0298C7.79873 8.03421 7.79212 8.03641 7.78771 8.04082C7.78109 8.04523 7.77668 8.04744 7.77007 8.05185C7.76345 8.05626 7.75683 8.05846 7.75242 8.06288C7.74581 8.06729 7.73919 8.06949 7.73478 8.0739C7.72817 8.07831 7.72155 8.08052 7.71714 8.08493C7.71052 8.08934 7.70391 8.09154 7.6995 8.09595C7.69288 8.10036 7.68627 8.10257 7.68186 8.10698C7.67524 8.11139 7.66862 8.1136 7.66421 8.11801C7.6576 8.12242 7.65098 8.12462 7.64657 8.12903C7.63996 8.13344 7.63334 8.13565 7.62893 8.14006C7.62231 8.14447 7.6157 8.14667 7.61129 8.15108C7.60467 8.1555 7.59806 8.1577 7.59365 8.16211C7.58703 8.16652 7.58042 8.16873 7.576 8.17314C7.56939 8.17755 7.56277 8.17975 7.55836 8.18416C7.55175 8.18857 7.54513 8.19078 7.54072 8.19519C7.53411 8.1996 7.52749 8.20181 7.52308 8.20622C7.51205 8.21283 7.50544 8.21724 7.50103 8.22165C7.49441 8.22606 7.48779 8.22827 7.48338 8.23268C7.47677 8.23709 7.47236 8.23929 7.46574 8.2437C7.45913 8.24812 7.45251 8.25032 7.4481 8.25473C7.44148 8.25914 7.43487 8.26135 7.43046 8.26576C7.42384 8.27017 7.41723 8.27237 7.41282 8.27678C7.4062 8.28119 7.39959 8.2834 7.39517 8.28781C7.38856 8.29222 7.38194 8.29443 7.37753 8.29884C7.37092 8.30325 7.3643 8.30545 7.35989 8.30986C7.35328 8.31427 7.34666 8.31648 7.34225 8.32089C7.33563 8.3253 7.32902 8.3275 7.32461 8.33191C7.31799 8.33633 7.31138 8.33853 7.30697 8.34294C7.30035 8.34735 7.29373 8.34956 7.28932 8.35397C7.28271 8.35838 7.27609 8.36058 7.27168 8.36499C7.26507 8.3694 7.25845 8.37161 7.25404 8.37602C7.24742 8.38043 7.24081 8.38264 7.2364 8.38705C7.22978 8.39146 7.22317 8.39366 7.21876 8.39807C7.21214 8.40248 7.20552 8.40469 7.20111 8.4091C7.1945 8.41351 7.18788 8.41571 7.18347 8.42012C7.17245 8.42674 7.16583 8.42895 7.16142 8.43336C7.1548 8.43777 7.14819 8.43997 7.14378 8.44438C7.13716 8.44879 7.13055 8.451 7.12614 8.45541C7.11952 8.45982 7.1129 8.46202 7.10849 8.46643C7.10188 8.47084 7.09526 8.47305 7.09085 8.47746C7.08424 8.48187 7.07762 8.48408 7.07321 8.48849C7.06659 8.4929 7.05998 8.4951 7.05557 8.49951C7.04895 8.50392 7.04234 8.50613 7.03793 8.51054C7.03131 8.51495 7.02469 8.51715 7.02028 8.52157C7.01367 8.52598 7.00926 8.52818 7.00264 8.53259C6.99603 8.537 6.98941 8.53921 6.985 8.54362C6.97838 8.54803 6.97177 8.55023 6.96736 8.55464C6.96074 8.55905 6.95413 8.56126 6.94972 8.56567C6.9431 8.57008 6.93648 8.57229 6.93207 8.5767C6.92546 8.58111 6.91884 8.58331 6.91443 8.58772C6.90782 8.59213 6.9012 8.59434 6.89679 8.59875C6.89017 8.60316 6.88356 8.60536 6.87915 8.60977C6.87253 8.61419 6.86592 8.61639 6.86151 8.6208C6.85048 8.62742 6.84386 8.62962 6.83945 8.63403C6.83284 8.63844 6.82622 8.64065 6.82181 8.64506C6.8152 8.64947 6.80858 8.65167 6.80417 8.65609C6.79755 8.6605 6.79094 8.6627 6.78653 8.66711C6.77991 8.67152 6.7733 8.67373 6.76889 8.67814C6.76227 8.68255 6.75565 8.68475 6.75124 8.68916C6.74463 8.69357 6.73801 8.69578 6.7336 8.70019C6.72699 8.7046 6.72037 8.70681 6.71596 8.71122C6.70934 8.71563 6.70493 8.71783 6.69832 8.72224C6.6917 8.72665 6.68509 8.72886 6.68068 8.73327C6.67406 8.73768 6.66745 8.73988 6.66303 8.74429C6.65642 8.74871 6.6498 8.75091 6.64539 8.75532C6.63878 8.75973 6.63216 8.76194 6.62775 8.76635C6.62114 8.77076 6.61452 8.77296 6.61011 8.77737C6.60349 8.78178 6.59688 8.78399 6.59247 8.7884C6.58585 8.79281 6.57924 8.79502 6.57483 8.79943C6.56821 8.80384 6.56159 8.80604 6.55718 8.81045C6.55057 8.81486 6.54395 8.81707 6.53954 8.82148C6.53293 8.82589 6.52631 8.82809 6.5219 8.8325C6.51528 8.83691 6.50867 8.83912 6.50426 8.84353C6.49764 8.84794 6.49103 8.85015 6.48662 8.85456C6.48 8.85897 6.47338 8.86117 6.46897 8.86558C6.46236 8.86999 6.45574 8.8722 6.45133 8.87661C6.44472 8.88102 6.4381 8.88323 6.43369 8.88764C6.42707 8.89205 6.42046 8.89425 6.41605 8.89866C6.40943 8.90307 6.40282 8.90528 6.39841 8.90969C6.39179 8.9141 6.38517 8.9163 6.38076 8.92071C6.37415 8.92512 6.36753 8.92733 6.36312 8.93174C6.35651 8.93615 6.34989 8.93836 6.34548 8.94277C6.33886 8.94718 6.33225 8.94938 6.32784 8.95379C6.32122 8.9582 6.31461 8.96041 6.3102 8.96482C6.30358 8.96923 6.29696 8.97143 6.29255 8.97585C6.28594 8.98026 6.27932 8.98246 6.27491 8.98687C6.2683 8.99128 6.26168 8.99349 6.25727 8.9979C6.25065 9.00231 6.24624 9.00451 6.23963 9.00892C6.23301 9.01333 6.2264 9.01554 6.22199 9.01995C6.21537 9.02436 6.20876 9.02657 6.20434 9.03098C6.19773 9.03539 6.19111 9.03759 6.1867 9.042C6.18009 9.04641 6.17347 9.04862 6.16906 9.05303C6.16245 9.05744 6.15583 9.05964 6.15142 9.06405C6.1448 9.06847 6.13819 9.07067 6.13378 9.07508C6.12716 9.07949 6.12055 9.0817 6.11614 9.08611C6.10952 9.09052 6.1029 9.09272 6.09849 9.09713C6.09188 9.10154 6.08526 9.10375 6.08085 9.10816C6.07424 9.11257 6.06762 9.11478 6.06321 9.11919C6.05659 9.1236 6.04998 9.1258 6.04557 9.13021C6.03895 9.13462 6.03234 9.13683 6.02793 9.14124C6.02131 9.14565 6.01469 9.14785 6.01028 9.15226C6.00367 9.15667 5.99705 9.15888 5.99264 9.16329C5.98603 9.1677 5.97941 9.16991 5.975 9.17432C5.96838 9.17873 5.96177 9.18093 5.95736 9.18534C5.95074 9.18975 5.94633 9.19196 5.93972 9.19637C5.9331 9.20078 5.92648 9.20298 5.92207 9.2074C5.91546 9.21181 5.90884 9.21401 5.90443 9.21842C5.89782 9.22283 5.8912 9.22504 5.88679 9.22945C5.88017 9.23386 5.87356 9.23606 5.86915 9.24047C5.86253 9.24488 5.85592 9.24709 5.85151 9.2515C5.84489 9.25591 5.83827 9.25812 5.83386 9.26253C5.82725 9.26694 5.82063 9.26914 5.81622 9.27355C5.80961 9.27796 5.80299 9.28017 5.79858 9.28458C5.79196 9.28899 5.78535 9.29119 5.78094 9.2956C5.77432 9.30002 5.76771 9.30222 5.7633 9.30663C5.75668 9.31104 5.75007 9.31325 5.74565 9.31766C5.73904 9.32207 5.73242 9.32427 5.72801 9.32868C5.7214 9.33309 5.71478 9.3353 5.71037 9.33971C5.70376 9.34412 5.69714 9.34633 5.69273 9.35074C5.68611 9.35515 5.6795 9.35735 5.67509 9.36176C5.66847 9.36617 5.66186 9.36838 5.65745 9.37279C5.65083 9.3772 5.64421 9.3794 5.6398 9.38381C5.63319 9.38823 5.62657 9.39043 5.62216 9.39484C5.61555 9.39925 5.60893 9.40146 5.60452 9.40587C5.5979 9.41028 5.59129 9.41248 5.58688 9.41689C5.58026 9.4213 5.57365 9.42351 5.56924 9.42792C5.56262 9.43233 5.556 9.43454 5.55159 9.43895C5.54498 9.44336 5.53836 9.44556 5.53395 9.44997C5.52734 9.45438 5.52072 9.45659 5.51631 9.461C5.50969 9.46541 5.50308 9.46761 5.49867 9.47202C5.49205 9.47643 5.48764 9.47864 5.48103 9.48305C5.47441 9.48746 5.46779 9.48967 5.46338 9.49408C5.45677 9.49849 5.45015 9.50069 5.44574 9.5051C5.43913 9.50951 5.43251 9.51172 5.4281 9.51613C5.42148 9.52054 5.41487 9.52274 5.41046 9.52716C5.40384 9.53157 5.39723 9.53377 5.39282 9.53818C5.3862 9.54259 5.37958 9.5448 5.37517 9.54921C5.36856 9.55362 5.36194 9.55582 5.35753 9.56023C5.35092 9.56464 5.3443 9.56685 5.33989 9.57126C5.33327 9.57567 5.32666 9.57788 5.32225 9.58229C5.31563 9.5867 5.30902 9.5889 5.30461 9.59331C5.29799 9.59772 5.29138 9.59993 5.28696 9.60434C5.28035 9.60875 5.27373 9.61095 5.26932 9.61536C5.26271 9.61978 5.25609 9.62198 5.25168 9.62639C5.24507 9.6308 5.23845 9.63301 5.23404 9.63742C5.22742 9.64183 5.22081 9.64403 5.2164 9.64844C5.20978 9.65285 5.20317 9.65506 5.19876 9.65947C5.19214 9.66388 5.18773 9.66609 5.18111 9.6705C5.1745 9.67491 5.16788 9.67711 5.16347 9.68152C5.15686 9.68593 5.15024 9.68814 5.14583 9.69255C5.13921 9.69696 5.1326 9.69916 5.12819 9.70357C5.12157 9.70799 5.11496 9.71019 5.11055 9.7146C5.10393 9.71901 5.09731 9.72122 5.0929 9.72563C5.08629 9.73004 5.07967 9.73224 5.07526 9.73665C5.06865 9.74106 5.06203 9.74327 5.05762 9.74768C5.051 9.75209 5.04439 9.7543 5.03998 9.75871C5.03336 9.76312 5.02675 9.76532 5.02234 9.76973C5.01572 9.77414 5.0091 9.77635 5.00469 9.78076C4.99808 9.78517 4.99146 9.78737 4.98705 9.79178C4.98044 9.79619 4.97382 9.7984 4.96941 9.80281C4.96279 9.80722 4.95618 9.80943 4.95177 9.81384C4.94515 9.81825 4.93854 9.82045 4.93413 9.82486C4.92751 9.82927 4.92089 9.83148 4.91648 9.83589C4.90987 9.8403 4.90325 9.8425 4.89884 9.84692C4.89223 9.85133 4.88561 9.85353 4.8812 9.85794C4.87458 9.86235 4.86797 9.86456 4.86356 9.86897C4.85694 9.87338 4.85033 9.87558 4.84592 9.87999C4.8393 9.8844 4.83268 9.88661 4.82827 9.89102C4.82166 9.89543 4.81504 9.89764 4.81063 9.90205C4.80402 9.90646 4.7974 9.90866 4.79299 9.91307C4.78637 9.91748 4.77976 9.91969 4.77535 9.9241C4.76873 9.92851 4.76212 9.93071 4.75771 9.93513C4.75109 9.93954 4.74447 9.94174 4.74006 9.94615C4.73345 9.95056 4.72904 9.95277 4.72242 9.95718C4.71581 9.96159 4.70919 9.96379 4.70478 9.9682C4.69816 9.97261 4.69155 9.97482 4.68714 9.97923C4.68052 9.98364 4.67391 9.98585 4.6695 9.99026C4.66288 9.99467 4.65627 9.99687 4.65185 10.0013C4.64524 10.0057 4.63862 10.0079 4.63421 10.0123C4.6276 10.0167 4.62098 10.0189 4.61657 10.0233C4.60996 10.0277 4.60334 10.03 4.59893 10.0344C4.59231 10.0388 4.5857 10.041 4.58129 10.0454C4.57467 10.0498 4.56806 10.052 4.56365 10.0564C4.55703 10.0608 4.55041 10.063 4.546 10.0674C4.53939 10.0718 4.53277 10.0741 4.52836 10.0785C4.52175 10.0829 4.51513 10.0851 4.51072 10.0895C4.5041 10.0939 4.49749 10.0961 4.49308 10.1005C4.48646 10.1049 4.47985 10.1071 4.47544 10.1115C4.46882 10.116 4.4622 10.1182 4.45779 10.1226C4.45118 10.127 4.44456 10.1292 4.44015 10.1336C4.43354 10.138 4.42913 10.1402 4.42251 10.1446C4.41589 10.149 4.40928 10.1512 4.40487 10.1556C4.39825 10.1601 4.39164 10.1623 4.38723 10.1667C4.38061 10.1711 4.37399 10.1733 4.36958 10.1777C4.36297 10.1821 4.35635 10.1843 4.35194 10.1887C4.34533 10.1931 4.33871 10.1953 4.3343 10.1998C4.32768 10.2042 4.32107 10.2064 4.31666 10.2108C4.31004 10.2152 4.30343 10.2174 4.29902 10.2218C4.2924 10.2262 4.28579 10.2284 4.28137 10.2328C4.27476 10.2372 4.26814 10.2394 4.26373 10.2439C4.25712 10.2483 4.2505 10.2505 4.24609 10.2549C4.23948 10.2593 4.23286 10.2615 4.22845 10.2659C4.22183 10.2703 4.21522 10.2725 4.21081 10.2769C4.20419 10.2813 4.19758 10.2836 4.19317 10.288C4.18655 10.2924 4.17993 10.2946 4.17552 10.299C4.16891 10.3034 4.16229 10.3056 4.15788 10.31C4.15127 10.3144 4.14465 10.3166 4.14024 10.321C4.13362 10.3255 4.12701 10.3277 4.1226 10.3321C4.11598 10.3365 4.10937 10.3387 4.10496 10.3431C4.09834 10.3475 4.09172 10.3497 4.08731 10.3541C4.0807 10.3585 4.07408 10.3607 4.06967 10.3651C4.06306 10.3696 4.05644 10.3718 4.05203 10.3762C4.04541 10.3806 4.0388 10.3828 4.03439 10.3872C4.02777 10.3916 4.02116 10.3938 4.01675 10.3982C4.01013 10.4026 4.00351 10.4048 3.9991 10.4093C3.99249 10.4137 3.98587 10.4159 3.98146 10.4203C3.97485 10.4247 3.97044 10.4269 3.96382 10.4313C3.9572 10.4357 3.95059 10.4379 3.94618 10.4423C3.93956 10.4467 3.93295 10.4489 3.92854 10.4534C3.92192 10.4578 3.9153 10.46 3.91089 10.4644C3.90428 10.4688 3.89766 10.471 3.89325 10.4754C3.88664 10.4798 3.88002 10.482 3.87561 10.4864C3.86899 10.4908 3.86238 10.4931 3.85797 10.4975C3.85135 10.5019 3.84474 10.5041 3.84033 10.5085C3.83371 10.5129 3.8271 10.5151 3.82268 10.5195C3.81607 10.5239 3.80945 10.5261 3.80504 10.5305C3.79843 10.535 3.79181 10.5372 3.7874 10.5416C3.78079 10.546 3.77417 10.5482 3.76976 10.5526C3.76314 10.557 3.75653 10.5592 3.75212 10.5636C3.7455 10.568 3.73889 10.5702 3.73447 10.5746C3.72786 10.5791 3.72124 10.5813 3.71683 10.5857C3.71022 10.5901 3.7036 10.5923 3.69919 10.5967C3.69258 10.6011 3.68596 10.6033 3.68155 10.6077C3.67493 10.6121 3.67052 10.6143 3.66391 10.6187C3.65729 10.6232 3.65068 10.6254 3.64627 10.6298C3.63965 10.6342 3.63303 10.6364 3.62862 10.6408C3.62201 10.6452 3.61539 10.6474 3.61098 10.6518C3.60437 10.6562 3.59775 10.6584 3.59334 10.6629C3.58672 10.6673 3.58011 10.6695 3.5757 10.6739C3.56908 10.6783 3.56247 10.6805 3.55806 10.6849C3.55144 10.6893 3.54482 10.6915 3.54041 10.6959C3.5338 10.7003 3.52718 10.7025 3.52277 10.707C3.51616 10.7114 3.50954 10.7136 3.50513 10.718C3.49851 10.7224 3.4919 10.7246 3.48749 10.729C3.48087 10.7334 3.47426 10.7356 3.46985 10.74C3.46323 10.7444 3.45661 10.7467 3.4522 10.7511C3.44559 10.7555 3.43897 10.7577 3.43456 10.7621C3.42795 10.7665 3.42133 10.7687 3.41692 10.7731C3.4103 10.7775 3.40369 10.7797 3.39928 10.7841C3.39266 10.7886 3.38605 10.7908 3.38164 10.7952C3.37502 10.7996 3.36841 10.8018 3.36399 10.8062C3.35738 10.8106 3.35076 10.8128 3.34635 10.8172C3.33974 10.8216 3.33312 10.8238 3.32871 10.8282C3.3221 10.8327 3.31548 10.8349 3.31107 10.8393C3.30445 10.8437 3.29784 10.8459 3.29343 10.8503C3.28681 10.8547 3.2802 10.8569 3.27578 10.8613C3.26917 10.8657 3.26255 10.8679 3.25814 10.8724C3.25153 10.8768 3.24491 10.879 3.2405 10.8834C3.23389 10.8878 3.22727 10.89 3.22286 10.8944C3.21624 10.8988 3.21183 10.901 3.20522 10.9054C3.1986 10.9098 3.19199 10.912 3.18758 10.9165C3.18096 10.9209 3.17434 10.9231 3.16993 10.9275C3.16332 10.9319 3.1567 10.9341 3.15229 10.9385C3.14568 10.9429 3.13906 10.9451 3.13465 10.9495C3.12803 10.9539 3.12142 10.9562 3.11701 10.9606C3.11039 10.965 3.10378 10.9672 3.09937 10.9716C3.09275 10.976 3.08613 10.9782 3.08172 10.9826C3.07511 10.987 3.06849 10.9892 3.06408 10.9936C3.05747 10.9981 3.05085 11.0003 3.04644 11.0047C3.03982 11.0091 3.03321 11.0113 3.0288 11.0157C3.02218 11.0201 3.01557 11.0223 3.01116 11.0267C3.00454 11.0311 2.99792 11.0333 2.99351 11.0377C2.93838 11.073 2.93177 11.0752 2.92515 11.0796C2.91854 11.0841 2.91192 11.0863 2.90751 11.0907C2.90089 11.0951 2.89428 11.0973 2.88987 11.1017C2.88325 11.1061 2.87664 11.1083 2.87223 11.1127C2.86561 11.1171 2.8612 11.1193 2.85458 11.1237C2.84797 11.1282 2.84135 11.1304 2.83694 11.1348C2.83033 11.1392 2.82371 11.1414 2.8193 11.1458C2.81268 11.1502 2.80607 11.1524 2.80166 11.1568C2.79504 11.1612 2.78843 11.1634 2.78402 11.1679C2.7774 11.1723 2.77078 11.1745 2.76637 11.1789C2.75976 11.1833 2.75314 11.1855 2.74873 11.1899C2.74212 11.1943 2.7355 11.1965 2.73109 11.2009C2.72447 11.2053 2.71786 11.2075 2.71345 11.212C2.70683 11.2164 2.70022 11.2186 2.69581 11.223C2.68919 11.2274 2.68257 11.2296 2.67816 11.234C2.67155 11.2384 2.66493 11.2406 2.66052 11.245C2.65391 11.2494 2.64729 11.2517 2.64288 11.2561C2.63626 11.2605 2.62965 11.2627 2.62524 11.2671C2.61862 11.2715 2.61201 11.2737 2.6076 11.2781C2.60098 11.2825 2.59437 11.2847 2.58995 11.2891C2.58113 11.2958 2.57452 11.3002 2.5679 11.3046C2.56129 11.309 2.55467 11.3112 2.55026 11.3156C2.54364 11.32 2.53703 11.3222 2.53262 11.3266C2.526 11.331 2.51939 11.3332 2.51498 11.3377C2.50836 11.3421 2.50175 11.3443 2.49733 11.3487C2.49072 11.3531 2.4841 11.3553 2.47969 11.3597C2.47308 11.3641 2.46646 11.3663 2.46205 11.3707C2.45544 11.3751 2.44882 11.3774 2.44441 11.3818C2.43779 11.3862 2.43118 11.3884 2.42677 11.3928C2.42015 11.3972 2.41354 11.3994 2.40913 11.4038C2.40251 11.4082 2.39589 11.4104 2.39148 11.4148C2.38487 11.4193 2.37825 11.4215 2.37384 11.4259C2.36723 11.4303 2.36061 11.4325 2.3562 11.4369C2.34958 11.4413 2.34297 11.4435 2.33856 11.4479C2.33194 11.4523 2.32533 11.4545 2.32092 11.4589C2.3143 11.4634 2.30768 11.4656 2.30327 11.47C2.29666 11.4744 2.29004 11.4766 2.28563 11.481C2.27902 11.4854 2.2724 11.4876 2.26799 11.492C2.26137 11.4964 2.25476 11.4986 2.25035 11.5031C2.24373 11.5075 2.23712 11.5097 2.23271 11.5141C2.22388 11.5207 2.21727 11.5229 2.21065 11.5273C2.20404 11.5317 2.19742 11.5339 2.19301 11.5383C2.1864 11.5427 2.17978 11.545 2.17537 11.5494C2.16875 11.5538 2.16214 11.556 2.15773 11.5604C2.15111 11.5648 2.1445 11.567 2.14009 11.5714C2.13347 11.5758 2.12685 11.578 2.12244 11.5824C2.11583 11.5869 2.10921 11.5891 2.1048 11.5935C2.09819 11.5979 2.09378 11.6001 2.08716 11.6045C2.08054 11.6089 2.07393 11.6111 2.06952 11.6155C2.0629 11.6199 2.05629 11.6221 2.05188 11.6265C2.04526 11.631 2.03864 11.6332 2.03423 11.6376C2.02762 11.642 2.021 11.6442 2.01659 11.6486C2.00998 11.653 2.00336 11.6552 1.99895 11.6596C1.99233 11.664 1.98572 11.6662 1.98131 11.6706C1.97469 11.6751 1.96808 11.6773 1.96367 11.6817C1.95705 11.6861 1.95044 11.6883 1.94602 11.6927C1.93941 11.6971 1.93279 11.6993 1.92838 11.7037C1.92177 11.7081 1.91515 11.7103 1.91074 11.7148C1.90412 11.7192 1.89751 11.7214 1.8931 11.7258C1.88648 11.7302 1.87987 11.7324 1.87546 11.7368C1.86884 11.7412 1.86223 11.7434 1.85781 11.7478C1.8512 11.7522 1.84458 11.7544 1.84017 11.7589C1.83356 11.7633 1.82694 11.7655 1.82253 11.7699C1.81592 11.7743 1.8093 11.7765 1.80489 11.7809C1.79827 11.7853 1.79166 11.7875 1.78725 11.7919C1.78063 11.7963 1.77402 11.7986 1.76961 11.803C1.76299 11.8074 1.75637 11.8096 1.75196 11.814C1.74535 11.8184 1.73873 11.8206 1.73432 11.825C1.28666 12.1536 1.00659 12.6983 1.00659 13.3775V25.4269C1.00659 26.7699 2.09598 28.1306 3.43897 28.4658L15.4884 31.4693C16.161 31.6369 16.7697 31.5156 17.2107 31.1826C17.2173 31.1782 17.2239 31.176 17.2283 31.1716C17.235 31.1672 17.2416 31.165 17.246 31.1606C17.2526 31.1562 17.2592 31.154 17.2636 31.1495C17.2702 31.1451 17.2747 31.1429 17.2813 31.1385C17.2879 31.1341 17.2945 31.1319 17.2989 31.1275C17.3055 31.1231 17.3121 31.1209 17.3166 31.1165C17.3232 31.1121 17.3298 31.1098 17.3342 31.1054C17.3408 31.101 17.3474 31.0988 17.3518 31.0944C17.3585 31.09 17.3651 31.0878 17.3695 31.0834C17.3761 31.079 17.3827 31.0768 17.3871 31.0724C17.3937 31.068 17.4004 31.0657 17.4048 31.0613C17.4114 31.0569 17.418 31.0547 17.4224 31.0503C17.429 31.0459 17.4356 31.0437 17.44 31.0393C17.4467 31.0349 17.4533 31.0327 17.4577 31.0283C17.4643 31.0238 17.4709 31.0216 17.4753 31.0172C17.4819 31.0128 17.4886 31.0106 17.493 31.0062C17.4996 31.0018 17.5062 30.9996 17.5106 30.9952C17.5172 30.9908 17.5238 30.9886 17.5283 30.9842C17.5349 30.9797 17.5415 30.9775 17.5459 30.9731C17.5525 30.9687 17.5591 30.9665 17.5635 30.9621C17.5702 30.9577 17.5768 30.9555 17.5812 30.9511C17.5878 30.9467 17.5944 30.9445 17.5988 30.94C17.6054 30.9356 17.6121 30.9334 17.6165 30.929C17.6231 30.9246 17.6297 30.9224 17.6341 30.918C17.6407 30.9136 17.6473 30.9114 17.6518 30.907C17.6584 30.9026 17.665 30.9004 17.6694 30.8959C17.676 30.8915 17.6826 30.8893 17.687 30.8849C17.6937 30.8805 17.7003 30.8783 17.7047 30.8739C17.7113 30.8695 17.7179 30.8673 17.7223 30.8629C17.7289 30.8585 17.7333 30.8562 17.74 30.8518C17.7466 30.8474 17.7532 30.8452 17.7576 30.8408C17.7642 30.8364 17.7708 30.8342 17.7752 30.8298C17.7819 30.8254 17.7885 30.8232 17.7929 30.8188C17.7995 30.8143 17.8061 30.8121 17.8105 30.8077C17.8171 30.8033 17.8238 30.8011 17.8282 30.7967C17.8348 30.7923 17.8414 30.7901 17.8458 30.7857C17.8524 30.7813 17.859 30.7791 17.8635 30.7747C17.8701 30.7702 17.8767 30.768 17.8811 30.7636C17.8877 30.7592 17.8943 30.757 17.8987 30.7526C17.9054 30.7482 17.912 30.746 17.9164 30.7416C17.923 30.7372 17.9296 30.735 17.934 30.7305C17.9406 30.7261 17.9473 30.7239 17.9517 30.7195C17.9583 30.7151 17.9649 30.7129 17.9693 30.7085C17.9759 30.7041 17.9825 30.7019 17.9869 30.6975C17.9936 30.6931 18.0002 30.6909 18.0046 30.6864C18.0112 30.682 18.0178 30.6798 18.0222 30.6754C18.0288 30.671 18.0333 30.6688 18.0399 30.6644C18.0465 30.66 18.0531 30.6578 18.0575 30.6534C18.0641 30.649 18.0707 30.6467 18.0752 30.6423C18.0818 30.6379 18.0884 30.6357 18.0928 30.6313C18.0994 30.6269 18.106 30.6247 18.1104 30.6203C18.1171 30.6159 18.1237 30.6137 18.1281 30.6093C18.1347 30.6048 18.1413 30.6026 18.1457 30.5982C18.1523 30.5938 18.159 30.5916 18.1634 30.5872C18.17 30.5828 18.1766 30.5806 18.181 30.5762C18.1876 30.5718 18.1942 30.5696 18.1987 30.5652C18.2053 30.5607 18.2119 30.5585 18.2163 30.5541C18.2229 30.5497 18.2295 30.5475 18.2339 30.5431C18.2406 30.5387 18.2472 30.5365 18.2516 30.5321C18.2582 30.5277 18.2648 30.5255 18.2692 30.5211C18.2758 30.5166 18.2825 30.5144 18.2869 30.51C18.2935 30.5056 18.3001 30.5034 18.3045 30.499C18.3111 30.4946 18.3177 30.4924 18.3221 30.488C18.3288 30.4836 18.3354 30.4814 18.3398 30.4769C18.3464 30.4725 18.353 30.4703 18.3574 30.4659C18.364 30.4615 18.3707 30.4593 18.3751 30.4549C18.3817 30.4505 18.3883 30.4483 18.3927 30.4439C18.3993 30.4395 18.4059 30.4373 18.4104 30.4328C18.417 30.4284 18.4236 30.4262 18.428 30.4218C18.4346 30.4174 18.4412 30.4152 18.4456 30.4108C18.4523 30.4064 18.4589 30.4042 18.4633 30.3998C18.4699 30.3954 18.4765 30.3931 18.4809 30.3887C18.4875 30.3843 18.4919 30.3821 18.4986 30.3777C18.5052 30.3733 18.5118 30.3711 18.5162 30.3667C18.5228 30.3623 18.5294 30.3601 18.5338 30.3557C18.5405 30.3512 18.5471 30.349 18.5515 30.3446C18.5581 30.3402 18.5647 30.338 18.5691 30.3336C18.5757 30.3292 18.5824 30.327 18.5868 30.3226C18.5934 30.3182 18.6 30.316 18.6044 30.3116C18.611 30.3071 18.6176 30.3049 18.6221 30.3005C18.6287 30.2961 18.6353 30.2939 18.6397 30.2895C18.6463 30.2851 18.6529 30.2829 18.6573 30.2785C18.664 30.2741 18.6706 30.2719 18.675 30.2674C18.6816 30.263 18.6882 30.2608 18.6926 30.2564C18.6992 30.252 18.7059 30.2498 18.7103 30.2454C18.7169 30.241 18.7235 30.2388 18.7279 30.2344C18.7345 30.23 18.7411 30.2278 18.7456 30.2233C18.7522 30.2189 18.7588 30.2167 18.7632 30.2123C18.7698 30.2079 18.7764 30.2057 18.7808 30.2013C18.7874 30.1969 18.7919 30.1947 18.7985 30.1903C18.8051 30.1859 18.8117 30.1836 18.8161 30.1792C18.8227 30.1748 18.8294 30.1726 18.8338 30.1682C18.8404 30.1638 18.847 30.1616 18.8514 30.1572C18.858 30.1528 18.8646 30.1506 18.869 30.1462C18.8757 30.1417 18.8823 30.1395 18.8867 30.1351C18.8933 30.1307 18.8999 30.1285 18.9043 30.1241C18.9109 30.1197 18.9176 30.1175 18.922 30.1131C18.9286 30.1087 18.9352 30.1065 18.9396 30.1021C18.9462 30.0976 18.9528 30.0954 18.9573 30.091C18.9639 30.0866 18.9705 30.0844 18.9749 30.08C18.9815 30.0756 18.9881 30.0734 18.9925 30.069C18.9992 30.0646 19.0058 30.0624 19.0102 30.0579C19.0168 30.0535 19.0234 30.0513 19.0278 30.0469C19.0344 30.0425 19.0411 30.0403 19.0455 30.0359C19.0521 30.0315 19.0587 30.0293 19.0631 30.0249C19.0697 30.0205 19.0763 30.0183 19.0807 30.0138C19.0874 30.0094 19.094 30.0072 19.0984 30.0028C19.105 29.9984 19.1116 29.9962 19.116 29.9918C19.1226 29.9874 19.1293 29.9852 19.1337 29.9808C19.1403 29.9764 19.1469 29.9742 19.1513 29.9697C19.1579 29.9653 19.1645 29.9631 19.169 29.9587C19.1756 29.9543 19.1822 29.9521 19.1866 29.9477C19.1932 29.9433 19.1998 29.9411 19.2042 29.9367C19.2109 29.9323 19.2175 29.93 19.2219 29.9256C19.2285 29.9212 19.2351 29.919 19.2395 29.9146C19.2461 29.9102 19.2528 29.908 19.2572 29.9036C19.2638 29.8992 19.2704 29.897 19.2748 29.8926C19.2814 29.8881 19.288 29.8859 19.2924 29.8815C19.2991 29.8771 19.3057 29.8749 19.3101 29.8705C19.3167 29.8661 19.3233 29.8639 19.3277 29.8595C19.3344 29.8551 19.341 29.8529 19.3454 29.8485C19.352 29.844 19.3586 29.8418 19.363 29.8374C19.3696 29.833 19.3762 29.8308 19.3807 29.8264C19.3873 29.822 19.3939 29.8198 19.3983 29.8154C19.4049 29.811 19.4115 29.8088 19.4159 29.8043C19.4226 29.7999 19.4292 29.7977 19.4336 29.7933C19.4402 29.7889 19.4468 29.7867 19.4512 29.7823C19.4578 29.7779 19.4645 29.7757 19.4689 29.7713C19.4755 29.7669 19.4821 29.7647 19.4865 29.7602C19.4931 29.7558 19.4997 29.7536 19.5042 29.7492C19.5108 29.7448 19.5174 29.7426 19.5218 29.7382C19.5284 29.7338 19.535 29.7316 19.5394 29.7272C19.5461 29.7228 19.5505 29.7205 19.5571 29.7161C19.5637 29.7117 19.5703 29.7095 19.5747 29.7051C19.5813 29.7007 19.588 29.6985 19.5924 29.6941C19.599 29.6897 19.6056 29.6875 19.61 29.6831C19.6166 29.6786 19.6232 29.6764 19.6276 29.672C19.6343 29.6676 19.6409 29.6654 19.6453 29.661C19.6519 29.6566 19.6585 29.6544 19.6629 29.65C19.6695 29.6456 19.6762 29.6434 19.6806 29.639C19.6872 29.6345 19.6938 29.6323 19.6982 29.6279C19.7048 29.6235 19.7114 29.6213 19.7159 29.6169C19.7225 29.6125 19.7291 29.6103 19.7335 29.6059C19.7401 29.6015 19.7467 29.5993 19.7511 29.5948C19.7578 29.5904 19.7644 29.5882 19.7688 29.5838C19.7754 29.5794 19.782 29.5772 19.7864 29.5728C19.793 29.5684 19.7997 29.5662 19.8041 29.5618C19.8107 29.5574 19.8173 29.5552 19.8217 29.5507C19.8283 29.5463 19.8349 29.5441 19.8394 29.5397C19.846 29.5353 19.8526 29.5331 19.857 29.5287C19.8636 29.5243 19.8702 29.5221 19.8746 29.5177C19.8812 29.5133 19.8879 29.511 19.8923 29.5066C19.8989 29.5022 19.9055 29.5 19.9099 29.4956C19.9165 29.4912 19.9231 29.489 19.9276 29.4846C19.9342 29.4802 19.9408 29.478 19.9452 29.4736C19.9518 29.4692 19.9584 29.4669 19.9628 29.4625C19.9695 29.4581 19.9761 29.4559 19.9805 29.4515C19.9871 29.4471 19.9937 29.4449 19.9981 29.4405C20.0047 29.4361 20.0114 29.4339 20.0158 29.4295C20.0224 29.425 20.029 29.4228 20.0334 29.4184C20.04 29.414 20.0466 29.4118 20.0511 29.4074C20.0577 29.403 20.0643 29.4008 20.0687 29.3964C20.0753 29.392 20.0819 29.3898 20.0863 29.3854C20.093 29.3809 20.0996 29.3787 20.104 29.3743C20.1106 29.3699 20.1172 29.3677 20.1216 29.3633C20.1282 29.3589 20.1349 29.3567 20.1393 29.3523C20.1459 29.3479 20.1525 29.3457 20.1569 29.3412C20.1635 29.3368 20.1701 29.3346 20.1745 29.3302C20.1812 29.3258 20.1878 29.3236 20.1922 29.3192C20.1988 29.3148 20.2054 29.3126 20.2098 29.3082C20.2164 29.3038 20.2231 29.3016 20.2275 29.2971C20.2341 29.2927 20.2407 29.2905 20.2451 29.2861C20.2517 29.2817 20.2583 29.2795 20.2628 29.2751C20.2694 29.2707 20.276 29.2685 20.2804 29.2641C20.287 29.2597 20.2936 29.2574 20.298 29.253C20.3047 29.2486 20.3113 29.2464 20.3157 29.242C20.3223 29.2376 20.3289 29.2354 20.3333 29.231C20.3399 29.2266 20.3466 29.2244 20.351 29.22C20.3576 29.2155 20.3642 29.2133 20.3686 29.2089C20.3752 29.2045 20.3818 29.2023 20.3863 29.1979C20.3929 29.1935 20.3995 29.1913 20.4039 29.1869C20.4105 29.1825 20.4171 29.1803 20.4215 29.1759C20.4281 29.1714 20.4348 29.1692 20.4392 29.1648C20.4458 29.1604 20.4524 29.1582 20.4568 29.1538C20.4634 29.1494 20.47 29.1472 20.4745 29.1428C20.4811 29.1384 20.4877 29.1362 20.4921 29.1317C20.4987 29.1273 20.5053 29.1251 20.5097 29.1207C20.5164 29.1163 20.523 29.1141 20.5274 29.1097C20.534 29.1053 20.5406 29.1031 20.545 29.0987C20.5516 29.0943 20.5583 29.0921 20.5627 29.0876C20.5693 29.0832 20.5759 29.081 20.5803 29.0766C20.5869 29.0722 20.5935 29.07 20.598 29.0656C20.6046 29.0612 20.6112 29.059 20.6156 29.0546C20.6222 29.0502 20.6288 29.0479 20.6332 29.0435C20.6399 29.0391 20.6465 29.0369 20.6509 29.0325C20.6575 29.0281 20.6641 29.0259 20.6685 29.0215C20.6751 29.0171 20.6818 29.0149 20.6862 29.0105C20.6928 29.006 20.6994 29.0038 20.7038 28.9994C20.7104 28.995 20.717 28.9928 20.7214 28.9884C20.7281 28.984 20.7347 28.9818 20.7391 28.9774C20.7457 28.973 20.7523 28.9708 20.7567 28.9664C20.7633 28.9619 20.77 28.9597 20.7744 28.9553C20.781 28.9509 20.7876 28.9487 20.792 28.9443C20.7986 28.9399 20.8052 28.9377 20.8097 28.9333C20.8163 28.9289 20.8229 28.9267 20.8273 28.9223C20.8339 28.9178 20.8405 28.9156 20.8449 28.9112C20.8516 28.9068 20.8582 28.9046 20.8626 28.9002C20.8692 28.8958 20.8758 28.8936 20.8802 28.8892C20.8868 28.8848 20.8935 28.8826 20.8979 28.8781C20.9045 28.8737 20.9111 28.8715 20.9155 28.8671C20.9221 28.8627 20.9287 28.8605 20.9331 28.8561C20.9398 28.8517 20.9464 28.8495 20.9508 28.8451C20.9574 28.8407 20.964 28.8385 20.9684 28.834C20.9751 28.8296 20.9817 28.8274 20.9861 28.823C20.9927 28.8186 20.9993 28.8164 21.0037 28.812C21.0103 28.8076 21.0169 28.8054 21.0214 28.801C21.028 28.7966 21.0346 28.7943 21.039 28.7899C21.0456 28.7855 21.0522 28.7833 21.0566 28.7789C21.0633 28.7745 21.0699 28.7723 21.0743 28.7679C21.0809 28.7635 21.0875 28.7613 21.0919 28.7569C21.0985 28.7524 21.1052 28.7502 21.1096 28.7458C21.1162 28.7414 21.1228 28.7392 21.1272 28.7348C21.1338 28.7304 21.1404 28.7282 21.1449 28.7238C21.1515 28.7194 21.1581 28.7172 21.1625 28.7128C21.1691 28.7083 21.1757 28.7061 21.1801 28.7017C21.1868 28.6973 21.1934 28.6951 21.1978 28.6907C21.2044 28.6863 21.211 28.6841 21.2154 28.6797C21.222 28.6753 21.2287 28.6731 21.2331 28.6686C21.2397 28.6642 21.2463 28.662 21.2507 28.6576C21.2573 28.6532 21.2639 28.651 21.2683 28.6466C21.275 28.6422 21.2816 28.64 21.286 28.6356C21.2926 28.6312 21.2992 28.629 21.3036 28.6245C21.3102 28.6201 21.3169 28.6179 21.3213 28.6135C21.3279 28.6091 21.3345 28.6069 21.3389 28.6025C21.3455 28.5981 21.3521 28.5959 21.3566 28.5915C21.3632 28.5871 21.3698 28.5848 21.3742 28.5804C21.3808 28.576 21.3874 28.5738 21.3918 28.5694C21.3985 28.565 21.4051 28.5628 21.4095 28.5584C21.4161 28.554 21.4227 28.5518 21.4271 28.5474C21.4337 28.5429 21.4404 28.5407 21.4448 28.5363C21.4514 28.5319 21.458 28.5297 21.4624 28.5253C21.469 28.5209 21.4756 28.5187 21.4801 28.5143C21.4867 28.5099 21.4933 28.5077 21.4977 28.5033C21.5043 28.4988 21.5109 28.4966 21.5153 28.4922C21.5219 28.4878 21.5286 28.4856 21.533 28.4812C21.5396 28.4768 21.5462 28.4746 21.5506 28.4702C21.5572 28.4658 21.5638 28.4636 21.5683 28.4591C21.5749 28.4547 21.5815 28.4525 21.5859 28.4481C21.5925 28.4437 21.5991 28.4415 21.6035 28.4371C21.6102 28.4327 21.6168 28.4305 21.6212 28.4261C21.6278 28.4217 21.6344 28.4195 21.6388 28.415C21.6454 28.4106 21.6521 28.4084 21.6565 28.404C21.6631 28.3996 21.6697 28.3974 21.6741 28.393C21.6807 28.3886 21.6873 28.3864 21.6918 28.382C21.6984 28.3776 21.705 28.3754 21.7094 28.3709C21.716 28.3665 21.7226 28.3643 21.727 28.3599C21.7337 28.3555 21.7403 28.3533 21.7447 28.3489C21.7513 28.3445 21.7579 28.3423 21.7623 28.3379C21.7689 28.3335 21.7756 28.3312 21.78 28.3268C21.7866 28.3224 21.7932 28.3202 21.7976 28.3158C21.8042 28.3114 21.8108 28.3092 21.8152 28.3048C21.8219 28.3004 21.8285 28.2982 21.8329 28.2938C21.8395 28.2893 21.8461 28.2871 21.8505 28.2827C21.8571 28.2783 21.8638 28.2761 21.8682 28.2717C21.8748 28.2673 21.8814 28.2651 21.8858 28.2607C21.8924 28.2563 21.899 28.2541 21.9035 28.2497C21.9101 28.2452 21.9167 28.243 21.9211 28.2386C21.9277 28.2342 21.9343 28.232 21.9387 28.2276C21.9454 28.2232 21.952 28.221 21.9564 28.2166C21.963 28.2122 21.9696 28.21 21.974 28.2055C21.9806 28.2011 21.9873 28.1989 21.9917 28.1945C21.9983 28.1901 22.0049 28.1879 22.0093 28.1835C22.0159 28.1791 22.0225 28.1769 22.0269 28.1725C22.0336 28.1681 22.0402 28.1659 22.0446 28.1614C22.0512 28.157 22.0578 28.1548 22.0622 28.1504C22.0688 28.146 22.0755 28.1438 22.0799 28.1394C22.0865 28.135 22.0931 28.1328 22.0975 28.1284C22.1041 28.124 22.1085 28.1217 22.1152 28.1173C22.1218 28.1129 22.1284 28.1107 22.1328 28.1063C22.1394 28.1019 22.146 28.0997 22.1504 28.0953C22.1571 28.0909 22.1637 28.0887 22.1681 28.0843C22.1747 28.0798 22.1813 28.0776 22.1857 28.0732C22.1923 28.0688 22.199 28.0666 22.2034 28.0622C22.21 28.0578 22.2166 28.0556 22.221 28.0512C22.2276 28.0468 22.2342 28.0446 22.2387 28.0402C22.2453 28.0357 22.2519 28.0335 22.2563 28.0291C22.2629 28.0247 22.2695 28.0225 22.2739 28.0181C22.2806 28.0137 22.2872 28.0115 22.2916 28.0071C22.2982 28.0027 22.3048 28.0005 22.3092 27.996C22.3158 27.9916 22.3225 27.9894 22.3269 27.985C22.3335 27.9806 22.3401 27.9784 22.3445 27.974C22.3511 27.9696 22.3577 27.9674 22.3621 27.963C22.3688 27.9586 22.3754 27.9564 22.3798 27.9519C22.3864 27.9475 22.393 27.9453 22.3974 27.9409C22.404 27.9365 22.4107 27.9343 22.4151 27.9299C22.4217 27.9255 22.4283 27.9233 22.4327 27.9189C22.4393 27.9145 22.4459 27.9122 22.4504 27.9078C22.457 27.9034 22.4636 27.9012 22.468 27.8968C22.4746 27.8924 22.4812 27.8902 22.4856 27.8858C22.4923 27.8814 22.4989 27.8792 22.5033 27.8748C22.5099 27.8704 22.5165 27.8681 22.5209 27.8637C22.5275 27.8593 22.5342 27.8571 22.5386 27.8527C22.5452 27.8483 22.5518 27.8461 22.5562 27.8417C22.5628 27.8373 22.5694 27.8351 22.5738 27.8307C22.5805 27.8262 22.5871 27.824 22.5915 27.8196C22.5981 27.8152 22.6047 27.813 22.6091 27.8086C22.6157 27.8042 22.6224 27.802 22.6268 27.7976C22.6334 27.7932 22.64 27.791 22.6444 27.7866C22.651 27.7821 22.6576 27.7799 22.6621 27.7755C22.6687 27.7711 22.6753 27.7689 22.6797 27.7645C22.6863 27.7601 22.6929 27.7579 22.6973 27.7535C22.704 27.7491 22.7106 27.7469 22.715 27.7424C22.7216 27.738 22.7282 27.7358 22.7326 27.7314C22.7392 27.727 22.7459 27.7248 22.7503 27.7204C22.7569 27.716 22.7635 27.7138 22.7679 27.7094C22.7745 27.705 22.7811 27.7028 22.7856 27.6983C22.7922 27.6939 22.7988 27.6917 22.8032 27.6873C22.8098 27.6829 22.8164 27.6807 22.8208 27.6763C22.8275 27.6719 22.8341 27.6697 22.8385 27.6653C22.8451 27.6609 22.8517 27.6586 22.8561 27.6542C22.8627 27.6498 22.8694 27.6476 22.8738 27.6432C22.8804 27.6388 22.887 27.6366 22.8914 27.6322C22.898 27.6278 22.9046 27.6256 22.909 27.6212C22.9157 27.6167 22.9223 27.6145 22.9267 27.6101C22.9333 27.6057 22.9399 27.6035 22.9443 27.5991C22.9509 27.5947 22.9576 27.5925 22.962 27.5881C22.9686 27.5837 22.9752 27.5815 22.9796 27.5771C22.9862 27.5726 22.9928 27.5704 22.9973 27.566C23.0039 27.5616 23.0105 27.5594 23.0149 27.555C23.0215 27.5506 23.0281 27.5484 23.0325 27.544C23.0392 27.5396 23.0458 27.5374 23.0502 27.5329C23.0568 27.5285 23.0634 27.5263 23.0678 27.5219C23.0744 27.5175 23.0811 27.5153 23.0855 27.5109C23.0921 27.5065 23.0987 27.5043 23.1031 27.4999C23.1097 27.4955 23.1163 27.4933 23.1207 27.4888C23.1274 27.4844 23.134 27.4822 23.1384 27.4778C23.145 27.4734 23.1516 27.4712 23.156 27.4668C23.1626 27.4624 23.1671 27.4602 23.1737 27.4558C23.1803 27.4514 23.1869 27.4491 23.1913 27.4447C23.1979 27.4403 23.2045 27.4381 23.209 27.4337C23.2156 27.4293 23.2222 27.4271 23.2266 27.4227C23.2332 27.4183 23.2398 27.4161 23.2442 27.4117C23.2509 27.4072 23.2575 27.405 23.2619 27.4006C23.2685 27.3962 23.2751 27.394 23.2795 27.3896C23.2861 27.3852 23.2928 27.383 23.2972 27.3786C23.3038 27.3742 23.3104 27.372 23.3148 27.3676C23.3214 27.3631 23.328 27.3609 23.3325 27.3565C23.3391 27.3521 23.3457 27.3499 23.3501 27.3455C23.3567 27.3411 23.3633 27.3389 23.3677 27.3345C23.3744 27.3301 23.381 27.3279 23.3854 27.3235C23.392 27.319 23.3986 27.3168 23.403 27.3124C23.4096 27.308 23.4163 27.3058 23.4207 27.3014C23.4273 27.297 23.4339 27.2948 23.4383 27.2904C23.4449 27.286 23.4515 27.2838 23.4559 27.2793C23.4626 27.2749 23.4692 27.2727 23.4736 27.2683C23.4802 27.2639 23.4868 27.2617 23.4912 27.2573C23.4978 27.2529 23.5045 27.2507 23.5089 27.2463C23.5155 27.2419 23.5221 27.2397 23.5265 27.2352C23.5331 27.2308 23.5397 27.2286 23.5442 27.2242C23.5508 27.2198 23.5574 27.2176 23.5618 27.2132C23.5684 27.2088 23.575 27.2066 23.5794 27.2022C23.5861 27.1978 23.5927 27.1955 23.5971 27.1911C23.6037 27.1867 23.6103 27.1845 23.6147 27.1801C23.6213 27.1757 23.628 27.1735 23.6324 27.1691C23.639 27.1647 23.6456 27.1625 23.65 27.1581C23.6566 27.1536 23.6632 27.1514 23.6676 27.147C23.6743 27.1426 23.6809 27.1404 23.6853 27.136C23.6919 27.1316 23.6985 27.1294 23.7029 27.125C23.7095 27.1206 23.7162 27.1184 23.7206 27.114C23.7272 27.1095 23.7338 27.1073 23.7382 27.1029C23.7448 27.0985 23.7514 27.0963 23.7559 27.0919C23.7625 27.0875 23.7691 27.0853 23.7735 27.0809C23.7801 27.0765 23.7867 27.0743 23.7911 27.0698C23.7978 27.0654 23.8044 27.0632 23.8088 27.0588C23.8154 27.0544 23.822 27.0522 23.8264 27.0478C23.833 27.0434 23.8397 27.0412 23.8441 27.0368C23.8507 27.0324 23.8573 27.0302 23.8617 27.0257C23.8683 27.0213 23.8749 27.0191 23.8794 27.0147C23.886 27.0103 23.8926 27.0081 23.897 27.0037C23.9036 26.9993 23.9102 26.9971 23.9146 26.9927C23.9213 26.9883 23.9257 26.986 23.9323 26.9816C23.9389 26.9772 23.9455 26.975 23.9499 26.9706C23.9565 26.9662 23.9632 26.964 23.9676 26.9596C23.9742 26.9552 23.9808 26.953 23.9852 26.9486C23.9918 26.9441 23.9984 26.9419 24.0028 26.9375C24.0095 26.9331 24.0161 26.9309 24.0205 26.9265C24.0271 26.9221 24.0337 26.9199 24.0381 26.9155C24.0447 26.9111 24.0514 26.9089 24.0558 26.9045C24.0624 26.9 24.069 26.8978 24.0734 26.8934C24.08 26.889 24.0866 26.8868 24.0911 26.8824C24.0977 26.878 24.1043 26.8758 24.1087 26.8714C24.1153 26.867 24.1219 26.8648 24.1263 26.8603C24.133 26.8559 24.1396 26.8537 24.144 26.8493C24.1506 26.8449 24.1572 26.8427 24.1616 26.8383C24.1682 26.8339 24.1749 26.8317 24.1793 26.8273C24.1859 26.8229 24.1925 26.8207 24.1969 26.8162C24.2035 26.8118 24.2101 26.8096 24.2145 26.8052C24.2212 26.8008 24.2278 26.7986 24.2322 26.7942C24.2388 26.7898 24.2454 26.7876 24.2498 26.7832C24.2564 26.7788 24.2631 26.7766 24.2675 26.7721C24.7151 26.4436 24.9952 25.8989 24.9952 25.2219V13.1173C25.0812 11.7743 23.9918 10.4137 22.6488 10.0785Z" stroke="black" stroke-miterlimit="10" stroke-linecap="round" stroke-linejoin="round"/>
<path d="M15.4818 31.4714L3.43238 28.4678C2.08939 28.1326 1 26.772 1 25.429V13.3796C1 12.0366 2.08939 11.2184 3.43238 11.5536L15.4818 14.5572C16.8248 14.8924 17.9142 16.253 17.9142 17.596V29.6454C17.9142 30.9884 16.8248 31.8066 15.4818 31.4714Z" fill="white" stroke="black" stroke-miterlimit="10" stroke-linecap="round" stroke-linejoin="round"/>
<path d="M3.52295 20.0328C3.52295 18.2355 4.74465 17.3115 6.45813 17.7371C7.72173 18.0525 8.69865 18.9655 9.07575 20.2533L8.03046 20.3768C7.77024 19.5675 7.21011 18.9677 6.45813 18.7802C5.44592 18.5288 4.71819 19.0912 4.71819 20.3283C4.71819 21.5654 5.44592 22.4916 6.45813 22.743C7.21011 22.9305 7.77024 22.6107 8.03046 21.9315L9.07575 22.5776C8.69865 23.6803 7.72173 24.1037 6.45813 23.7905C4.74465 23.3649 3.52295 21.8301 3.52295 20.0328Z" fill="black"/>
<path d="M15.3912 20.0659V25.9186L14.2467 25.632V21.603L12.6413 23.4025L12.4494 23.354L10.8264 20.7496V24.7785L9.68848 24.4941V18.6436L10.7668 18.9126L12.5553 21.8169L14.3107 19.7969L15.3912 20.0659Z" fill="black"/>
<path d="M27.5 15C31.6421 15 35 11.6421 35 7.5C35 3.35786 31.6421 0 27.5 0C23.3579 0 20 3.35786 20 7.5C20 11.6421 23.3579 15 27.5 15Z" fill="#2F5ACF"/>
<path d="M28.2217 3.34606L28.9943 5.67621C29.0646 5.88385 29.2636 6.02228 29.4743 6.02228H31.9677C32.4594 6.02228 32.6701 6.64519 32.2721 6.93357L30.2469 8.3755C30.0713 8.50239 29.9894 8.73309 30.0596 8.94073L30.8322 11.2709C30.9844 11.7323 30.4459 12.1245 30.0479 11.8361L28.0344 10.3942C27.8588 10.2673 27.613 10.2673 27.4374 10.3942L25.4239 11.8361C25.0259 12.1245 24.4874 11.7323 24.6396 11.2709L25.4122 8.94073C25.4825 8.73309 25.4005 8.50239 25.2249 8.3755L23.2114 6.93357C22.8134 6.64519 23.0124 6.02228 23.5158 6.02228H26.0092C26.2317 6.02228 26.4307 5.88385 26.4892 5.67621L27.2618 3.34606C27.4023 2.88465 28.0695 2.88465 28.2217 3.34606Z" fill="white"/>
</svg>
