<svg width="36" height="31" viewBox="0 0 36 31" fill="none" xmlns="http://www.w3.org/2000/svg">
<path d="M33.4839 15.7249C33.4384 9.87598 28.6505 3.99078 22.7902 2.57771C19.492 1.78267 16.5582 2.57461 14.6296 4.46077C14.6275 4.46284 14.6254 4.46491 14.6244 4.46594C14.6223 4.46698 14.6213 4.46905 14.6192 4.47112C14.6172 4.47216 14.6161 4.47423 14.614 4.4763C14.612 4.47837 14.6099 4.48044 14.6089 4.48147C14.6068 4.48251 14.6058 4.48458 14.6037 4.48665C14.6016 4.48872 14.6006 4.48975 14.5985 4.49182C14.5965 4.49286 14.5954 4.49493 14.5933 4.497C14.5913 4.49907 14.5892 4.50114 14.5882 4.50218C14.5861 4.50321 14.5851 4.50528 14.583 4.50735C14.5809 4.50839 14.5799 4.51046 14.5778 4.51253C14.5757 4.5146 14.5737 4.51667 14.5726 4.5177C14.5706 4.51874 14.5695 4.52081 14.5675 4.52288C14.5654 4.52495 14.5644 4.52599 14.5623 4.52806C14.5602 4.52909 14.5592 4.53116 14.5571 4.53323C14.555 4.5353 14.553 4.53737 14.5519 4.53841C14.5499 4.53944 14.5488 4.54151 14.5468 4.54358C14.5447 4.54566 14.5437 4.54669 14.5416 4.54876C14.5395 4.5498 14.5385 4.55187 14.5364 4.55394C14.5343 4.55601 14.5323 4.55808 14.5312 4.55911C14.5292 4.56015 14.5281 4.56222 14.5261 4.56429C14.524 4.56532 14.523 4.56739 14.5209 4.56947C14.5188 4.57154 14.5167 4.57361 14.5157 4.57464C14.5136 4.57568 14.5126 4.57775 14.5105 4.57982C14.5085 4.58189 14.5074 4.58292 14.5054 4.58499C14.5033 4.58603 14.5022 4.5881 14.5002 4.59017C14.4981 4.59224 14.496 4.59431 14.495 4.59535C14.4929 4.59638 14.4919 4.59845 14.4898 4.60052C14.4878 4.60156 14.4867 4.60363 14.4846 4.6057C14.4826 4.60777 14.4805 4.60984 14.4795 4.61087C14.4774 4.61191 14.4764 4.61398 14.4743 4.61605C14.4722 4.61812 14.4712 4.61916 14.4691 4.62123C14.467 4.62226 14.466 4.62433 14.4639 4.6264C14.4619 4.62847 14.4598 4.63054 14.4588 4.63158C14.4567 4.63261 14.4557 4.63468 14.4536 4.63675C14.4515 4.63882 14.4505 4.63986 14.4484 4.64193C14.4463 4.644 14.4453 4.64504 14.4432 4.64711C14.4412 4.64918 14.4401 4.65021 14.4381 4.65228C14.436 4.65435 14.435 4.65539 14.4329 4.65746C14.4308 4.65849 14.4298 4.66056 14.4277 4.66263C14.4256 4.6647 14.4236 4.66678 14.4225 4.66781C14.4205 4.66885 14.4194 4.67092 14.4174 4.67299C14.4153 4.67506 14.4143 4.67609 14.4122 4.67816C14.4101 4.6792 14.4091 4.68127 14.407 4.68334C14.4049 4.68541 14.4029 4.68748 14.4018 4.68851C14.3998 4.68955 14.3987 4.69162 14.3967 4.69369C14.3946 4.69473 14.3935 4.6968 14.3915 4.69887C14.3894 4.70094 14.3873 4.70301 14.3863 4.70404C14.3842 4.70508 14.3832 4.70715 14.3811 4.70922C14.3791 4.71129 14.378 4.71232 14.376 4.7144C14.3739 4.71543 14.3728 4.7175 14.3708 4.71957C14.3687 4.72164 14.3666 4.72371 14.3656 4.72475C14.3635 4.72578 14.3625 4.72785 14.3604 4.72992C14.3584 4.73096 14.3573 4.73303 14.3552 4.7351C14.3532 4.73717 14.3511 4.73924 14.3501 4.74028C14.348 4.74131 14.347 4.74338 14.3449 4.74545C14.3428 4.74752 14.3418 4.74856 14.3397 4.75063C14.3376 4.75166 14.3366 4.75373 14.3345 4.7558C14.3325 4.75787 14.3304 4.75994 14.3294 4.76098C14.3273 4.76202 14.3263 4.76409 14.3242 4.76616C14.3221 4.76823 14.3211 4.76926 14.319 4.77133C14.3169 4.7734 14.3159 4.77444 14.3138 4.77651C14.3118 4.77858 14.3107 4.77961 14.3087 4.78168C14.3066 4.78375 14.3056 4.78479 14.3035 4.78686C14.3014 4.7879 14.3004 4.78997 14.2983 4.79204C14.2962 4.79411 14.2942 4.79618 14.2931 4.79721C14.2911 4.79825 14.29 4.80032 14.288 4.80239C14.2859 4.80446 14.2849 4.80549 14.2828 4.80756C14.2807 4.8086 14.2797 4.81067 14.2776 4.81274C14.2755 4.81481 14.2735 4.81688 14.2724 4.81792C14.2704 4.81895 14.2693 4.82102 14.2673 4.82309C14.2652 4.82413 14.2641 4.8262 14.2621 4.82827C14.26 4.83034 14.2579 4.83241 14.2569 4.83344C14.2548 4.83448 14.2538 4.83655 14.2517 4.83862C14.2497 4.84069 14.2486 4.84173 14.2465 4.8438C14.2445 4.84483 14.2434 4.8469 14.2414 4.84897C14.2393 4.85104 14.2372 4.85311 14.2362 4.85415C14.2341 4.85518 14.2331 4.85725 14.231 4.85933C14.2289 4.8614 14.2279 4.86243 14.2258 4.8645C14.2238 4.86657 14.2227 4.86761 14.2207 4.86968C14.2186 4.87175 14.2176 4.87278 14.2155 4.87485C14.2134 4.87692 14.2124 4.87796 14.2103 4.88003C14.2082 4.88106 14.2072 4.88314 14.2051 4.88521C14.2031 4.88728 14.201 4.88935 14.2 4.89038C14.1979 4.89142 14.1969 4.89349 14.1948 4.89556C14.1927 4.89763 14.1917 4.89866 14.1896 4.90073C14.1875 4.90177 14.1865 4.90384 14.1844 4.90591C14.1824 4.90798 14.1803 4.91005 14.1793 4.91109C14.1772 4.91212 14.1762 4.91419 14.1741 4.91626C14.172 4.9173 14.171 4.91937 14.1689 4.92144C14.1668 4.92351 14.1648 4.92558 14.1637 4.92661C14.1617 4.92765 14.1606 4.92972 14.1586 4.93179C14.1565 4.93386 14.1554 4.9349 14.1534 4.93697C14.1513 4.938 14.1503 4.94007 14.1482 4.94214C14.1461 4.94421 14.1441 4.94628 14.143 4.94732C14.141 4.94835 14.1399 4.95042 14.1379 4.95249C14.1358 4.95353 14.1347 4.9556 14.1327 4.95767C14.1306 4.95974 14.1285 4.96181 14.1275 4.96285C14.1254 4.96388 14.1244 4.96595 14.1223 4.96802C14.1203 4.97009 14.1192 4.97113 14.1171 4.9732C14.1151 4.97423 14.114 4.9763 14.112 4.97837C14.1099 4.98045 14.1078 4.98252 14.1068 4.98355C14.1047 4.98459 14.1037 4.98666 14.1016 4.98873C14.0995 4.9908 14.0985 4.99183 14.0964 4.9939C14.0944 4.99597 14.0933 4.99701 14.0913 4.99908C14.0892 5.00115 14.0882 5.00218 14.0861 5.00426C14.084 5.00633 14.083 5.00736 14.0809 5.00943C14.0788 5.01047 14.0778 5.01254 14.0757 5.01461C14.0737 5.01668 14.0716 5.01875 14.0706 5.01978C14.0685 5.02082 14.0675 5.02289 14.0654 5.02496C14.0633 5.02703 14.0623 5.02807 14.0602 5.03014C14.0581 5.03117 14.0571 5.03324 14.055 5.03531C14.053 5.03738 14.0509 5.03945 14.0499 5.04049C14.0478 5.04152 14.0468 5.04359 14.0447 5.04566C14.0426 5.0467 14.0416 5.04877 14.0395 5.05084C14.0374 5.05291 14.0354 5.05498 14.0343 5.05602C14.0323 5.05705 14.0312 5.05912 14.0292 5.06119C14.0271 5.06326 14.026 5.0643 14.024 5.06637C14.0219 5.0674 14.0209 5.06947 14.0188 5.07154C14.0167 5.07361 14.0147 5.07569 14.0136 5.07672C14.0116 5.07776 14.0105 5.07983 14.0084 5.0819C14.0064 5.08397 14.0053 5.085 14.0033 5.08707C14.0012 5.08914 14.0002 5.09018 13.9981 5.09225C13.996 5.09432 13.995 5.09535 13.9929 5.09742C13.9909 5.09949 13.9898 5.10053 13.9877 5.1026C13.9857 5.10364 13.9846 5.10571 13.9826 5.10778C13.9805 5.10985 13.9784 5.11192 13.9774 5.11295C13.9753 5.11399 13.9743 5.11606 13.9722 5.11813C13.9701 5.1202 13.9691 5.12123 13.967 5.1233C13.965 5.12434 13.9639 5.12641 13.9619 5.12848C13.9598 5.13055 13.9577 5.13262 13.9567 5.13366C13.9546 5.13469 13.9536 5.13676 13.9515 5.13883C13.9494 5.13987 13.9484 5.14194 13.9463 5.14401C13.9443 5.14608 13.9422 5.14815 13.9412 5.14919C13.9391 5.15022 13.9381 5.15229 13.936 5.15436C13.9339 5.15643 13.9329 5.15747 13.9308 5.15954C13.9287 5.16057 13.9277 5.16264 13.9256 5.16471C13.9236 5.16678 13.9215 5.16885 13.9205 5.16989C13.9184 5.17092 13.9174 5.173 13.9153 5.17507C13.9132 5.1761 13.9122 5.17817 13.9101 5.18024C13.908 5.18231 13.906 5.18438 13.9049 5.18542C13.9029 5.18645 13.9018 5.18852 13.8998 5.19059C13.8977 5.19266 13.8966 5.1937 13.8946 5.19577C13.8925 5.19681 13.8915 5.19888 13.8894 5.20095C13.8873 5.20302 13.8853 5.20509 13.8842 5.20612C13.8822 5.20716 13.8811 5.20923 13.879 5.2113C13.877 5.21337 13.8759 5.2144 13.8739 5.21647C13.8718 5.21854 13.8708 5.21958 13.8687 5.22165C13.8666 5.22372 13.8656 5.22476 13.8635 5.22683C13.8614 5.2289 13.8604 5.22993 13.8583 5.232C13.8563 5.23304 13.8552 5.23511 13.8532 5.23718C13.8511 5.23925 13.849 5.24132 13.848 5.24235C13.8459 5.24339 13.8449 5.24546 13.8428 5.24753C13.8407 5.2496 13.8397 5.25064 13.8376 5.25271C13.8356 5.25374 13.8345 5.25581 13.8325 5.25788C13.8304 5.25995 13.8283 5.26202 13.8273 5.26306C13.8252 5.26409 13.8242 5.26616 13.8221 5.26824C13.82 5.26927 13.819 5.27134 13.8169 5.27341C13.8149 5.27548 13.8128 5.27755 13.8118 5.27859C13.8097 5.27962 13.8087 5.28169 13.8066 5.28376C13.8045 5.28583 13.8035 5.28687 13.8014 5.28894C13.7993 5.28997 13.7983 5.29205 13.7962 5.29412C13.7942 5.29619 13.7921 5.29826 13.7911 5.29929C13.789 5.30033 13.7879 5.3024 13.7859 5.30447C13.7838 5.30654 13.7828 5.30757 13.7807 5.30964C13.7786 5.31171 13.7776 5.31275 13.7755 5.31482C13.7735 5.31689 13.7724 5.31793 13.7703 5.32C13.7683 5.32207 13.7672 5.3231 13.7652 5.32517C13.7631 5.32621 13.7621 5.32828 13.76 5.33035C13.7579 5.33242 13.7559 5.33449 13.7548 5.33552C13.7528 5.33656 13.7517 5.33863 13.7496 5.3407C13.7476 5.34277 13.7465 5.34381 13.7445 5.34588C13.7424 5.34691 13.7414 5.34898 13.7393 5.35105C13.7372 5.35312 13.7352 5.35519 13.7341 5.35623C13.732 5.35726 13.731 5.35933 13.7289 5.3614C13.7269 5.36244 13.7258 5.36451 13.7238 5.36658C13.7217 5.36865 13.7196 5.37072 13.7186 5.37176C13.7165 5.37279 13.7155 5.37486 13.7134 5.37693C13.7113 5.379 13.7103 5.38004 13.7082 5.38211C13.7062 5.38314 13.7051 5.38521 13.7031 5.38728C13.701 5.38936 13.6989 5.39143 13.6979 5.39246C13.6958 5.3935 13.6948 5.39557 13.6927 5.39764C13.6906 5.39867 13.6896 5.40074 13.6875 5.40281C13.6855 5.40488 13.6834 5.40695 13.6824 5.40799C13.6803 5.40902 13.6793 5.41109 13.6772 5.41317C13.6751 5.41524 13.6741 5.41627 13.672 5.41834C13.6699 5.41938 13.6689 5.42145 13.6668 5.42352C13.6648 5.42559 13.6627 5.42766 13.6617 5.42869C13.6596 5.42973 13.6585 5.4318 13.6565 5.43387C13.6544 5.43594 13.6534 5.43698 13.6513 5.43905C13.6492 5.44112 13.6482 5.44215 13.6461 5.44422C13.6441 5.44629 13.643 5.44733 13.6409 5.4494C13.6389 5.45147 13.6378 5.4525 13.6358 5.45457C13.6337 5.45561 13.6327 5.45768 13.6306 5.45975C13.6285 5.46182 13.6265 5.46389 13.6254 5.46493C13.6233 5.46596 13.6223 5.46803 13.6202 5.4701C13.6182 5.47217 13.6171 5.47321 13.6151 5.47528C13.613 5.47631 13.612 5.47838 13.6099 5.48045C13.6078 5.48252 13.6058 5.48459 13.6047 5.48563C13.6026 5.48667 13.6016 5.48874 13.5995 5.49081C13.5975 5.49184 13.5964 5.49391 13.5944 5.49598C13.5923 5.49805 13.5902 5.50012 13.5892 5.50116C13.5871 5.50219 13.5861 5.50426 13.584 5.50633C13.5819 5.5084 13.5809 5.50944 13.5788 5.51151C13.5768 5.51255 13.5757 5.51462 13.5737 5.51669C13.5716 5.51876 13.5695 5.52083 13.5685 5.52186C13.5664 5.5229 13.5654 5.52497 13.5633 5.52704C13.5612 5.52911 13.5602 5.53014 13.5581 5.53221C13.5561 5.53429 13.555 5.53532 13.553 5.53739C13.5509 5.53946 13.5498 5.5405 13.5478 5.54257C13.5457 5.54464 13.5447 5.54567 13.5426 5.54774C13.5405 5.54878 13.5395 5.55085 13.5374 5.55292C13.5354 5.55499 13.5333 5.55706 13.5323 5.5581C13.5302 5.55913 13.5291 5.5612 13.5271 5.56327C13.525 5.56534 13.524 5.56638 13.5219 5.56845C13.5198 5.56948 13.5188 5.57155 13.5167 5.57362C13.5147 5.57569 13.5126 5.57776 13.5115 5.5788C13.5095 5.57983 13.5084 5.58191 13.5064 5.58398C13.5043 5.58501 13.5033 5.58708 13.5012 5.58915C13.4991 5.59122 13.4971 5.59329 13.496 5.59433C13.4939 5.59536 13.4929 5.59743 13.4908 5.5995C13.4888 5.60157 13.4877 5.60261 13.4857 5.60468C13.4836 5.60572 13.4826 5.60779 13.4805 5.60986C13.4784 5.61193 13.4763 5.614 13.4753 5.61503C13.4732 5.61607 13.4722 5.61814 13.4701 5.62021C13.4681 5.62124 13.467 5.62331 13.465 5.62538C13.4629 5.62745 13.4608 5.62953 13.4598 5.63056C13.4577 5.6316 13.4567 5.63367 13.4546 5.63574C13.4525 5.63781 13.4515 5.63884 13.4494 5.64091C13.4474 5.64195 13.4463 5.64402 13.4443 5.64609C13.4422 5.64816 13.4401 5.65023 13.4391 5.65126C13.437 5.6523 13.436 5.65437 13.4339 5.65644C13.4318 5.65851 13.4308 5.65955 13.4287 5.66162C13.4267 5.66369 13.4256 5.66472 13.4236 5.66679C13.4215 5.66886 13.4204 5.6699 13.4184 5.67197C13.4163 5.67404 13.4153 5.67507 13.4132 5.67715C13.4111 5.67818 13.4101 5.68025 13.408 5.68232C13.406 5.68439 13.4039 5.68646 13.4028 5.6875C13.4008 5.68853 13.3997 5.6906 13.3977 5.69267C13.3956 5.69474 13.3946 5.69578 13.3925 5.69785C13.3904 5.69888 13.3894 5.70096 13.3873 5.70303C13.3853 5.7051 13.3832 5.70717 13.3821 5.7082C13.3801 5.70924 13.379 5.71131 13.377 5.71338C13.3749 5.71441 13.3739 5.71648 13.3718 5.71855C13.3697 5.72062 13.3677 5.72269 13.3666 5.72373C13.3645 5.72476 13.3635 5.72684 13.3614 5.72891C13.3594 5.73098 13.3583 5.73201 13.3563 5.73408C13.3542 5.73512 13.3532 5.73719 13.3511 5.73926C13.349 5.74133 13.3469 5.7434 13.3459 5.74443C13.3438 5.74547 13.3428 5.74754 13.3407 5.74961C13.3387 5.75065 13.3376 5.75272 13.3356 5.75479C13.3335 5.75686 13.3314 5.75893 13.3304 5.75996C13.3283 5.761 13.3273 5.76307 13.3252 5.76514C13.3231 5.76721 13.3221 5.76824 13.32 5.77031C13.318 5.77135 13.3169 5.77342 13.3149 5.77549C13.3128 5.77756 13.3107 5.77963 13.3097 5.78067C13.3076 5.7817 13.3066 5.78377 13.3045 5.78584C13.3024 5.78791 13.3014 5.78895 13.2993 5.79102C13.2973 5.79205 13.2962 5.79412 13.2942 5.79619C13.2921 5.79827 13.29 5.80034 13.289 5.80137C13.2869 5.80241 13.2859 5.80448 13.2838 5.80655C13.2817 5.80758 13.2807 5.80965 13.2786 5.81172C13.2766 5.81379 13.2745 5.81586 13.2734 5.8169C13.2714 5.81793 13.2703 5.82 13.2683 5.82207C13.2662 5.82415 13.2652 5.82518 13.2631 5.82725C13.261 5.82829 13.26 5.83036 13.2579 5.83243C13.2558 5.8345 13.2538 5.83657 13.2527 5.8376C13.2507 5.83864 13.2496 5.84071 13.2476 5.84278C13.2455 5.84381 13.2445 5.84588 13.2424 5.84796C13.2403 5.85003 13.2382 5.8521 13.2372 5.85313C13.2351 5.85417 13.2341 5.85624 13.232 5.85831C13.23 5.86038 13.2289 5.86141 13.2269 5.86348C13.2248 5.86452 13.2238 5.86659 13.2217 5.86866C13.2196 5.87073 13.2175 5.8728 13.2165 5.87384C13.2144 5.87487 13.2134 5.87694 13.2113 5.87901C13.2093 5.88108 13.2082 5.88212 13.2062 5.88419C13.2041 5.88626 13.2031 5.88729 13.201 5.88936C13.1989 5.89143 13.1979 5.89247 13.1958 5.89454C13.1937 5.89661 13.1927 5.89765 13.1906 5.89972C13.1886 5.90075 13.1875 5.90282 13.1855 5.90489C13.1834 5.90696 13.1813 5.90903 13.1803 5.91007C13.1782 5.9111 13.1772 5.91317 13.1751 5.91524C13.173 5.91731 13.172 5.91835 13.1699 5.92042C13.1679 5.92146 13.1668 5.92353 13.1647 5.9256C13.1627 5.92767 13.1606 5.92974 13.1596 5.93077C13.1575 5.93181 13.1565 5.93388 13.1544 5.93595C13.1523 5.93698 13.1513 5.93905 13.1492 5.94112C13.1472 5.9432 13.1451 5.94527 13.144 5.9463C13.142 5.94734 13.1409 5.94941 13.1389 5.95148C13.1368 5.95355 13.1358 5.95458 13.1337 5.95665C13.1316 5.95769 13.1306 5.95976 13.1285 5.96183C13.1264 5.9639 13.1244 5.96597 13.1233 5.96701C13.1213 5.96804 13.1202 5.97011 13.1182 5.97218C13.1161 5.97322 13.1151 5.97529 13.113 5.97736C13.1109 5.97943 13.1088 5.9815 13.1078 5.98253C13.1057 5.98357 13.1047 5.98564 13.1026 5.98771C13.1006 5.98978 13.0995 5.99082 13.0975 5.99289C13.0954 5.99392 13.0944 5.99599 13.0923 5.99806C13.0902 6.00013 13.0881 6.0022 13.0871 6.00324C13.085 6.00427 13.084 6.00634 13.0819 6.00841C13.0799 6.01048 13.0788 6.01152 13.0768 6.01359C13.0747 6.01463 13.0737 6.0167 13.0716 6.01877C13.0695 6.02084 13.0674 6.02291 13.0664 6.02394C13.0643 6.02498 13.0633 6.02705 13.0612 6.02912C13.0592 6.03015 13.0581 6.03222 13.0561 6.03429C13.054 6.03636 13.0519 6.03844 13.0509 6.03947C13.0488 6.04051 13.0478 6.04258 13.0457 6.04465C13.0436 6.04672 13.0426 6.04775 13.0405 6.04982C13.0385 6.05086 13.0374 6.05293 13.0353 6.055C13.0333 6.05707 13.0312 6.05914 13.0302 6.06017C13.0281 6.06121 13.0271 6.06328 13.025 6.06535C13.0229 6.06639 13.0219 6.06846 13.0198 6.07053C13.0177 6.0726 13.0157 6.07467 13.0146 6.0757C13.0126 6.07674 13.0115 6.07881 13.0095 6.08088C13.0074 6.08295 13.0064 6.08398 13.0043 6.08605C13.0022 6.08709 13.0012 6.08916 12.9991 6.09123C12.997 6.0933 12.995 6.09537 12.9939 6.09641C12.9919 6.09744 12.9908 6.09951 12.9888 6.10158C12.9867 6.10365 12.9857 6.10469 12.9836 6.10676C12.9815 6.10883 12.9805 6.10986 12.9784 6.11193C12.9763 6.11401 12.9753 6.11504 12.9732 6.11711C12.9712 6.11918 12.9701 6.12022 12.9681 6.12229C12.966 6.12332 12.965 6.12539 12.9629 6.12746C12.9608 6.12953 12.9587 6.1316 12.9577 6.13264C12.9556 6.13367 12.9546 6.13574 12.9525 6.13782C12.9505 6.13989 12.9494 6.14092 12.9474 6.14299C12.9453 6.14403 12.9442 6.1461 12.9422 6.14817C12.9401 6.15024 12.938 6.15231 12.937 6.15334C12.9349 6.15438 12.9339 6.15645 12.9318 6.15852C12.9298 6.15955 12.9287 6.16163 12.9266 6.1637C12.9246 6.16577 12.9225 6.16784 12.9215 6.16887C12.9194 6.16991 12.9184 6.17198 12.9163 6.17405C12.9142 6.17612 12.9132 6.17715 12.9111 6.17922C12.9091 6.18026 12.908 6.18233 12.9059 6.1844C12.9039 6.18647 12.9018 6.18854 12.9008 6.18958C12.8987 6.19061 12.8977 6.19268 12.8956 6.19475C12.8935 6.19579 12.8925 6.19786 12.8904 6.19993C12.8883 6.202 12.8863 6.20407 12.8852 6.2051C12.8832 6.20614 12.8821 6.20821 12.8801 6.21028C12.878 6.21235 12.877 6.21339 12.8749 6.21546C12.8728 6.21649 12.8718 6.21856 12.8697 6.22063C12.8676 6.2227 12.8656 6.22477 12.8645 6.22581C12.8625 6.22684 12.8614 6.22891 12.8594 6.23098C12.8573 6.23306 12.8563 6.23409 12.8542 6.23616C12.8521 6.23823 12.8511 6.23927 12.849 6.24134C12.8469 6.24341 12.8459 6.24444 12.8438 6.24651C12.8418 6.24858 12.8407 6.24962 12.8387 6.25169C12.8366 6.25272 12.8356 6.25479 12.8335 6.25687C12.8314 6.25894 12.8293 6.26101 12.8283 6.26204C12.8262 6.26308 12.8252 6.26515 12.8231 6.26722C12.8211 6.26929 12.82 6.27032 12.818 6.27239C12.8159 6.27343 12.8148 6.2755 12.8128 6.27757C12.8107 6.27964 12.8086 6.28171 12.8076 6.28275C12.8055 6.28378 12.8045 6.28585 12.8024 6.28792C12.8004 6.28896 12.7993 6.29103 12.7972 6.2931C12.7952 6.29517 12.7931 6.29724 12.7921 6.29827C12.79 6.29931 12.789 6.30138 12.7869 6.30345C12.7848 6.30552 12.7838 6.30656 12.7817 6.30863C12.7796 6.30966 12.7786 6.31173 12.7765 6.3138C12.7745 6.31587 12.7724 6.31794 12.7714 6.31898C12.7693 6.32001 12.7683 6.32208 12.7662 6.32415C12.7641 6.32622 12.7631 6.32726 12.761 6.32933C12.7589 6.3314 12.7579 6.33244 12.7558 6.33451C12.7538 6.33658 12.7527 6.33761 12.7507 6.33968C12.7486 6.34175 12.7476 6.34279 12.7455 6.34486C12.7434 6.34589 12.7424 6.34796 12.7403 6.35003C12.7382 6.35211 12.7362 6.35418 12.7351 6.35521C12.7331 6.35625 12.732 6.35832 12.73 6.36039C12.7279 6.36246 12.7269 6.36349 12.7248 6.36556C12.7227 6.3666 12.7217 6.36867 12.7196 6.37074C12.7175 6.37281 12.7155 6.37488 12.7144 6.37592C12.7124 6.37695 12.7113 6.37902 12.7093 6.38109C12.7072 6.38213 12.7061 6.3842 12.7041 6.38627C12.702 6.38834 12.6999 6.39041 12.6989 6.39144C12.6968 6.39248 12.6958 6.39455 12.6937 6.39662C12.6917 6.39869 12.6906 6.39972 12.6886 6.4018C12.6865 6.40283 12.6854 6.4049 12.6834 6.40697C12.6813 6.40904 12.6792 6.41111 12.6782 6.41215C12.6761 6.41318 12.6751 6.41525 12.673 6.41732C12.671 6.41836 12.6699 6.42043 12.6678 6.4225C12.6658 6.42457 12.6637 6.42664 12.6627 6.42768C12.6606 6.42871 12.6596 6.43078 12.6575 6.43285C12.6554 6.43492 12.6544 6.43596 12.6523 6.43803C12.6502 6.43906 12.6492 6.44113 12.6471 6.4432C12.6451 6.44527 12.643 6.44734 12.642 6.44838C12.6399 6.44941 12.6389 6.45149 12.6368 6.45356C12.6347 6.45563 12.6337 6.45666 12.6316 6.45873C12.6295 6.4608 12.6285 6.46184 12.6264 6.46391C12.6244 6.46598 12.6233 6.46701 12.6213 6.46908C12.6192 6.47115 12.6182 6.47219 12.6161 6.47426C12.614 6.4753 12.613 6.47737 12.6109 6.47944C12.6088 6.48151 12.6068 6.48358 12.6057 6.48461C12.6037 6.48565 12.6026 6.48772 12.6006 6.48979C12.5985 6.49186 12.5975 6.49289 12.5954 6.49496C12.5933 6.496 12.5923 6.49807 12.5902 6.50014C12.5881 6.50221 12.5861 6.50428 12.585 6.50532C12.583 6.50635 12.5819 6.50842 12.5799 6.51049C12.5778 6.51153 12.5767 6.5136 12.5747 6.51567C12.5726 6.51774 12.5705 6.51981 12.5695 6.52084C12.5674 6.52188 12.5664 6.52395 12.5643 6.52602C12.5623 6.52809 12.5612 6.52913 12.5591 6.5312C11.1471 7.94116 10.2558 10.0696 10.2755 12.6286C10.321 18.4776 15.1089 24.3628 20.9692 25.7758C24.2674 26.5709 27.2023 25.7789 29.1298 23.8917C29.1319 23.8897 29.1329 23.8886 29.135 23.8866C29.1371 23.8855 29.1381 23.8835 29.1402 23.8814C29.1422 23.8793 29.1443 23.8773 29.1454 23.8762C29.1474 23.8752 29.1485 23.8731 29.1505 23.871C29.1526 23.869 29.1536 23.8679 29.1557 23.8659C29.1578 23.8638 29.1588 23.8628 29.1609 23.8607C29.163 23.8586 29.164 23.8576 29.1661 23.8555C29.1681 23.8534 29.1692 23.8524 29.1712 23.8503C29.1733 23.8483 29.1743 23.8472 29.1764 23.8452C29.1785 23.8431 29.1795 23.8421 29.1816 23.84C29.1837 23.8379 29.1847 23.8369 29.1868 23.8348C29.1888 23.8327 29.1899 23.8317 29.1919 23.8296C29.194 23.8276 29.195 23.8265 29.1971 23.8245C29.1992 23.8224 29.2002 23.8214 29.2023 23.8193C29.2044 23.8172 29.2054 23.8162 29.2075 23.8141C29.2095 23.812 29.2106 23.811 29.2126 23.8089C29.2147 23.8069 29.2157 23.8058 29.2178 23.8038C29.2199 23.8017 29.2209 23.8006 29.223 23.7986C29.2251 23.7965 29.2261 23.7955 29.2282 23.7934C29.2302 23.7924 29.2313 23.7903 29.2333 23.7882C29.2354 23.7862 29.2375 23.7841 29.2385 23.783C29.2406 23.782 29.2416 23.7799 29.2437 23.7779C29.2458 23.7758 29.2468 23.7748 29.2489 23.7727C29.2509 23.7706 29.252 23.7696 29.2541 23.7675C29.2561 23.7654 29.2572 23.7644 29.2592 23.7623C29.2613 23.7603 29.2623 23.7592 29.2644 23.7572C29.2665 23.7551 29.2675 23.7541 29.2696 23.752C29.2716 23.7499 29.2727 23.7489 29.2748 23.7468C29.2768 23.7447 29.2779 23.7437 29.2799 23.7416C29.282 23.7396 29.283 23.7385 29.2851 23.7365C29.2872 23.7344 29.2882 23.7334 29.2903 23.7313C29.2924 23.7292 29.2934 23.7282 29.2955 23.7261C29.2975 23.724 29.2986 23.723 29.3006 23.7209C29.3027 23.7189 29.3037 23.7178 29.3058 23.7158C29.3079 23.7137 29.3089 23.7127 29.311 23.7106C29.3131 23.7085 29.3141 23.7075 29.3162 23.7054C29.3182 23.7033 29.3193 23.7023 29.3213 23.7002C29.3234 23.6982 29.3244 23.6971 29.3265 23.6951C29.3286 23.693 29.3296 23.6919 29.3317 23.6899C29.3338 23.6878 29.3348 23.6868 29.3369 23.6847C29.3389 23.6826 29.34 23.6816 29.342 23.6795C29.3441 23.6775 29.3452 23.6764 29.3472 23.6744C29.3493 23.6723 29.3503 23.6712 29.3524 23.6692C29.3545 23.6671 29.3555 23.6661 29.3576 23.664C29.3596 23.663 29.3607 23.6609 29.3628 23.6588C29.3648 23.6568 29.3669 23.6547 29.3679 23.6536C29.37 23.6526 29.371 23.6505 29.3731 23.6485C29.3752 23.6464 29.3762 23.6454 29.3783 23.6433C29.3803 23.6412 29.3814 23.6402 29.3835 23.6381C29.3855 23.636 29.3866 23.635 29.3886 23.6329C29.3907 23.6309 29.3917 23.6298 29.3938 23.6278C29.3959 23.6257 29.3969 23.6247 29.399 23.6226C29.4011 23.6205 29.4021 23.6195 29.4042 23.6174C29.4062 23.6153 29.4073 23.6143 29.4093 23.6122C29.4114 23.6102 29.4124 23.6091 29.4145 23.6071C29.4166 23.605 29.4176 23.604 29.4197 23.6019C29.4218 23.5998 29.4228 23.5988 29.4249 23.5967C29.4269 23.5946 29.428 23.5936 29.43 23.5915C29.4321 23.5895 29.4331 23.5884 29.4352 23.5864C29.4373 23.5843 29.4383 23.5833 29.4404 23.5812C29.4425 23.5791 29.4435 23.5781 29.4456 23.576C29.4476 23.5739 29.4487 23.5729 29.4507 23.5708C29.4528 23.5698 29.4538 23.5677 29.4559 23.5657C29.458 23.5636 29.4601 23.5615 29.4611 23.5605C29.4632 23.5594 29.4642 23.5574 29.4663 23.5553C29.4683 23.5532 29.4694 23.5522 29.4714 23.5501C29.4735 23.5481 29.4746 23.547 29.4766 23.5449C29.4787 23.5429 29.4797 23.5418 29.4818 23.5398C29.4839 23.5377 29.4849 23.5367 29.487 23.5346C29.489 23.5336 29.4901 23.5315 29.4922 23.5294C29.4942 23.5274 29.4963 23.5253 29.4973 23.5242C29.4994 23.5232 29.5004 23.5211 29.5025 23.5191C29.5046 23.517 29.5056 23.516 29.5077 23.5139C29.5098 23.5118 29.5108 23.5108 29.5129 23.5087C29.5149 23.5066 29.516 23.5056 29.518 23.5035C29.5201 23.5015 29.5211 23.5004 29.5232 23.4984C29.5253 23.4963 29.5263 23.4953 29.5284 23.4932C29.5305 23.4911 29.5315 23.4901 29.5336 23.488C29.5356 23.4859 29.5367 23.4849 29.5387 23.4828C29.5408 23.4808 29.5418 23.4797 29.5439 23.4777C29.546 23.4756 29.547 23.4746 29.5491 23.4725C29.5512 23.4704 29.5522 23.4694 29.5543 23.4673C29.5563 23.4652 29.5574 23.4642 29.5594 23.4621C29.5615 23.4601 29.5625 23.459 29.5646 23.457C29.5667 23.4549 29.5677 23.4539 29.5698 23.4518C29.5719 23.4497 29.5729 23.4487 29.575 23.4466C29.577 23.4445 29.5781 23.4435 29.5801 23.4414C29.5822 23.4404 29.5833 23.4383 29.5853 23.4363C29.5874 23.4342 29.5895 23.4321 29.5905 23.4311C29.5926 23.43 29.5936 23.428 29.5957 23.4259C29.5977 23.4238 29.5988 23.4228 29.6008 23.4207C29.6029 23.4187 29.604 23.4176 29.606 23.4155C29.6081 23.4135 29.6091 23.4124 29.6112 23.4104C29.6133 23.4083 29.6143 23.4073 29.6164 23.4052C29.6184 23.4031 29.6195 23.4021 29.6216 23.4C29.6236 23.3979 29.6247 23.3969 29.6267 23.3948C29.6288 23.3928 29.6298 23.3917 29.6319 23.3897C29.634 23.3876 29.635 23.3866 29.6371 23.3845C29.6392 23.3824 29.6402 23.3814 29.6423 23.3793C29.6443 23.3772 29.6454 23.3762 29.6474 23.3741C29.6495 23.3721 29.6505 23.371 29.6526 23.369C29.6547 23.3669 29.6557 23.3659 29.6578 23.3638C29.6599 23.3617 29.6609 23.3607 29.663 23.3586C29.665 23.3565 29.6661 23.3555 29.6681 23.3534C29.6702 23.3514 29.6712 23.3503 29.6733 23.3483C29.6754 23.3462 29.6764 23.3452 29.6785 23.3431C29.6806 23.341 29.6816 23.34 29.6837 23.3379C29.6857 23.3358 29.6868 23.3348 29.6888 23.3327C29.6909 23.3307 29.6919 23.3296 29.694 23.3276C29.6961 23.3255 29.6971 23.3244 29.6992 23.3224C29.7013 23.3203 29.7023 23.3193 29.7044 23.3172C29.7064 23.3151 29.7075 23.3141 29.7095 23.312C29.7116 23.311 29.7127 23.3089 29.7147 23.3068C29.7168 23.3048 29.7189 23.3027 29.7199 23.3017C29.722 23.3006 29.723 23.2986 29.7251 23.2965C29.7271 23.2944 29.7282 23.2934 29.7303 23.2913C29.7323 23.2893 29.7334 23.2882 29.7354 23.2861C29.7375 23.2841 29.7385 23.283 29.7406 23.281C29.7427 23.2789 29.7437 23.2779 29.7458 23.2758C29.7478 23.2737 29.7489 23.2727 29.751 23.2706C29.753 23.2685 29.7541 23.2675 29.7561 23.2654C29.7582 23.2634 29.7592 23.2623 29.7613 23.2603C29.7634 23.2582 29.7644 23.2572 29.7665 23.2551C29.7686 23.253 29.7696 23.252 29.7717 23.2499C29.7737 23.2478 29.7748 23.2468 29.7768 23.2447C29.7789 23.2427 29.7799 23.2416 29.782 23.2396C29.7841 23.2375 29.7851 23.2365 29.7872 23.2344C29.7893 23.2323 29.7903 23.2313 29.7924 23.2292C29.7944 23.2271 29.7955 23.2261 29.7975 23.224C29.7996 23.222 29.8006 23.2209 29.8027 23.2189C29.8048 23.2178 29.8058 23.2158 29.8079 23.2137C29.81 23.2116 29.812 23.2095 29.8131 23.2085C29.8151 23.2075 29.8162 23.2054 29.8182 23.2033C29.8203 23.2013 29.8213 23.2002 29.8234 23.1982C29.8255 23.1961 29.8265 23.195 29.8286 23.193C29.8307 23.1909 29.8317 23.1899 29.8338 23.1878C29.8358 23.1857 29.8369 23.1847 29.8389 23.1826C29.841 23.1806 29.8421 23.1795 29.8441 23.1774C29.8462 23.1754 29.8472 23.1743 29.8493 23.1723C29.8514 23.1702 29.8524 23.1692 29.8545 23.1671C29.8565 23.165 29.8576 23.164 29.8597 23.1619C29.8617 23.1598 29.8628 23.1588 29.8648 23.1567C29.8669 23.1547 29.8679 23.1536 29.87 23.1516C29.8721 23.1495 29.8731 23.1485 29.8752 23.1464C29.8773 23.1443 29.8783 23.1433 29.8804 23.1412C29.8824 23.1391 29.8835 23.1381 29.8855 23.136C29.8876 23.134 29.8886 23.1329 29.8907 23.1309C29.8928 23.1288 29.8938 23.1278 29.8959 23.1257C29.898 23.1236 29.899 23.1226 29.9011 23.1205C29.9031 23.1184 29.9042 23.1174 29.9062 23.1153C29.9083 23.1133 29.9093 23.1122 29.9114 23.1102C29.9135 23.1081 29.9145 23.1071 29.9166 23.105C29.9187 23.1029 29.9197 23.1019 29.9218 23.0998C29.9238 23.0977 29.9249 23.0967 29.9269 23.0946C29.929 23.0926 29.93 23.0915 29.9321 23.0895C29.9342 23.0884 29.9352 23.0863 29.9373 23.0843C29.9394 23.0822 29.9414 23.0801 29.9425 23.0791C29.9445 23.0781 29.9456 23.076 29.9476 23.0739C29.9497 23.0719 29.9508 23.0708 29.9528 23.0687C29.9549 23.0667 29.9559 23.0656 29.958 23.0636C29.9601 23.0615 29.9611 23.0605 29.9632 23.0584C29.9652 23.0563 29.9663 23.0553 29.9683 23.0532C29.9704 23.0512 29.9715 23.0501 29.9735 23.048C29.9756 23.046 29.9766 23.0449 29.9787 23.0429C29.9808 23.0408 29.9818 23.0398 29.9839 23.0377C29.986 23.0356 29.987 23.0346 29.9891 23.0325C29.9911 23.0304 29.9922 23.0294 29.9942 23.0273C29.9963 23.0253 29.9973 23.0242 29.9994 23.0222C30.0015 23.0201 30.0025 23.0191 30.0046 23.017C30.0067 23.0149 30.0077 23.0139 30.0098 23.0118C30.0118 23.0097 30.0129 23.0087 30.0149 23.0066C30.017 23.0046 30.018 23.0035 30.0201 23.0015C30.0222 22.9994 30.0232 22.9984 30.0253 22.9963C30.0274 22.9952 30.0284 22.9932 30.0305 22.9911C30.0325 22.989 30.0346 22.987 30.0356 22.9859C30.0377 22.9849 30.0387 22.9828 30.0408 22.9808C30.0429 22.9787 30.0439 22.9777 30.046 22.9756C30.0481 22.9735 30.0491 22.9725 30.0512 22.9704C30.0532 22.9683 30.0543 22.9673 30.0563 22.9652C30.0584 22.9632 30.0595 22.9621 30.0615 22.9601C30.0636 22.958 30.0646 22.9569 30.0667 22.9549C30.0688 22.9528 30.0698 22.9518 30.0719 22.9497C30.0739 22.9476 30.075 22.9466 30.077 22.9445C30.0791 22.9425 30.0802 22.9414 30.0822 22.9393C30.0843 22.9373 30.0853 22.9362 30.0874 22.9342C30.0895 22.9321 30.0905 22.9311 30.0926 22.929C30.0946 22.9269 30.0957 22.9259 30.0978 22.9238C30.0998 22.9217 30.1009 22.9207 30.1029 22.9186C30.105 22.9166 30.106 22.9155 30.1081 22.9135C30.1102 22.9114 30.1112 22.9104 30.1133 22.9083C30.1154 22.9062 30.1164 22.9052 30.1185 22.9031C30.1205 22.901 30.1216 22.9 30.1236 22.8979C30.1257 22.8959 30.1267 22.8948 30.1288 22.8928C30.1309 22.8907 30.1319 22.8897 30.134 22.8876C30.1361 22.8855 30.1371 22.8845 30.1392 22.8824C30.1412 22.8803 30.1423 22.8793 30.1443 22.8772C30.1464 22.8752 30.1474 22.8741 30.1495 22.8721C30.1516 22.87 30.1526 22.869 30.1547 22.8669C30.1568 22.8658 30.1578 22.8638 30.1599 22.8617C30.1619 22.8596 30.164 22.8576 30.165 22.8565C30.1671 22.8555 30.1681 22.8534 30.1702 22.8514C30.1723 22.8493 30.1733 22.8482 30.1754 22.8462C30.1775 22.8441 30.1785 22.8431 30.1806 22.841C30.1826 22.8389 30.1837 22.8379 30.1857 22.8358C30.1878 22.8338 30.1889 22.8327 30.1909 22.8307C30.193 22.8286 30.194 22.8275 30.1961 22.8255C30.1982 22.8234 30.1992 22.8224 30.2013 22.8203C30.2033 22.8182 30.2044 22.8172 30.2065 22.8151C30.2085 22.8131 30.2096 22.812 30.2116 22.8099C30.2137 22.8079 30.2147 22.8068 30.2168 22.8048C30.2189 22.8027 30.2199 22.8017 30.222 22.7996C30.224 22.7975 30.2251 22.7965 30.2272 22.7944C30.2292 22.7923 30.2303 22.7913 30.2323 22.7892C30.2344 22.7872 30.2354 22.7861 30.2375 22.7841C30.2396 22.782 30.2406 22.781 30.2427 22.7789C30.2448 22.7768 30.2458 22.7758 30.2479 22.7737C30.2499 22.7727 30.251 22.7706 30.253 22.7685C30.2551 22.7665 30.2572 22.7644 30.2582 22.7634C30.2603 22.7623 30.2613 22.7603 30.2634 22.7582C30.2655 22.7561 30.2665 22.7551 30.2686 22.753C30.2706 22.7509 30.2717 22.7499 30.2737 22.7478C30.2758 22.7458 30.2768 22.7447 30.2789 22.7427C30.281 22.7406 30.282 22.7396 30.2841 22.7375C30.2862 22.7354 30.2872 22.7344 30.2893 22.7323C30.2913 22.7302 30.2924 22.7292 30.2944 22.7271C30.2965 22.7251 30.2975 22.724 30.2996 22.722C30.3017 22.7199 30.3027 22.7188 30.3048 22.7168C30.3069 22.7147 30.3079 22.7137 30.31 22.7116C30.312 22.7095 30.3131 22.7085 30.3151 22.7064C30.3172 22.7044 30.3183 22.7033 30.3203 22.7012C30.3224 22.6992 30.3234 22.6981 30.3255 22.6961C30.3276 22.694 30.3286 22.693 30.3307 22.6909C30.3327 22.6888 30.3338 22.6878 30.3359 22.6857C30.3379 22.6836 30.339 22.6826 30.341 22.6805C30.3431 22.6785 30.3441 22.6774 30.3462 22.6754C30.3483 22.6733 30.3493 22.6723 30.3514 22.6702C30.3535 22.6681 30.3545 22.6671 30.3566 22.665C30.3586 22.6629 30.3597 22.6619 30.3617 22.6598C30.3638 22.6578 30.3648 22.6567 30.3669 22.6547C30.369 22.6526 30.37 22.6516 30.3721 22.6495C30.3742 22.6474 30.3752 22.6464 30.3773 22.6443C30.3793 22.6433 30.3804 22.6412 30.3824 22.6391C30.3845 22.6371 30.3866 22.635 30.3876 22.634C30.3897 22.6329 30.3907 22.6309 30.3928 22.6288C30.3949 22.6267 30.3959 22.6257 30.398 22.6236C30.4 22.6215 30.4011 22.6205 30.4031 22.6184C30.4052 22.6164 30.4062 22.6153 30.4083 22.6133C30.4104 22.6112 30.4114 22.6101 30.4135 22.6081C30.4156 22.606 30.4166 22.605 30.4187 22.6029C30.4207 22.6008 30.4218 22.5998 30.4238 22.5977C30.4259 22.5957 30.427 22.5946 30.429 22.5926C30.4311 22.5905 30.4321 22.5894 30.4342 22.5874C30.4363 22.5853 30.4373 22.5843 30.4394 22.5822C30.4414 22.5801 30.4425 22.5791 30.4445 22.577C30.4466 22.575 30.4477 22.5739 30.4497 22.5718C30.4518 22.5698 30.4528 22.5687 30.4549 22.5667C30.457 22.5646 30.458 22.5636 30.4601 22.5615C30.4621 22.5594 30.4632 22.5584 30.4653 22.5563C30.4673 22.5542 30.4684 22.5532 30.4704 22.5511C30.4725 22.5501 30.4735 22.548 30.4756 22.546C30.4777 22.5439 30.4797 22.5418 30.4808 22.5408C30.4829 22.5398 30.4839 22.5377 30.486 22.5356C30.488 22.5335 30.4891 22.5325 30.4911 22.5304C30.4932 22.5284 30.4942 22.5273 30.4963 22.5253C30.4984 22.5232 30.4994 22.5222 30.5015 22.5201C30.5036 22.518 30.5046 22.517 30.5067 22.5149C30.5087 22.5128 30.5098 22.5118 30.5118 22.5097C30.5139 22.5077 30.5149 22.5066 30.517 22.5046C30.5191 22.5025 30.5201 22.5015 30.5222 22.4994C30.5243 22.4973 30.5253 22.4963 30.5274 22.4942C30.5294 22.4921 30.5305 22.4911 30.5325 22.489C30.5346 22.487 30.5356 22.4859 30.5377 22.4839C30.5398 22.4818 30.5408 22.4807 30.5429 22.4787C30.545 22.4766 30.546 22.4756 30.5481 22.4735C30.5501 22.4714 30.5512 22.4704 30.5532 22.4683C30.5553 22.4663 30.5564 22.4652 30.5584 22.4631C30.5605 22.4611 30.5615 22.46 30.5636 22.458C30.5657 22.4559 30.5667 22.4549 30.5688 22.4528C30.5708 22.4507 30.5719 22.4497 30.574 22.4476C30.576 22.4456 30.5771 22.4445 30.5791 22.4424C30.5812 22.4404 30.5822 22.4393 30.5843 22.4373C30.5864 22.4352 30.5874 22.4342 30.5895 22.4321C30.5915 22.43 30.5926 22.429 30.5947 22.4269C30.5967 22.4248 30.5978 22.4238 30.5998 22.4217C30.6019 22.4207 30.6029 22.4186 30.605 22.4166C30.6071 22.4145 30.6091 22.4124 30.6102 22.4114C30.6123 22.4104 30.6133 22.4083 30.6154 22.4062C30.6174 22.4041 30.6185 22.4031 30.6205 22.401C30.6226 22.399 30.6236 22.3979 30.6257 22.3959C30.6278 22.3938 30.6288 22.3928 30.6309 22.3907C30.633 22.3886 30.634 22.3876 30.6361 22.3855C30.6381 22.3834 30.6392 22.3824 30.6412 22.3803C30.6433 22.3783 30.6443 22.3772 30.6464 22.3752C30.6485 22.3731 30.6495 22.3721 30.6516 22.37C30.6537 22.3679 30.6547 22.3669 30.6568 22.3648C30.6588 22.3627 30.6599 22.3617 30.6619 22.3596C30.664 22.3576 30.665 22.3565 30.6671 22.3545C30.6692 22.3524 30.6702 22.3513 30.6723 22.3493C30.6744 22.3472 30.6754 22.3462 30.6775 22.3441C30.6795 22.342 30.6806 22.341 30.6826 22.3389C30.6847 22.3369 30.6858 22.3358 30.6878 22.3337C30.6899 22.3317 30.6909 22.3306 30.693 22.3286C30.6951 22.3275 30.6961 22.3255 30.6982 22.3234C30.7002 22.3213 30.7023 22.3193 30.7034 22.3182C30.7054 22.3172 30.7065 22.3151 30.7085 22.313C30.7106 22.311 30.7116 22.3099 30.7137 22.3079C30.7158 22.3058 30.7168 22.3048 30.7189 22.3027C30.721 22.3006 30.722 22.2996 30.7241 22.2975C30.7261 22.2954 30.7272 22.2944 30.7292 22.2923C30.7313 22.2903 30.7323 22.2892 30.7344 22.2872C30.7365 22.2851 30.7375 22.2841 30.7396 22.282C30.7417 22.2799 30.7427 22.2789 30.7448 22.2768C30.7468 22.2747 30.7479 22.2737 30.7499 22.2716C30.752 22.2696 30.753 22.2685 30.7551 22.2665C30.7572 22.2644 30.7582 22.2634 30.7603 22.2613C30.7624 22.2592 30.7634 22.2582 30.7655 22.2561C30.7675 22.254 30.7686 22.253 30.7706 22.2509C30.7727 22.2489 30.7737 22.2478 30.7758 22.2458C30.7779 22.2437 30.7789 22.2426 30.781 22.2406C30.7831 22.2385 30.7841 22.2375 30.7862 22.2354C30.7882 22.2333 30.7893 22.2323 30.7913 22.2302C30.7934 22.2282 30.7945 22.2271 30.7965 22.2251C30.7986 22.223 30.7996 22.2219 30.8017 22.2199C30.8038 22.2178 30.8048 22.2168 30.8069 22.2147C30.8089 22.2126 30.81 22.2116 30.8121 22.2095C30.8141 22.2075 30.8152 22.2064 30.8172 22.2043C30.8193 22.2023 30.8203 22.2012 30.8224 22.1992C30.8245 22.1981 30.8255 22.1961 30.8276 22.194C30.8296 22.1919 30.8317 22.1899 30.8328 22.1888C30.8348 22.1878 30.8359 22.1857 30.8379 22.1836C30.84 22.1816 30.841 22.1805 30.8431 22.1785C30.8452 22.1764 30.8462 22.1754 30.8483 22.1733C30.8504 22.1712 30.8514 22.1702 30.8535 22.1681C30.8555 22.166 30.8566 22.165 30.8586 22.1629C30.8607 22.1609 30.8617 22.1598 30.8638 22.1578C30.8659 22.1557 30.8669 22.1547 30.869 22.1526C30.8711 22.1505 30.8721 22.1495 30.8742 22.1474C30.8762 22.1453 30.8773 22.1443 30.8793 22.1422C30.8814 22.1402 30.8824 22.1391 30.8845 22.1371C30.8866 22.135 30.8876 22.134 30.8897 22.1319C30.8918 22.1298 30.8928 22.1288 30.8949 22.1267C30.8969 22.1246 30.898 22.1236 30.9 22.1215C30.9021 22.1195 30.9031 22.1184 30.9052 22.1164C30.9073 22.1143 30.9083 22.1132 30.9104 22.1112C30.9125 22.1091 30.9135 22.1081 30.9156 22.106C30.9176 22.105 30.9187 22.1029 30.9207 22.1008C30.9228 22.0988 30.9249 22.0967 30.9259 22.0956C30.928 22.0946 30.929 22.0925 30.9311 22.0905C30.9332 22.0884 30.9342 22.0874 30.9363 22.0853C30.9383 22.0832 30.9394 22.0822 30.9415 22.0801C30.9435 22.0781 30.9446 22.077 30.9466 22.0749C30.9487 22.0729 30.9497 22.0718 30.9518 22.0698C30.9539 22.0677 30.9549 22.0667 30.957 22.0646C30.9591 22.0625 30.9601 22.0615 30.9622 22.0594C30.9642 22.0573 30.9653 22.0563 30.9673 22.0542C30.9694 22.0522 30.9704 22.0511 30.9725 22.0491C30.9746 22.047 30.9756 22.046 30.9777 22.0439C30.9798 22.0418 30.9808 22.0408 30.9829 22.0387C30.9849 22.0366 30.986 22.0356 30.988 22.0335C30.9901 22.0315 30.9911 22.0304 30.9932 22.0284C30.9953 22.0263 30.9963 22.0253 30.9984 22.0232C31.0005 22.0211 31.0015 22.0201 31.0036 22.018C31.0056 22.0159 31.0067 22.0149 31.0087 22.0128C31.0108 22.0108 31.0118 22.0097 31.0139 22.0077C31.016 22.0056 31.017 22.0046 31.0191 22.0025C31.0212 22.0004 31.0222 21.9994 31.0243 21.9973C31.0263 21.9952 31.0274 21.9942 31.0294 21.9921C31.0315 21.9901 31.0326 21.989 31.0346 21.987C31.0367 21.9849 31.0377 21.9838 31.0398 21.9818C31.0419 21.9797 31.0429 21.9787 31.045 21.9766C31.047 21.9756 31.0481 21.9735 31.0501 21.9714C31.0522 21.9694 31.0543 21.9673 31.0553 21.9662C31.0574 21.9652 31.0584 21.9631 31.0605 21.9611C31.0626 21.959 31.0636 21.958 31.0657 21.9559C31.0677 21.9538 31.0688 21.9528 31.0709 21.9507C31.0729 21.9486 31.074 21.9476 31.076 21.9455C31.0781 21.9435 31.0791 21.9424 31.0812 21.9404C31.0833 21.9383 31.0843 21.9373 31.0864 21.9352C31.0885 21.9331 31.0895 21.9321 31.0916 21.93C31.0936 21.9279 31.0947 21.9269 31.0967 21.9248C31.0988 21.9228 31.0998 21.9217 31.1019 21.9197C31.104 21.9176 31.105 21.9166 31.1071 21.9145C31.1092 21.9124 31.1102 21.9114 31.1123 21.9093C31.1143 21.9072 31.1154 21.9062 31.1174 21.9041C31.1195 21.9021 31.1205 21.901 31.1226 21.899C31.1247 21.8969 31.1257 21.8959 31.1278 21.8938C31.1299 21.8917 31.1309 21.8907 31.133 21.8886C31.135 21.8865 31.1361 21.8855 31.1381 21.8834C31.1402 21.8824 31.1412 21.8803 31.1433 21.8783C31.1454 21.8762 31.1475 21.8741 31.1485 21.8731C31.1506 21.872 31.1516 21.87 31.1537 21.8679C31.1557 21.8658 31.1568 21.8648 31.1588 21.8627C31.1609 21.8607 31.162 21.8596 31.164 21.8575C31.1661 21.8555 31.1671 21.8544 31.1692 21.8524C31.1713 21.8503 31.1723 21.8493 31.1744 21.8472C31.1764 21.8462 31.1775 21.8441 31.1796 21.842C31.1816 21.84 31.1837 21.8379 31.1847 21.8368C31.1868 21.8358 31.1878 21.8337 31.1899 21.8317C31.192 21.8296 31.193 21.8286 31.1951 21.8265C31.1971 21.8244 31.1982 21.8234 31.2003 21.8213C32.6123 20.4134 33.5036 18.285 33.4839 15.7249Z" stroke="black" stroke-miterlimit="10" stroke-linecap="round" stroke-linejoin="round"/>
<path d="M28.8157 24.1685C32.6874 20.7498 32.2723 13.9537 27.8886 8.98917C23.5048 4.0246 16.8125 2.77146 12.9408 6.1902C9.06906 9.60894 9.48414 16.4049 13.8679 21.3695C18.2516 26.3341 24.944 27.5872 28.8157 24.1685Z" fill="white" stroke="black" stroke-miterlimit="10" stroke-linecap="round" stroke-linejoin="round"/>
<path d="M20.8782 15.1782L24.9083 16.1834" stroke="black" stroke-miterlimit="10" stroke-linecap="round" stroke-linejoin="round"/>
<path d="M3.40894 7.3728L7.44006 8.378" stroke="#2F5ACF" stroke-width="2" stroke-miterlimit="10" stroke-linecap="round" stroke-linejoin="round"/>
<path d="M3.40894 14.2734L7.44006 15.2776" stroke="#2F5ACF" stroke-width="2" stroke-miterlimit="10" stroke-linecap="round" stroke-linejoin="round"/>
<path d="M1 10.2229L7.44007 11.8285" stroke="#2F5ACF" stroke-width="2" stroke-miterlimit="10" stroke-linecap="round" stroke-linejoin="round"/>
<path d="M20.8782 15.1785V8.27881" stroke="black" stroke-miterlimit="10" stroke-linecap="round" stroke-linejoin="round"/>
</svg>
